<?xml version="1.0" encoding="UTF-8" standalone="no"?>
<!-- Created with Inkscape (http://www.inkscape.org/) -->

<svg
   xmlns:dc="http://purl.org/dc/elements/1.1/"
   xmlns:cc="http://creativecommons.org/ns#"
   xmlns:rdf="http://www.w3.org/1999/02/22-rdf-syntax-ns#"
   xmlns:svg="http://www.w3.org/2000/svg"
   xmlns="http://www.w3.org/2000/svg"
   xmlns:sodipodi="http://sodipodi.sourceforge.net/DTD/sodipodi-0.dtd"
   xmlns:inkscape="http://www.inkscape.org/namespaces/inkscape"
   width="100"
   height="100"
   id="svg13986"
   version="1.1"
   inkscape:version="0.47 r22583"
   sodipodi:docname="fu.svg"
   style="display:inline">
  <defs
     id="defs13988">
    <inkscape:perspective
       sodipodi:type="inkscape:persp3d"
       inkscape:vp_x="0 : 526.18109 : 1"
       inkscape:vp_y="0 : 1000 : 0"
       inkscape:vp_z="744.09448 : 526.18109 : 1"
       inkscape:persp3d-origin="372.04724 : 350.78739 : 1"
       id="perspective13994" />
    <inkscape:perspective
       id="perspective14004"
       inkscape:persp3d-origin="0.5 : 0.33333333 : 1"
       inkscape:vp_z="1 : 0.5 : 1"
       inkscape:vp_y="0 : 1000 : 0"
       inkscape:vp_x="0 : 0.5 : 1"
       sodipodi:type="inkscape:persp3d" />
    <inkscape:perspective
       id="perspective3830"
       inkscape:persp3d-origin="0.5 : 0.33333333 : 1"
       inkscape:vp_z="1 : 0.5 : 1"
       inkscape:vp_y="0 : 1000 : 0"
       inkscape:vp_x="0 : 0.5 : 1"
       sodipodi:type="inkscape:persp3d" />
    <inkscape:perspective
       id="perspective3830-1"
       inkscape:persp3d-origin="0.5 : 0.33333333 : 1"
       inkscape:vp_z="1 : 0.5 : 1"
       inkscape:vp_y="0 : 1000 : 0"
       inkscape:vp_x="0 : 0.5 : 1"
       sodipodi:type="inkscape:persp3d" />
    <inkscape:perspective
       id="perspective3830-0"
       inkscape:persp3d-origin="0.5 : 0.33333333 : 1"
       inkscape:vp_z="1 : 0.5 : 1"
       inkscape:vp_y="0 : 1000 : 0"
       inkscape:vp_x="0 : 0.5 : 1"
       sodipodi:type="inkscape:persp3d" />
    <inkscape:perspective
       id="perspective3830-2"
       inkscape:persp3d-origin="0.5 : 0.33333333 : 1"
       inkscape:vp_z="1 : 0.5 : 1"
       inkscape:vp_y="0 : 1000 : 0"
       inkscape:vp_x="0 : 0.5 : 1"
       sodipodi:type="inkscape:persp3d" />
    <inkscape:perspective
       id="perspective3830-4"
       inkscape:persp3d-origin="0.5 : 0.33333333 : 1"
       inkscape:vp_z="1 : 0.5 : 1"
       inkscape:vp_y="0 : 1000 : 0"
       inkscape:vp_x="0 : 0.5 : 1"
       sodipodi:type="inkscape:persp3d" />
    <inkscape:perspective
       id="perspective3830-44"
       inkscape:persp3d-origin="0.5 : 0.33333333 : 1"
       inkscape:vp_z="1 : 0.5 : 1"
       inkscape:vp_y="0 : 1000 : 0"
       inkscape:vp_x="0 : 0.5 : 1"
       sodipodi:type="inkscape:persp3d" />
    <inkscape:perspective
       id="perspective3830-11"
       inkscape:persp3d-origin="0.5 : 0.33333333 : 1"
       inkscape:vp_z="1 : 0.5 : 1"
       inkscape:vp_y="0 : 1000 : 0"
       inkscape:vp_x="0 : 0.5 : 1"
       sodipodi:type="inkscape:persp3d" />
    <inkscape:perspective
       id="perspective3830-19"
       inkscape:persp3d-origin="0.5 : 0.33333333 : 1"
       inkscape:vp_z="1 : 0.5 : 1"
       inkscape:vp_y="0 : 1000 : 0"
       inkscape:vp_x="0 : 0.5 : 1"
       sodipodi:type="inkscape:persp3d" />
    <inkscape:perspective
       id="perspective3830-5"
       inkscape:persp3d-origin="0.5 : 0.33333333 : 1"
       inkscape:vp_z="1 : 0.5 : 1"
       inkscape:vp_y="0 : 1000 : 0"
       inkscape:vp_x="0 : 0.5 : 1"
       sodipodi:type="inkscape:persp3d" />
    <inkscape:perspective
       id="perspective3830-53"
       inkscape:persp3d-origin="0.5 : 0.33333333 : 1"
       inkscape:vp_z="1 : 0.5 : 1"
       inkscape:vp_y="0 : 1000 : 0"
       inkscape:vp_x="0 : 0.5 : 1"
       sodipodi:type="inkscape:persp3d" />
    <inkscape:perspective
       id="perspective3830-04"
       inkscape:persp3d-origin="0.5 : 0.33333333 : 1"
       inkscape:vp_z="1 : 0.5 : 1"
       inkscape:vp_y="0 : 1000 : 0"
       inkscape:vp_x="0 : 0.5 : 1"
       sodipodi:type="inkscape:persp3d" />
    <inkscape:perspective
       id="perspective3830-6"
       inkscape:persp3d-origin="0.5 : 0.33333333 : 1"
       inkscape:vp_z="1 : 0.5 : 1"
       inkscape:vp_y="0 : 1000 : 0"
       inkscape:vp_x="0 : 0.5 : 1"
       sodipodi:type="inkscape:persp3d" />
    <inkscape:perspective
       id="perspective3830-55"
       inkscape:persp3d-origin="0.5 : 0.33333333 : 1"
       inkscape:vp_z="1 : 0.5 : 1"
       inkscape:vp_y="0 : 1000 : 0"
       inkscape:vp_x="0 : 0.5 : 1"
       sodipodi:type="inkscape:persp3d" />
    <inkscape:perspective
       id="perspective3830-40"
       inkscape:persp3d-origin="0.5 : 0.33333333 : 1"
       inkscape:vp_z="1 : 0.5 : 1"
       inkscape:vp_y="0 : 1000 : 0"
       inkscape:vp_x="0 : 0.5 : 1"
       sodipodi:type="inkscape:persp3d" />
    <inkscape:perspective
       id="perspective5074"
       inkscape:persp3d-origin="0.5 : 0.33333333 : 1"
       inkscape:vp_z="1 : 0.5 : 1"
       inkscape:vp_y="0 : 1000 : 0"
       inkscape:vp_x="0 : 0.5 : 1"
       sodipodi:type="inkscape:persp3d" />
    <inkscape:perspective
       id="perspective5809"
       inkscape:persp3d-origin="0.5 : 0.33333333 : 1"
       inkscape:vp_z="1 : 0.5 : 1"
       inkscape:vp_y="0 : 1000 : 0"
       inkscape:vp_x="0 : 0.5 : 1"
       sodipodi:type="inkscape:persp3d" />
  </defs>
  <sodipodi:namedview
     id="base"
     pagecolor="#ffffff"
     bordercolor="#666666"
     borderopacity="1.0"
     inkscape:pageopacity="0.0"
     inkscape:pageshadow="2"
     inkscape:zoom="0.99999999"
     inkscape:cx="-68.07732"
     inkscape:cy="-182.15522"
     inkscape:document-units="px"
     inkscape:current-layer="layer7"
     showgrid="false"
     showguides="true"
     inkscape:guide-bbox="true"
     inkscape:snap-global="false"
     inkscape:window-width="1920"
     inkscape:window-height="1122"
     inkscape:window-x="0"
     inkscape:window-y="24"
     inkscape:window-maximized="1">
    <sodipodi:guide
       orientation="0,1"
       position="105.48232,6.0037368"
       id="guide2865" />
    <sodipodi:guide
       orientation="1,0"
       position="50,22.169811"
       id="guide2957" />
  </sodipodi:namedview>
  <metadata
     id="metadata13991">
    <rdf:RDF>
      <cc:Work
         rdf:about="">
        <dc:format>image/svg+xml</dc:format>
        <dc:type
           rdf:resource="http://purl.org/dc/dcmitype/StillImage" />
        <dc:title />
      </cc:Work>
    </rdf:RDF>
  </metadata>
  <g
     inkscape:groupmode="layer"
     id="layer7"
     inkscape:label="pieces_0.5_opt_single"
     style="display:inline">
    <path
       style="fill:#e6c679;fill-opacity:1;stroke:#000000;stroke-width:1px;stroke-linecap:butt;stroke-linejoin:miter;stroke-opacity:1"
       d="m 18.087587,93.490558 63.821347,0.0077 -11.652481,-71.481711 -20.25976,-6.499996 -20.939296,7.042213 -10.96981,70.931794 z"
       id="path5839"
       sodipodi:nodetypes="cccccc" />
    <path
       style="fill:#000000;display:inline"
       d="m 48.443433,22.514173 c -0.991719,-0.08653 -1.387091,0.472868 -0.456342,1.494375 0.726443,0.797275 0.8614,1.569185 0.994378,5.419193 0.155275,4.49565 0.152344,4.501284 -1.345646,5.10847 -1.919443,0.778015 -2.114257,0.613361 -2.320361,-1.8731 -0.189539,-2.286566 -1.014277,-3.210469 -2.803017,-3.254283 -1.44337,-0.03532 -1.83973,0.725034 -0.8321,1.552151 1.019222,0.836623 1.574452,1.940648 1.737455,3.490892 0.121275,1.153357 -0.002,1.279896 -2.716783,2.309742 -1.564442,0.593459 -3.408969,1.066283 -4.076336,1.073785 -1.213448,0.01368 -1.197335,0.01268 -0.07547,1.030382 1.494793,1.356009 1.972803,1.327242 6.195269,-0.578329 4.094569,-1.847897 5.843307,-2.411234 5.836816,-1.895444 -0.0025,0.194774 -0.189559,0.45321 -0.41369,0.58859 -0.657319,0.397039 -0.462741,0.885506 0.423307,1.130417 0.754395,0.20852 0.790017,0.499442 0.644578,3.414632 -0.158762,3.182374 -0.139382,3.176098 -1.350937,3.04574 -1.211587,-0.130258 -1.209799,-0.123735 0.3897,1.317509 0.879713,0.792733 1.721347,1.449277 1.888008,1.461376 1.743277,0.109747 -4.378447,6.766083 -8.903651,9.669964 -1.196175,0.767607 -2.519241,1.608373 -2.93001,1.869524 -0.997582,0.634396 -0.72309,0.63275 1.594411,-0.04244 4.965437,-1.446525 10.590685,-6.35572 15.135888,-13.18556 2.370893,-3.562675 2.377325,-3.553213 3.963931,-2.075279 1.729828,1.611378 2.671414,1.860717 3.083673,0.820123 0.346597,-0.874847 -1.568961,-2.613702 -2.904625,-2.630513 -1.066566,-0.01342 -1.195027,-0.441614 -0.542005,-1.63195 0.329116,-0.599916 0.224196,-0.870008 -0.482657,-1.381184 -0.988571,-0.714907 -3.551035,-0.933313 -3.559071,-0.294814 -0.0028,0.223573 0.178723,0.408532 0.401105,0.411331 0.662588,0.0083 0.447592,1.506042 -0.444759,3.057145 -1.389628,2.415412 -2.145578,3.44202 -2.543456,3.437013 -0.435396,-0.0055 -0.317038,-3.952943 0.171562,-6.185831 0.359025,-1.640622 0.0085,-2.157103 -1.962087,-3.024933 -0.999391,-0.440102 -0.928253,-0.506192 1.199204,-0.922481 2.081661,-0.407314 9.199911,-0.536572 11.910027,-0.225131 1.759035,0.202154 1.873227,-1.028167 0.180621,-1.93538 -1.380081,-0.739687 -6.190492,-0.693612 -9.814476,0.09524 -2.147223,0.467395 -2.254573,0.349184 -2.216393,-2.684355 0.03307,-2.627682 0.01373,-2.640347 1.024697,-1.95601 1.918201,1.298484 5.977468,0.187171 4.578656,-1.254977 -0.555545,-0.572767 -0.932844,-0.625289 -2.497049,-0.250195 -3.034598,0.727697 -3.194138,0.681406 -2.860614,-1.161093 0.272861,-1.507335 0.221179,-1.660858 -1.03174,-2.450678 -0.864332,-0.544857 -1.675024,-0.851721 -2.270058,-0.90364 z m -7.515067,18.531891 c -0.295052,-0.04069 -0.473705,0.084 -0.473826,0.400318 -1.03e-4,0.802813 1.322977,4.057871 2.000985,4.900571 0.678905,0.84381 1.55083,0.619216 1.567489,-0.386554 0.0083,-0.503035 0.475583,-1.873243 1.038462,-3.049673 1.028546,-2.149746 0.834395,-2.28833 -0.92838,-0.730491 -0.856372,0.756822 -0.990946,0.754659 -1.408498,0.169787 -0.530078,-0.742473 -1.304477,-1.236142 -1.796232,-1.303958 z m 9.510937,14.08956 c -0.298589,0.05369 -0.472347,0.282853 -0.477758,0.712794 -0.01006,0.799036 -1.373299,2.328951 -3.581704,3.98649 -1.282425,0.962537 -1.367367,0.962218 -2.691613,0.309901 -2.600733,-1.281132 -3.733587,-0.869206 -2.197945,0.816153 0.705836,0.774745 1.035878,2.146507 1.696161,6.771883 0.454361,3.18277 0.884339,6.140715 0.948579,6.574958 0.09247,0.625114 -0.229965,0.863525 -1.514432,1.137281 -0.892093,0.190088 -3.104719,0.765438 -4.922773,1.281899 -1.818062,0.516361 -3.776183,0.9213 -4.355597,0.914008 -1.355783,-0.01706 -1.338049,0.434045 0.04558,1.34443 1.382621,0.909672 2.170045,0.813374 9.015018,-1.136637 7.9955,-2.277858 13.093308,-2.931354 20.158801,-2.559006 6.194372,0.326482 7.104074,0.08021 5.614545,-1.616969 -1.487341,-1.694652 -5.056245,-2.139552 -10.172929,-1.221872 -3.614423,0.648164 -3.838982,0.564831 -2.861401,-1.098598 0.979974,-1.667599 0.90993,-2.579103 -0.268034,-3.534903 -0.550432,-0.446763 -1.019818,-0.914857 -1.018191,-1.044147 0.0066,-0.527958 4.664297,-1.475317 6.04729,-1.236493 2.896634,0.500294 3.373696,-1.349099 0.558345,-2.149393 -1.372378,-0.390202 -2.230073,-0.232334 -7.485856,1.312145 -7.847476,2.306222 -7.623709,2.332541 -7.585283,-0.720518 0.02478,-1.969244 0.182058,-2.516858 0.752908,-2.709489 7.486668,-2.527281 8.169883,-3.053374 6.406565,-4.951016 -0.802288,-0.863352 -1.612635,-1.272378 -2.11028,-1.182901 z m -4.435076,12.195151 c 0.10044,-0.02161 0.223903,0.02182 0.405038,0.09886 1.072226,0.45603 1.355938,0.4544 3.311451,0.104182 2.811126,-0.503262 3.589316,1.092458 2.316606,4.654523 -0.423013,1.18397 -0.744311,1.439197 -2.115214,1.692264 -0.891772,0.164591 -2.018307,0.392281 -2.506488,0.499746 -1.171105,0.257682 -1.218746,0.121522 -1.514003,-3.863109 -0.180798,-2.439894 -0.19871,-3.121637 0.10261,-3.186461 z m 10.699737,11.510566 c -0.625772,0.129735 2.339133,4.865524 3.860106,6.174069 2.021501,1.739278 3.314089,-0.818158 1.570457,-3.105482 -0.927955,-1.217275 -4.544538,-3.252451 -5.430563,-3.068587 z M 44.017076,78.712918 c -0.385404,0.06705 -0.576564,0.478182 -0.514118,1.118618 0.105269,1.07901 -1.750493,3.28123 -4.442298,5.319516 -1.42905,1.082001 -1.412404,1.07526 0.204968,1.096416 2.703991,0.03523 7.918573,-3.412466 7.941627,-5.244221 0.01067,-0.847733 -2.234982,-2.456521 -3.190179,-2.290329 z"
       id="path4000" />
  </g>
</svg>
