<?xml version="1.0" encoding="UTF-8" standalone="no"?>
<!-- Created with Inkscape (http://www.inkscape.org/) -->

<svg
   xmlns:dc="http://purl.org/dc/elements/1.1/"
   xmlns:cc="http://creativecommons.org/ns#"
   xmlns:rdf="http://www.w3.org/1999/02/22-rdf-syntax-ns#"
   xmlns:svg="http://www.w3.org/2000/svg"
   xmlns="http://www.w3.org/2000/svg"
   xmlns:sodipodi="http://sodipodi.sourceforge.net/DTD/sodipodi-0.dtd"
   xmlns:inkscape="http://www.inkscape.org/namespaces/inkscape"
   width="100"
   height="100"
   id="svg13986"
   version="1.1"
   inkscape:version="0.47 r22583"
   sodipodi:docname="gin.svg"
   style="display:inline">
  <defs
     id="defs13988">
    <inkscape:perspective
       sodipodi:type="inkscape:persp3d"
       inkscape:vp_x="0 : 526.18109 : 1"
       inkscape:vp_y="0 : 1000 : 0"
       inkscape:vp_z="744.09448 : 526.18109 : 1"
       inkscape:persp3d-origin="372.04724 : 350.78739 : 1"
       id="perspective13994" />
    <inkscape:perspective
       id="perspective14004"
       inkscape:persp3d-origin="0.5 : 0.33333333 : 1"
       inkscape:vp_z="1 : 0.5 : 1"
       inkscape:vp_y="0 : 1000 : 0"
       inkscape:vp_x="0 : 0.5 : 1"
       sodipodi:type="inkscape:persp3d" />
    <inkscape:perspective
       id="perspective3830"
       inkscape:persp3d-origin="0.5 : 0.33333333 : 1"
       inkscape:vp_z="1 : 0.5 : 1"
       inkscape:vp_y="0 : 1000 : 0"
       inkscape:vp_x="0 : 0.5 : 1"
       sodipodi:type="inkscape:persp3d" />
    <inkscape:perspective
       id="perspective3830-1"
       inkscape:persp3d-origin="0.5 : 0.33333333 : 1"
       inkscape:vp_z="1 : 0.5 : 1"
       inkscape:vp_y="0 : 1000 : 0"
       inkscape:vp_x="0 : 0.5 : 1"
       sodipodi:type="inkscape:persp3d" />
    <inkscape:perspective
       id="perspective3830-0"
       inkscape:persp3d-origin="0.5 : 0.33333333 : 1"
       inkscape:vp_z="1 : 0.5 : 1"
       inkscape:vp_y="0 : 1000 : 0"
       inkscape:vp_x="0 : 0.5 : 1"
       sodipodi:type="inkscape:persp3d" />
    <inkscape:perspective
       id="perspective3830-2"
       inkscape:persp3d-origin="0.5 : 0.33333333 : 1"
       inkscape:vp_z="1 : 0.5 : 1"
       inkscape:vp_y="0 : 1000 : 0"
       inkscape:vp_x="0 : 0.5 : 1"
       sodipodi:type="inkscape:persp3d" />
    <inkscape:perspective
       id="perspective3830-4"
       inkscape:persp3d-origin="0.5 : 0.33333333 : 1"
       inkscape:vp_z="1 : 0.5 : 1"
       inkscape:vp_y="0 : 1000 : 0"
       inkscape:vp_x="0 : 0.5 : 1"
       sodipodi:type="inkscape:persp3d" />
    <inkscape:perspective
       id="perspective3830-44"
       inkscape:persp3d-origin="0.5 : 0.33333333 : 1"
       inkscape:vp_z="1 : 0.5 : 1"
       inkscape:vp_y="0 : 1000 : 0"
       inkscape:vp_x="0 : 0.5 : 1"
       sodipodi:type="inkscape:persp3d" />
    <inkscape:perspective
       id="perspective3830-11"
       inkscape:persp3d-origin="0.5 : 0.33333333 : 1"
       inkscape:vp_z="1 : 0.5 : 1"
       inkscape:vp_y="0 : 1000 : 0"
       inkscape:vp_x="0 : 0.5 : 1"
       sodipodi:type="inkscape:persp3d" />
    <inkscape:perspective
       id="perspective3830-19"
       inkscape:persp3d-origin="0.5 : 0.33333333 : 1"
       inkscape:vp_z="1 : 0.5 : 1"
       inkscape:vp_y="0 : 1000 : 0"
       inkscape:vp_x="0 : 0.5 : 1"
       sodipodi:type="inkscape:persp3d" />
    <inkscape:perspective
       id="perspective3830-5"
       inkscape:persp3d-origin="0.5 : 0.33333333 : 1"
       inkscape:vp_z="1 : 0.5 : 1"
       inkscape:vp_y="0 : 1000 : 0"
       inkscape:vp_x="0 : 0.5 : 1"
       sodipodi:type="inkscape:persp3d" />
    <inkscape:perspective
       id="perspective3830-53"
       inkscape:persp3d-origin="0.5 : 0.33333333 : 1"
       inkscape:vp_z="1 : 0.5 : 1"
       inkscape:vp_y="0 : 1000 : 0"
       inkscape:vp_x="0 : 0.5 : 1"
       sodipodi:type="inkscape:persp3d" />
    <inkscape:perspective
       id="perspective3830-04"
       inkscape:persp3d-origin="0.5 : 0.33333333 : 1"
       inkscape:vp_z="1 : 0.5 : 1"
       inkscape:vp_y="0 : 1000 : 0"
       inkscape:vp_x="0 : 0.5 : 1"
       sodipodi:type="inkscape:persp3d" />
    <inkscape:perspective
       id="perspective3830-6"
       inkscape:persp3d-origin="0.5 : 0.33333333 : 1"
       inkscape:vp_z="1 : 0.5 : 1"
       inkscape:vp_y="0 : 1000 : 0"
       inkscape:vp_x="0 : 0.5 : 1"
       sodipodi:type="inkscape:persp3d" />
    <inkscape:perspective
       id="perspective3830-55"
       inkscape:persp3d-origin="0.5 : 0.33333333 : 1"
       inkscape:vp_z="1 : 0.5 : 1"
       inkscape:vp_y="0 : 1000 : 0"
       inkscape:vp_x="0 : 0.5 : 1"
       sodipodi:type="inkscape:persp3d" />
    <inkscape:perspective
       id="perspective3830-40"
       inkscape:persp3d-origin="0.5 : 0.33333333 : 1"
       inkscape:vp_z="1 : 0.5 : 1"
       inkscape:vp_y="0 : 1000 : 0"
       inkscape:vp_x="0 : 0.5 : 1"
       sodipodi:type="inkscape:persp3d" />
    <inkscape:perspective
       id="perspective5074"
       inkscape:persp3d-origin="0.5 : 0.33333333 : 1"
       inkscape:vp_z="1 : 0.5 : 1"
       inkscape:vp_y="0 : 1000 : 0"
       inkscape:vp_x="0 : 0.5 : 1"
       sodipodi:type="inkscape:persp3d" />
    <inkscape:perspective
       id="perspective5809"
       inkscape:persp3d-origin="0.5 : 0.33333333 : 1"
       inkscape:vp_z="1 : 0.5 : 1"
       inkscape:vp_y="0 : 1000 : 0"
       inkscape:vp_x="0 : 0.5 : 1"
       sodipodi:type="inkscape:persp3d" />
  </defs>
  <sodipodi:namedview
     id="base"
     pagecolor="#ffffff"
     bordercolor="#666666"
     borderopacity="1.0"
     inkscape:pageopacity="0.0"
     inkscape:pageshadow="2"
     inkscape:zoom="4"
     inkscape:cx="102.50512"
     inkscape:cy="16.299141"
     inkscape:document-units="px"
     inkscape:current-layer="layer7"
     showgrid="false"
     showguides="true"
     inkscape:guide-bbox="true"
     inkscape:snap-global="false"
     inkscape:window-width="1920"
     inkscape:window-height="1122"
     inkscape:window-x="0"
     inkscape:window-y="24"
     inkscape:window-maximized="1">
    <sodipodi:guide
       orientation="0,1"
       position="105.48232,6.0037368"
       id="guide2865" />
    <sodipodi:guide
       orientation="1,0"
       position="50,22.169811"
       id="guide2957" />
  </sodipodi:namedview>
  <metadata
     id="metadata13991">
    <rdf:RDF>
      <cc:Work
         rdf:about="">
        <dc:format>image/svg+xml</dc:format>
        <dc:type
           rdf:resource="http://purl.org/dc/dcmitype/StillImage" />
        <dc:title />
      </cc:Work>
    </rdf:RDF>
  </metadata>
  <g
     inkscape:groupmode="layer"
     id="layer7"
     inkscape:label="pieces_0.5_opt_single"
     style="display:inline">
    <path
       style="fill:#e6c679;fill-opacity:1;stroke:#000000;stroke-width:1px;stroke-linecap:butt;stroke-linejoin:miter;stroke-opacity:1"
       d="M 13.053118,93.483654 86.949157,93.510227 74.277393,16.571149 50.002439,8.3800418 25.393144,16.881311 13.053118,93.483654 z"
       id="path5833"
       sodipodi:nodetypes="cccccc" />
    <path
       style="fill:#000000;display:inline"
       d="m 41.70046,17.202424 c -0.189338,0.02103 -0.345469,0.07574 -0.470278,0.151588 -0.505636,0.307255 -0.491795,0.471421 0.113514,1.157434 0.64446,0.730385 0.659718,0.916926 0.102965,2.219882 -0.680035,1.591487 -6.128622,7.426028 -8.591731,9.1964 -1.442122,1.036533 -1.517525,1.14524 -0.636449,1.149988 2.384216,0.01427 7.004931,-3.757367 11.027559,-9.015957 1.565324,-2.04628 1.971086,-2.182458 3.041029,-0.969855 1.238901,1.40409 2.933206,2.151238 3.609308,1.598414 0.941379,-0.769732 0.0053,-1.87814 -2.223827,-2.64721 -1.110411,-0.383083 -2.022901,-0.850896 -2.020911,-1.051366 0.0085,-0.854816 -2.625822,-1.936552 -3.951179,-1.789318 z m 17.832632,1.208361 c -0.774991,-0.0048 -1.74311,0.283398 -3.134154,0.906427 -1.22107,0.546894 -2.411581,1.007357 -2.63511,1.005137 -0.919744,-0.0091 -0.840358,0.844678 0.112894,1.219931 0.779541,0.306875 1.491917,0.217174 2.91014,-0.377375 2.535699,-1.063037 2.604413,-1.061064 2.583693,1.025703 -0.01681,1.692776 -0.0895,1.842952 -1.049504,1.83342 -0.570612,-0.0057 -1.372423,0.171713 -1.785196,0.388545 -0.605789,0.318231 -1.037938,0.115531 -2.208092,-1.084477 -1.662494,-1.70493 -1.981806,-1.689189 -1.470539,0.172909 0.228594,0.83267 0.200344,2.65462 -0.0796,4.87445 -1.025057,8.126743 -0.655868,18.230876 0.711358,19.63303 1.235501,1.267029 2.241163,1.004001 2.5692,-0.662024 0.156731,-0.796043 1.104181,-2.980954 2.1108,-4.854282 2.369529,-4.409742 2.322107,-4.525668 -0.611007,-1.412386 -3.113455,3.304681 -3.323954,3.111201 -3.343808,-3.158355 -0.01784,-5.615914 0.11063,-5.8442 3.192795,-6.812386 2.797211,-0.878661 3.066017,-1.208209 3.572962,-4.183482 0.238923,-1.402197 0.679153,-3.282489 1.010588,-4.208924 0.787936,-2.202475 0.795902,-2.177815 -0.435529,-3.348239 -0.668881,-0.635737 -1.246851,-0.95284 -2.021841,-0.957621 z m -0.851642,7.085644 c 0.505211,-0.0027 0.445253,0.448087 0.29635,1.628023 -0.160364,1.27073 -0.421482,1.558252 -1.865688,2.200334 -2.515959,1.118546 -2.813094,1.012801 -2.461182,-0.774474 0.393902,-2.000557 0.362951,-1.946172 2.432504,-2.632228 0.798889,-0.264833 1.294894,-0.420024 1.598016,-0.421655 z m -11.854026,0.976105 c -0.691226,0.0133 -1.78225,0.325526 -3.384762,0.966442 -1.611629,0.644571 -3.502165,1.306563 -4.170938,1.458661 -1.377198,0.313212 -1.008652,0.782794 1.789141,2.36163 0.702081,0.3962 1.162995,0.907711 1.020029,1.135183 -0.492941,0.784305 -7.465219,3.984578 -8.664909,3.976666 -0.865567,-0.0056 -0.321051,0.983521 0.76756,1.382689 0.776162,0.2846 1.752415,0.05147 4.385953,-1.081507 1.859716,-0.800065 3.441298,-1.382651 3.513169,-1.308934 0.07187,0.07368 0.248774,1.681863 0.37055,3.597606 0.221408,3.48318 0.194254,3.502552 -3.80132,5.150013 -2.197564,0.906106 -4.314836,1.645151 -4.704023,1.640877 -1.045396,-0.01158 -0.852518,1.028996 0.355125,2.003624 1.358014,1.096037 1.711382,1.062794 3.408254,-0.18492 2.511488,-1.846716 6.23179,-3.849827 8.200526,-4.418799 2.533815,-0.732279 2.790511,-1.992562 0.328618,-1.621817 -1.778987,0.267911 -2.253382,-0.35848 -0.709406,-0.94459 1.151035,-0.436953 4.789945,-3.99955 4.796926,-4.702605 0.0064,-0.642769 -1.393578,-1.594425 -2.918119,-1.96657 -1.028637,-0.251085 -1.103958,-0.207101 -0.723989,0.524088 0.631889,1.215964 0.505471,1.86375 -0.725939,3.867983 -1.340386,2.18162 -1.580715,2.269978 -1.5052,0.516331 0.221876,-5.155381 0.197939,-5.039013 1.273607,-5.518877 0.569028,-0.253853 1.378716,-0.455084 1.785816,-0.451042 1.426529,0.01416 1.821545,-1.065127 0.674523,-1.837143 -0.881672,-0.593413 -1.222948,-0.637774 -2.279276,-0.21014 -0.998879,0.404852 -1.333227,0.403053 -1.718665,-0.01706 -0.296912,-0.323624 -0.308223,-0.560238 -0.05598,-0.656838 1.834679,-0.702889 3.645967,-2.093764 3.652745,-2.776371 0.0061,-0.610195 -0.268789,-0.897878 -0.960015,-0.884575 z m 15.275533,0.651696 c -0.242994,0.02034 -0.226397,0.354063 -0.105176,1.155262 0.221116,1.461998 -0.701383,2.759593 -4.564003,6.423753 -2.041206,1.93634 -2.037781,1.938964 -0.672972,1.680901 1.481645,-0.280153 3.277003,0.444038 3.268367,1.313765 -0.0028,0.282536 0.343732,0.647125 0.773455,0.788968 0.429733,0.141834 1.365376,0.935813 2.076272,1.770702 0.710896,0.834889 1.840063,1.921524 2.507235,2.431263 1.421437,1.086026 2.361007,1.178349 3.090805,0.311952 0.801831,-0.951905 -2.83817,-4.262478 -6.318217,-5.750513 -3.703062,-1.583394 -3.699762,-1.54809 -1.124236,-3.230072 4.555723,-2.975145 5.217343,-5.311571 1.847249,-6.638236 -0.38865,-0.152993 -0.632931,-0.269947 -0.778729,-0.257745 z M 41.218481,37.417385 c -0.10748,0.02266 -0.289631,0.259527 -0.599926,0.619074 -0.675211,0.782435 -1.108765,0.895436 -2.257025,0.696376 -0.773936,-0.134151 -1.405064,-0.126397 -1.406181,-0.01396 -0.0059,0.592181 1.003704,2.082448 1.940109,2.894405 1.728465,1.498765 1.843377,1.366169 2.273159,-2.321296 0.162708,-1.395934 0.228998,-1.912373 0.04981,-1.874597 z m 15.091412,12.900471 c -0.348648,0.07255 -0.392948,0.440971 -0.229909,1.122773 0.24499,1.024483 -0.059,1.410284 -2.912711,3.783768 -1.624606,1.351236 -1.618966,1.342192 -0.04237,1.124634 1.922619,-0.265324 6.889748,-3.004293 7.070307,-3.898744 0.08845,-0.437943 -0.498004,-0.905539 -1.797828,-1.486673 -1.092465,-0.488371 -1.738794,-0.718311 -2.087441,-0.645757 z m -15.030288,2.975919 c -1.363023,-0.03055 -2.01871,0.890413 -0.922959,1.678419 0.804922,0.57892 0.87441,0.970179 0.833691,4.164732 -0.06874,5.432686 -0.305267,6.020266 -4.545874,10.892903 -4.139316,4.756138 -4.349181,4.938913 -4.56981,3.861069 -0.120072,-0.586621 -0.320472,-0.450604 -1.038025,0.677228 -1.217551,1.913705 -1.204359,3.168598 0.05895,3.500757 0.545493,0.143423 1.204975,0.511089 1.460611,0.827043 0.810818,1.002399 1.519504,0.624517 2.356045,-1.226669 1.01042,-2.235978 5.001049,-8.294505 5.457576,-8.289973 0.465567,0.0046 0.462274,12.491156 -0.0038,12.969352 -0.07891,0.08102 -0.695965,-0.05036 -1.37214,-0.294888 -1.642204,-0.593934 -1.571484,-0.213913 0.448249,2.067053 3.545945,4.004603 4.175961,2.630291 3.705491,-8.088609 -0.352116,-8.022491 -0.148674,-11.313234 0.785288,-12.992844 0.6178,-1.111921 0.608535,-1.45688 0.01086,-1.093696 -0.58379,0.354722 -0.05926,-4.278699 0.651431,-5.806318 0.552887,-1.188469 -0.558695,-2.325962 -2.691313,-2.776858 -0.220268,-0.04658 -0.429632,-0.06434 -0.624349,-0.0687 z m 20.441679,2.828095 c -0.621036,-0.08101 -0.907395,0.299155 -0.574572,1.213105 0.346441,0.951386 0.300833,1.403206 -0.240769,2.216468 -0.88255,1.325203 -7.112282,5.916428 -9.916798,7.308152 -1.212322,0.601593 -2.315799,1.258569 -2.452272,1.475725 -0.501943,0.798556 8.413115,-2.894763 10.826328,-4.486482 0.559712,-0.369161 2.174685,-1.23972 3.581871,-1.933282 3.314804,-1.63377 3.492639,-2.15608 1.416197,-4.142394 -1.053674,-1.007961 -2.018949,-1.570284 -2.639985,-1.651292 z m -6.923595,1.712593 c -0.227595,-0.0026 -0.430494,0.03151 -0.62621,0.118788 -0.75719,0.337699 -0.697737,0.499898 0.82261,2.133273 1.696102,1.822229 2.614976,2.154719 3.020242,1.123792 0.521353,-1.326201 -1.623497,-3.357379 -3.216642,-3.375853 z m -22.589311,2.588349 c -0.313969,-0.02684 -0.315137,0.263984 -0.320552,0.809357 -0.005,0.499976 0.824614,1.718922 1.940419,2.863157 1.069433,1.096772 2.148306,1.990178 2.386584,1.992543 0.734654,0.0073 1.750679,-1.26523 1.518853,-1.891263 -0.120759,-0.326015 -0.207027,-1.181814 -0.200124,-1.877079 0.01137,-1.145044 -0.03704,-1.194877 -0.525949,-0.536499 -0.513662,0.691635 -0.6499,0.690782 -2.621768,-0.338547 -1.250481,-0.652747 -1.863495,-0.994825 -2.177463,-1.021669 z m 16.026736,0.534148 c -1.465626,-0.09427 -1.147433,0.558672 1.037006,2.572923 2.040302,1.88135 3.198026,2.103155 3.212386,0.656927 0.0136,-1.369533 -1.659789,-2.861771 -3.50036,-3.128658 -0.281958,-0.04087 -0.539655,-0.08772 -0.749032,-0.101192 z m 9.92265,4.692499 c -0.988111,0.04757 -1.51324,0.598755 -0.763615,1.367486 0.588418,0.603371 -0.392057,1.018007 -7.689071,3.267569 -2.956084,0.911296 -5.392963,1.782444 -5.394592,1.946536 -0.0075,0.759863 3.169319,1.397686 4.428904,0.887766 1.217684,-0.492934 1.314935,-0.458267 3.234326,1.594691 2.020977,2.161772 2.775006,2.514076 3.546811,1.597793 1.077665,-1.279263 -0.895334,-3.540314 -3.121034,-3.562413 -0.475477,-0.0047 -0.802943,-0.216232 -0.714061,-0.475863 0.228235,-0.666066 6.351558,-2.519462 6.802014,-2.057567 0.199677,0.204793 0.454159,3.05526 0.562296,6.318394 0.222107,6.702236 0.258201,6.61844 -2.747249,6.00427 -2.562177,-0.523664 -2.685891,-0.507742 -1.566457,0.390717 0.551652,0.442699 1.165466,0.824112 1.366866,0.826111 0.20135,0.007 0.901071,0.453519 1.584053,0.984526 0.682971,0.531007 1.530804,1.073852 1.863117,1.206058 0.911843,0.362871 0.998457,0.35583 1.814893,-0.231993 0.835443,-0.601435 0.824316,-0.436637 0.47799,-10.370765 -0.164413,-4.716265 -0.106492,-5.904548 0.342669,-6.184403 0.996383,-0.620838 4.711346,-0.34984 6.80782,0.505117 3.030321,1.235747 3.737582,1.154465 3.598538,-0.464295 -0.166887,-1.943053 -2.856381,-2.830249 -7.631362,-2.544644 -2.76849,0.165522 -3.718651,0.06218 -4.745422,-0.484638 -0.716258,-0.381456 -1.464562,-0.548998 -2.057434,-0.520453 z"
       id="path4006" />
  </g>
</svg>
