<?xml version="1.0" encoding="UTF-8" standalone="no"?>
<!-- Created with Inkscape (http://www.inkscape.org/) -->

<svg
   xmlns:dc="http://purl.org/dc/elements/1.1/"
   xmlns:cc="http://creativecommons.org/ns#"
   xmlns:rdf="http://www.w3.org/1999/02/22-rdf-syntax-ns#"
   xmlns:svg="http://www.w3.org/2000/svg"
   xmlns="http://www.w3.org/2000/svg"
   xmlns:sodipodi="http://sodipodi.sourceforge.net/DTD/sodipodi-0.dtd"
   xmlns:inkscape="http://www.inkscape.org/namespaces/inkscape"
   width="100"
   height="100"
   id="svg13986"
   version="1.1"
   inkscape:version="0.47 r22583"
   sodipodi:docname="gyokushou.svg"
   style="display:inline">
  <defs
     id="defs13988">
    <inkscape:perspective
       sodipodi:type="inkscape:persp3d"
       inkscape:vp_x="0 : 526.18109 : 1"
       inkscape:vp_y="0 : 1000 : 0"
       inkscape:vp_z="744.09448 : 526.18109 : 1"
       inkscape:persp3d-origin="372.04724 : 350.78739 : 1"
       id="perspective13994" />
    <inkscape:perspective
       id="perspective14004"
       inkscape:persp3d-origin="0.5 : 0.33333333 : 1"
       inkscape:vp_z="1 : 0.5 : 1"
       inkscape:vp_y="0 : 1000 : 0"
       inkscape:vp_x="0 : 0.5 : 1"
       sodipodi:type="inkscape:persp3d" />
    <inkscape:perspective
       id="perspective3830"
       inkscape:persp3d-origin="0.5 : 0.33333333 : 1"
       inkscape:vp_z="1 : 0.5 : 1"
       inkscape:vp_y="0 : 1000 : 0"
       inkscape:vp_x="0 : 0.5 : 1"
       sodipodi:type="inkscape:persp3d" />
    <inkscape:perspective
       id="perspective3830-1"
       inkscape:persp3d-origin="0.5 : 0.33333333 : 1"
       inkscape:vp_z="1 : 0.5 : 1"
       inkscape:vp_y="0 : 1000 : 0"
       inkscape:vp_x="0 : 0.5 : 1"
       sodipodi:type="inkscape:persp3d" />
    <inkscape:perspective
       id="perspective3830-0"
       inkscape:persp3d-origin="0.5 : 0.33333333 : 1"
       inkscape:vp_z="1 : 0.5 : 1"
       inkscape:vp_y="0 : 1000 : 0"
       inkscape:vp_x="0 : 0.5 : 1"
       sodipodi:type="inkscape:persp3d" />
    <inkscape:perspective
       id="perspective3830-2"
       inkscape:persp3d-origin="0.5 : 0.33333333 : 1"
       inkscape:vp_z="1 : 0.5 : 1"
       inkscape:vp_y="0 : 1000 : 0"
       inkscape:vp_x="0 : 0.5 : 1"
       sodipodi:type="inkscape:persp3d" />
    <inkscape:perspective
       id="perspective3830-4"
       inkscape:persp3d-origin="0.5 : 0.33333333 : 1"
       inkscape:vp_z="1 : 0.5 : 1"
       inkscape:vp_y="0 : 1000 : 0"
       inkscape:vp_x="0 : 0.5 : 1"
       sodipodi:type="inkscape:persp3d" />
    <inkscape:perspective
       id="perspective3830-44"
       inkscape:persp3d-origin="0.5 : 0.33333333 : 1"
       inkscape:vp_z="1 : 0.5 : 1"
       inkscape:vp_y="0 : 1000 : 0"
       inkscape:vp_x="0 : 0.5 : 1"
       sodipodi:type="inkscape:persp3d" />
    <inkscape:perspective
       id="perspective3830-11"
       inkscape:persp3d-origin="0.5 : 0.33333333 : 1"
       inkscape:vp_z="1 : 0.5 : 1"
       inkscape:vp_y="0 : 1000 : 0"
       inkscape:vp_x="0 : 0.5 : 1"
       sodipodi:type="inkscape:persp3d" />
    <inkscape:perspective
       id="perspective3830-19"
       inkscape:persp3d-origin="0.5 : 0.33333333 : 1"
       inkscape:vp_z="1 : 0.5 : 1"
       inkscape:vp_y="0 : 1000 : 0"
       inkscape:vp_x="0 : 0.5 : 1"
       sodipodi:type="inkscape:persp3d" />
    <inkscape:perspective
       id="perspective3830-5"
       inkscape:persp3d-origin="0.5 : 0.33333333 : 1"
       inkscape:vp_z="1 : 0.5 : 1"
       inkscape:vp_y="0 : 1000 : 0"
       inkscape:vp_x="0 : 0.5 : 1"
       sodipodi:type="inkscape:persp3d" />
    <inkscape:perspective
       id="perspective3830-53"
       inkscape:persp3d-origin="0.5 : 0.33333333 : 1"
       inkscape:vp_z="1 : 0.5 : 1"
       inkscape:vp_y="0 : 1000 : 0"
       inkscape:vp_x="0 : 0.5 : 1"
       sodipodi:type="inkscape:persp3d" />
    <inkscape:perspective
       id="perspective3830-04"
       inkscape:persp3d-origin="0.5 : 0.33333333 : 1"
       inkscape:vp_z="1 : 0.5 : 1"
       inkscape:vp_y="0 : 1000 : 0"
       inkscape:vp_x="0 : 0.5 : 1"
       sodipodi:type="inkscape:persp3d" />
    <inkscape:perspective
       id="perspective3830-6"
       inkscape:persp3d-origin="0.5 : 0.33333333 : 1"
       inkscape:vp_z="1 : 0.5 : 1"
       inkscape:vp_y="0 : 1000 : 0"
       inkscape:vp_x="0 : 0.5 : 1"
       sodipodi:type="inkscape:persp3d" />
    <inkscape:perspective
       id="perspective3830-55"
       inkscape:persp3d-origin="0.5 : 0.33333333 : 1"
       inkscape:vp_z="1 : 0.5 : 1"
       inkscape:vp_y="0 : 1000 : 0"
       inkscape:vp_x="0 : 0.5 : 1"
       sodipodi:type="inkscape:persp3d" />
    <inkscape:perspective
       id="perspective3830-40"
       inkscape:persp3d-origin="0.5 : 0.33333333 : 1"
       inkscape:vp_z="1 : 0.5 : 1"
       inkscape:vp_y="0 : 1000 : 0"
       inkscape:vp_x="0 : 0.5 : 1"
       sodipodi:type="inkscape:persp3d" />
    <inkscape:perspective
       id="perspective5074"
       inkscape:persp3d-origin="0.5 : 0.33333333 : 1"
       inkscape:vp_z="1 : 0.5 : 1"
       inkscape:vp_y="0 : 1000 : 0"
       inkscape:vp_x="0 : 0.5 : 1"
       sodipodi:type="inkscape:persp3d" />
    <inkscape:perspective
       id="perspective5809"
       inkscape:persp3d-origin="0.5 : 0.33333333 : 1"
       inkscape:vp_z="1 : 0.5 : 1"
       inkscape:vp_y="0 : 1000 : 0"
       inkscape:vp_x="0 : 0.5 : 1"
       sodipodi:type="inkscape:persp3d" />
  </defs>
  <sodipodi:namedview
     id="base"
     pagecolor="#ffffff"
     bordercolor="#666666"
     borderopacity="1.0"
     inkscape:pageopacity="0.0"
     inkscape:pageshadow="2"
     inkscape:zoom="8.48"
     inkscape:cx="35.141509"
     inkscape:cy="50"
     inkscape:document-units="px"
     inkscape:current-layer="layer7"
     showgrid="false"
     showguides="true"
     inkscape:guide-bbox="true"
     inkscape:snap-global="false"
     inkscape:window-width="1920"
     inkscape:window-height="1122"
     inkscape:window-x="0"
     inkscape:window-y="24"
     inkscape:window-maximized="1">
    <sodipodi:guide
       orientation="0,1"
       position="105.48232,6.0037368"
       id="guide2865" />
    <sodipodi:guide
       orientation="1,0"
       position="50,22.169811"
       id="guide2957" />
  </sodipodi:namedview>
  <metadata
     id="metadata13991">
    <rdf:RDF>
      <cc:Work
         rdf:about="">
        <dc:format>image/svg+xml</dc:format>
        <dc:type
           rdf:resource="http://purl.org/dc/dcmitype/StillImage" />
        <dc:title />
      </cc:Work>
    </rdf:RDF>
  </metadata>
  <g
     inkscape:groupmode="layer"
     id="layer7"
     inkscape:label="pieces_0.5_opt_single"
     style="display:inline">
    <path
       id="path5819"
       d="M 9.9980866,93.496903 90.001602,93.498303 77.007117,12.997724 50.002969,5.0112727 23.246574,13.867825 9.9980866,93.496903 z"
       style="fill:#e6c679;fill-opacity:1;stroke:#000000;stroke-width:1px;stroke-linecap:butt;stroke-linejoin:miter;stroke-opacity:1"
       sodipodi:nodetypes="cccccc" />
    <path
       style="fill:#000000;display:inline"
       d="m 55.495151,14.170728 c -1.070627,0.01495 -2.353469,0.254007 -3.913122,0.713278 -3.808111,1.121483 -10.259235,2.372496 -12.116403,2.355053 -2.06153,-0.01936 -2.054401,0.502576 0.01329,1.906458 1.640353,1.113656 1.647909,1.107677 4.214748,0.445856 3.146237,-0.811084 3.490479,-0.803252 3.187947,-0.03256 -0.138174,0.352117 0.131468,0.924925 0.6436,1.349854 0.698248,0.579484 0.912544,1.297479 1.061709,3.416373 0.189098,2.686294 0.195621,2.676356 -2.187854,3.354599 -1.310911,0.373005 -3.079522,0.76186 -3.91459,0.869521 -1.874622,0.241703 -1.884042,0.564179 -0.139376,1.530008 1.193755,0.660942 1.644854,0.70783 3.684696,0.315872 1.2776,-0.245311 2.462341,-0.349488 2.658481,-0.225041 0.555315,0.352332 0.384626,6.586304 -0.190154,6.93602 -1.810052,1.101148 -10.851978,3.73059 -12.378134,3.60265 -1.074801,-0.0901 -1.719223,0.04235 -1.721902,0.327592 -0.0044,0.467579 2.516139,2.373438 3.599598,2.721429 0.765753,0.246003 1.105464,0.126139 5.267085,-1.794359 5.940422,-2.741526 7.588917,-3.183613 11.780888,-3.233242 2.113196,-0.02485 4.066443,-0.05581 4.344732,-0.0842 0.967462,-0.09782 0.512066,-1.648463 -0.696411,-2.381646 -0.66348,-0.402449 -1.209179,-1.024702 -1.205782,-1.386386 0.01094,-1.164649 -0.418751,-1.149634 -1.531476,0.01682 -0.66433,0.696391 -1.704498,1.225794 -2.66934,1.381239 -1.58014,0.25447 -1.575585,0.259313 -1.288962,-2.512217 0.157644,-1.524287 0.280704,-3.267708 0.286385,-3.872481 0.01092,-0.949639 0.232094,-1.13437 1.544097,-1.360557 4.532465,-0.781064 5.356605,-3.224882 1.060849,-3.146425 -2.511361,0.04581 -2.520309,0.04653 -2.269703,-1.240123 0.137824,-0.707737 0.248028,-1.385931 0.264078,-1.497586 0.143427,-0.997696 -0.816658,-2.060061 -2.56722,-2.836737 -1.121725,-0.497657 -1.945075,-1.000863 -1.833396,-1.111019 0.365847,-0.36098 5.715263,-1.321378 7.293843,-1.306551 2.863504,0.0269 4.027811,-1.290677 2.243014,-2.572796 -0.597545,-0.429182 -1.454641,-0.663682 -2.525268,-0.648747 z m 5.206875,17.924695 c -0.976801,-0.133261 -0.992066,0.413331 0.204065,1.564485 0.523046,0.503335 1.267999,1.698985 1.662771,2.640734 0.394782,0.941749 0.99845,2.024417 1.32109,2.418765 1.206246,1.474294 2.869223,0.628577 2.888962,-1.472931 0.01669,-1.777222 -0.963461,-3.018582 -3.336108,-4.156517 -1.207334,-0.579075 -2.154705,-0.914578 -2.74078,-0.994536 z m -1.96884,9.981948 c -0.372816,0.116003 -0.944632,0.302391 -1.253761,0.394491 -0.458864,0.136697 -0.449148,0.302145 0.08518,0.907091 0.360047,0.407699 0.647554,0.928973 0.645361,1.162362 -0.006,0.639072 -3.259998,3.485285 -5.41967,4.730556 -1.048122,0.604282 -1.917345,1.172294 -1.9182,1.263289 -0.0063,0.666272 4.507144,-0.800103 8.996532,-2.91563 3.889286,-1.832852 4.119533,-2.608623 1.354707,-4.487473 -1.02539,-0.696863 -2.112373,-1.172242 -2.490203,-1.054686 z m -18.91115,3.760046 c -1.301607,0.11173 -1.951199,0.859461 -0.767284,1.836624 1.267569,1.046252 1.409871,1.941028 1.060378,6.885263 -0.259354,3.669227 -0.437748,4.500338 -0.851501,4.148436 -0.304463,-0.258771 -1.132722,-0.329904 -1.998444,-0.175028 -1.468884,0.262816 -1.46427,0.252859 -1.170424,-1.823573 0.340966,-2.409604 -4.06e-4,-3.033788 -2.05873,-3.738252 -1.163342,-0.398144 -1.559203,-0.372211 -2.439447,0.195847 -1.05482,0.680623 -1.076232,0.681822 -0.01468,1.562431 1.261982,1.046999 2.008956,3.290164 1.427887,4.357353 -0.418406,0.768504 -3.621941,1.462046 -4.415448,0.958571 -0.715439,-0.453839 -0.517786,0.828674 0.235901,1.502282 1.740587,1.555517 2.368694,1.63542 5.36948,0.612959 1.573565,-0.536144 3.412694,-1.368507 4.079931,-1.836761 1.21318,-0.851343 1.195355,-0.830709 1.172185,1.636082 -0.02022,2.152405 -0.10269,2.436643 -0.772861,2.430348 -0.422511,-0.004 -2.427974,0.632125 -4.450805,1.395758 -4.202646,1.586399 -4.430924,1.604254 -4.600592,0.706822 -0.126128,-0.667315 -2.354291,1.111287 -2.361551,1.884153 -0.0085,0.905659 2.844741,2.10651 4.420281,1.854097 1.952003,-0.31268 1.973689,-0.247223 0.769318,4.601179 -1.259051,5.068499 -0.906764,6.976291 1.070944,5.760313 1.64968,-1.014351 2.831947,-8.080158 1.655768,-9.922386 -0.351425,-0.550525 -0.645323,-1.166413 -0.643307,-1.381103 0.0046,-0.492479 4.523408,-2.931994 4.837236,-2.610933 0.127649,0.130605 0.270969,3.528801 0.303954,7.565689 0.05998,7.339687 0.05601,7.362402 -0.879091,7.085807 -0.514294,-0.152137 -1.485421,-0.39117 -2.151459,-0.52023 -1.195676,-0.231741 -1.205872,-0.211986 -0.411221,0.52741 0.442661,0.411876 1.50082,1.608318 2.349947,2.67844 1.85787,2.341453 3.124163,2.587706 3.899327,0.755407 0.404975,-0.956938 0.399889,-2.732214 0.07954,-8.468376 -0.638402,-11.432301 -0.163092,-21.107163 1.242395,-25.801969 0.782505,-2.613866 0.611345,-3.178899 -1.211788,-4.074062 -0.991402,-0.486783 -1.99488,-0.655635 -2.775844,-0.588597 z m 25.005197,2.891235 c -0.682206,-0.06211 -0.834338,0.355739 -0.386724,1.246423 0.333099,0.662858 0.580498,1.413665 0.578168,1.661754 -0.0071,0.760666 -4.119044,4.837226 -7.129109,7.058352 -1.567784,1.156826 -3.573971,2.762203 -4.471058,3.551913 -3.376657,2.972516 2.176282,0.44446 9.038934,-4.102784 1.856203,-1.22992 4.152528,-2.701117 5.093389,-3.264806 2.683697,-1.607765 2.317833,-3.761395 -0.948298,-5.509149 -0.746979,-0.399733 -1.365974,-0.604447 -1.775302,-0.641703 z m -9.085581,2.414771 c -0.249934,0.03125 -0.407382,0.118629 -0.40858,0.246175 -0.0012,0.131994 0.835589,1.235902 1.852024,2.455003 2.575281,3.088923 3.031612,2.996206 3.568213,-0.591513 0.235423,-1.573958 0.186265,-1.703226 -0.363243,-1.253467 -0.509904,0.41743 -0.812397,0.373837 -1.623461,-0.171506 -0.707216,-0.475414 -2.27515,-0.778382 -3.024953,-0.684692 z m -2.806075,2.630012 c -0.0992,0.01057 -0.21833,0.216099 -0.411516,0.558659 -0.474523,0.84138 -0.747733,0.915667 -2.225403,0.697879 -2.901631,-0.427672 -3.011897,0.146368 -0.431767,2.714815 3.610681,3.594271 4.29915,3.173819 3.520391,-2.154531 -0.194762,-1.332578 -0.286392,-1.83452 -0.451705,-1.816822 z m 7.623762,6.821905 c -0.546447,0.04187 -1.007025,0.218332 -1.286477,0.550442 -0.414069,0.492032 -0.405109,0.58997 0.08812,0.594603 0.333595,0.0031 0.838922,0.264592 1.088418,0.572748 0.576925,0.71235 0.01014,1.178147 -2.204427,1.791874 -0.891991,0.247233 -3.443334,1.171412 -5.675959,2.071781 -2.232626,0.90047 -4.446542,1.720062 -4.892102,1.797882 -0.445571,0.07782 -1.490229,0.225013 -2.347169,0.352969 -1.509945,0.225528 -1.530994,0.256182 -0.853399,1.02328 1.09166,1.235908 3.275279,1.74034 4.646653,1.043689 1.705463,-0.86642 1.922602,-0.784426 4.638727,1.887401 2.551845,2.510279 3.23871,2.832444 4.106621,1.976158 1.528492,-1.50811 -0.121315,-3.958664 -3.112965,-4.623192 -2.713768,-0.602815 -2.653199,-0.881408 0.614563,-2.213075 5.283406,-2.153171 5.725362,-2.118719 5.995626,0.493835 0.33084,3.198848 0.355833,13.302629 0.02827,13.625866 -0.15466,0.152554 -1.789688,-0.113014 -3.619557,-0.596521 -4.007181,-1.058984 -4.286949,-0.947656 -1.505511,0.579634 1.163988,0.639161 2.777544,1.740616 3.570991,2.439898 0.793397,0.699383 1.791332,1.483941 2.233758,1.739807 2.570682,1.48651 3.701121,-0.258499 3.139695,-4.876976 -0.836746,-6.883363 -0.911693,-14.705361 -0.13595,-15.47071 1.05224,-1.038262 5.805345,-0.901613 8.966593,0.271731 3.760693,1.395883 5.45348,-0.553504 2.306391,-2.665956 -2.150232,-1.443459 -3.081381,-1.56886 -7.178671,-0.973717 -3.589576,0.521509 -3.653383,0.507059 -5.30845,-0.456129 -1.198163,-0.697344 -2.393106,-1.007091 -3.303842,-0.937322 z"
       id="path3990" />
  </g>
</svg>
