<?xml version="1.0" encoding="UTF-8" standalone="no"?>
<!-- Created with Inkscape (http://www.inkscape.org/) -->

<svg
   xmlns:dc="http://purl.org/dc/elements/1.1/"
   xmlns:cc="http://creativecommons.org/ns#"
   xmlns:rdf="http://www.w3.org/1999/02/22-rdf-syntax-ns#"
   xmlns:svg="http://www.w3.org/2000/svg"
   xmlns="http://www.w3.org/2000/svg"
   xmlns:sodipodi="http://sodipodi.sourceforge.net/DTD/sodipodi-0.dtd"
   xmlns:inkscape="http://www.inkscape.org/namespaces/inkscape"
   width="100"
   height="100"
   id="svg13986"
   version="1.1"
   inkscape:version="0.47 r22583"
   sodipodi:docname="hisha.svg"
   style="display:inline">
  <defs
     id="defs13988">
    <inkscape:perspective
       sodipodi:type="inkscape:persp3d"
       inkscape:vp_x="0 : 526.18109 : 1"
       inkscape:vp_y="0 : 1000 : 0"
       inkscape:vp_z="744.09448 : 526.18109 : 1"
       inkscape:persp3d-origin="372.04724 : 350.78739 : 1"
       id="perspective13994" />
    <inkscape:perspective
       id="perspective14004"
       inkscape:persp3d-origin="0.5 : 0.33333333 : 1"
       inkscape:vp_z="1 : 0.5 : 1"
       inkscape:vp_y="0 : 1000 : 0"
       inkscape:vp_x="0 : 0.5 : 1"
       sodipodi:type="inkscape:persp3d" />
    <inkscape:perspective
       id="perspective3830"
       inkscape:persp3d-origin="0.5 : 0.33333333 : 1"
       inkscape:vp_z="1 : 0.5 : 1"
       inkscape:vp_y="0 : 1000 : 0"
       inkscape:vp_x="0 : 0.5 : 1"
       sodipodi:type="inkscape:persp3d" />
    <inkscape:perspective
       id="perspective3830-1"
       inkscape:persp3d-origin="0.5 : 0.33333333 : 1"
       inkscape:vp_z="1 : 0.5 : 1"
       inkscape:vp_y="0 : 1000 : 0"
       inkscape:vp_x="0 : 0.5 : 1"
       sodipodi:type="inkscape:persp3d" />
    <inkscape:perspective
       id="perspective3830-0"
       inkscape:persp3d-origin="0.5 : 0.33333333 : 1"
       inkscape:vp_z="1 : 0.5 : 1"
       inkscape:vp_y="0 : 1000 : 0"
       inkscape:vp_x="0 : 0.5 : 1"
       sodipodi:type="inkscape:persp3d" />
    <inkscape:perspective
       id="perspective3830-2"
       inkscape:persp3d-origin="0.5 : 0.33333333 : 1"
       inkscape:vp_z="1 : 0.5 : 1"
       inkscape:vp_y="0 : 1000 : 0"
       inkscape:vp_x="0 : 0.5 : 1"
       sodipodi:type="inkscape:persp3d" />
    <inkscape:perspective
       id="perspective3830-4"
       inkscape:persp3d-origin="0.5 : 0.33333333 : 1"
       inkscape:vp_z="1 : 0.5 : 1"
       inkscape:vp_y="0 : 1000 : 0"
       inkscape:vp_x="0 : 0.5 : 1"
       sodipodi:type="inkscape:persp3d" />
    <inkscape:perspective
       id="perspective3830-44"
       inkscape:persp3d-origin="0.5 : 0.33333333 : 1"
       inkscape:vp_z="1 : 0.5 : 1"
       inkscape:vp_y="0 : 1000 : 0"
       inkscape:vp_x="0 : 0.5 : 1"
       sodipodi:type="inkscape:persp3d" />
    <inkscape:perspective
       id="perspective3830-11"
       inkscape:persp3d-origin="0.5 : 0.33333333 : 1"
       inkscape:vp_z="1 : 0.5 : 1"
       inkscape:vp_y="0 : 1000 : 0"
       inkscape:vp_x="0 : 0.5 : 1"
       sodipodi:type="inkscape:persp3d" />
    <inkscape:perspective
       id="perspective3830-19"
       inkscape:persp3d-origin="0.5 : 0.33333333 : 1"
       inkscape:vp_z="1 : 0.5 : 1"
       inkscape:vp_y="0 : 1000 : 0"
       inkscape:vp_x="0 : 0.5 : 1"
       sodipodi:type="inkscape:persp3d" />
    <inkscape:perspective
       id="perspective3830-5"
       inkscape:persp3d-origin="0.5 : 0.33333333 : 1"
       inkscape:vp_z="1 : 0.5 : 1"
       inkscape:vp_y="0 : 1000 : 0"
       inkscape:vp_x="0 : 0.5 : 1"
       sodipodi:type="inkscape:persp3d" />
    <inkscape:perspective
       id="perspective3830-53"
       inkscape:persp3d-origin="0.5 : 0.33333333 : 1"
       inkscape:vp_z="1 : 0.5 : 1"
       inkscape:vp_y="0 : 1000 : 0"
       inkscape:vp_x="0 : 0.5 : 1"
       sodipodi:type="inkscape:persp3d" />
    <inkscape:perspective
       id="perspective3830-04"
       inkscape:persp3d-origin="0.5 : 0.33333333 : 1"
       inkscape:vp_z="1 : 0.5 : 1"
       inkscape:vp_y="0 : 1000 : 0"
       inkscape:vp_x="0 : 0.5 : 1"
       sodipodi:type="inkscape:persp3d" />
    <inkscape:perspective
       id="perspective3830-6"
       inkscape:persp3d-origin="0.5 : 0.33333333 : 1"
       inkscape:vp_z="1 : 0.5 : 1"
       inkscape:vp_y="0 : 1000 : 0"
       inkscape:vp_x="0 : 0.5 : 1"
       sodipodi:type="inkscape:persp3d" />
    <inkscape:perspective
       id="perspective3830-55"
       inkscape:persp3d-origin="0.5 : 0.33333333 : 1"
       inkscape:vp_z="1 : 0.5 : 1"
       inkscape:vp_y="0 : 1000 : 0"
       inkscape:vp_x="0 : 0.5 : 1"
       sodipodi:type="inkscape:persp3d" />
    <inkscape:perspective
       id="perspective3830-40"
       inkscape:persp3d-origin="0.5 : 0.33333333 : 1"
       inkscape:vp_z="1 : 0.5 : 1"
       inkscape:vp_y="0 : 1000 : 0"
       inkscape:vp_x="0 : 0.5 : 1"
       sodipodi:type="inkscape:persp3d" />
    <inkscape:perspective
       id="perspective5074"
       inkscape:persp3d-origin="0.5 : 0.33333333 : 1"
       inkscape:vp_z="1 : 0.5 : 1"
       inkscape:vp_y="0 : 1000 : 0"
       inkscape:vp_x="0 : 0.5 : 1"
       sodipodi:type="inkscape:persp3d" />
    <inkscape:perspective
       id="perspective5809"
       inkscape:persp3d-origin="0.5 : 0.33333333 : 1"
       inkscape:vp_z="1 : 0.5 : 1"
       inkscape:vp_y="0 : 1000 : 0"
       inkscape:vp_x="0 : 0.5 : 1"
       sodipodi:type="inkscape:persp3d" />
  </defs>
  <sodipodi:namedview
     id="base"
     pagecolor="#ffffff"
     bordercolor="#666666"
     borderopacity="1.0"
     inkscape:pageopacity="0.0"
     inkscape:pageshadow="2"
     inkscape:zoom="8.48"
     inkscape:cx="35.141509"
     inkscape:cy="50"
     inkscape:document-units="px"
     inkscape:current-layer="layer7"
     showgrid="false"
     showguides="true"
     inkscape:guide-bbox="true"
     inkscape:snap-global="false"
     inkscape:window-width="1920"
     inkscape:window-height="1122"
     inkscape:window-x="0"
     inkscape:window-y="24"
     inkscape:window-maximized="1">
    <sodipodi:guide
       orientation="0,1"
       position="105.48232,6.0037368"
       id="guide2865" />
    <sodipodi:guide
       orientation="1,0"
       position="50,22.169811"
       id="guide2957" />
  </sodipodi:namedview>
  <metadata
     id="metadata13991">
    <rdf:RDF>
      <cc:Work
         rdf:about="">
        <dc:format>image/svg+xml</dc:format>
        <dc:type
           rdf:resource="http://purl.org/dc/dcmitype/StillImage" />
        <dc:title />
      </cc:Work>
    </rdf:RDF>
  </metadata>
  <g
     inkscape:groupmode="layer"
     id="layer7"
     inkscape:label="pieces_0.5_opt_single"
     style="display:inline">
    <path
       style="fill:#e6c679;fill-opacity:1;stroke:#000000;stroke-width:1px;stroke-linecap:butt;stroke-linejoin:miter;stroke-opacity:1"
       d="m 11.640145,93.490901 76.723581,0.0027 L 75.559813,15.517183 49.999455,7.1401243 23.495772,15.71423 11.640145,93.490901 z"
       id="path5849"
       sodipodi:nodetypes="cccccc" />
    <path
       style="fill:#000000;display:inline"
       d="m 52.682149,15.529096 c -0.665617,-0.029 -0.981479,0.160126 -1.38027,0.645091 -0.850434,1.034147 -6.267674,2.905084 -8.367521,2.901077 -1.617528,-0.0031 -1.6387,0.02433 -0.322613,1.247428 1.485864,1.381079 2.004781,1.33278 5.721094,-0.266174 2.571174,-1.106311 2.409513,-1.156172 2.677034,1.302974 0.504079,4.633635 2.389211,6.66352 7.80666,8.469756 5.131759,1.710918 8.205338,0.488371 6.176295,-2.450059 -0.383873,-0.555927 -1.051941,-1.84613 -1.508168,-2.856058 -0.829486,-1.836179 -0.836271,-1.844284 -1.15444,-0.228108 -0.648761,3.295354 -1.936689,3.849191 -5.3933,2.237643 -3.30223,-1.539495 -4.151768,-5.057191 -2.025346,-8.454181 1.019717,-1.628995 0.777501,-2.072571 -1.417712,-2.449062 -0.308052,-0.0528 -0.589844,-0.09068 -0.811713,-0.100277 z m 4.614725,1.287416 c -0.686717,0.09685 -1.027776,0.581695 -0.386125,1.371918 0.263678,0.324847 0.37219,0.852343 0.240374,1.189486 -0.287565,0.735395 -0.02862,0.768643 1.779927,0.170671 1.856633,-0.613883 1.86558,-0.61106 0.795651,-1.774864 -0.71679,-0.77963 -1.74311,-1.054052 -2.429827,-0.957211 z m -17.260706,5.110373 c -0.719194,-0.02212 -0.933909,0.467762 -0.354875,1.372171 0.604362,0.944226 0.613781,1.128458 0.01476,2.031436 -0.841289,1.268228 -3.19282,3.03674 -4.024672,3.030003 -0.355068,-0.0029 -0.753342,0.168704 -0.878009,0.367901 -0.327051,0.522268 0.87587,0.882673 1.995125,0.609928 0.546477,-0.133178 1.222895,0.0105 1.591167,0.325398 3.163945,2.705214 2.987688,3.491812 -1.22745,4.927721 -1.962449,0.668528 -3.742198,1.018125 -4.507445,0.901023 -2.477491,-0.379078 -2.939122,1.307039 -0.644215,2.36986 1.553703,0.719608 1.538382,0.708483 4.726189,-0.899252 3.764499,-1.898473 4.033032,-1.821296 3.710022,1.092584 -0.334661,3.018789 -1.956678,6.097453 -4.380188,8.339798 -2.049112,1.895867 -1.902093,2.395373 0.487835,1.504 3.678844,-1.372149 6.168156,-5.832035 6.94527,-12.506659 0.08404,-0.721543 0.527575,-1.112264 1.637095,-1.48679 1.90116,-0.641724 1.835994,-0.837558 1.788514,6.827209 -0.03951,6.347988 0.127676,7.657535 1.031706,7.664858 1.211681,0.0098 1.489488,-1.60614 1.412802,-8.520088 -0.08286,-7.468716 -0.156963,-7.162806 1.436203,-7.551116 1.044817,-0.254547 1.126481,-0.178282 1.116358,1.071577 -0.07395,9.130201 4.797673,14.225823 13.758628,14.424405 2.728451,0.0605 3.653664,-0.04971 3.941674,-0.499343 0.550008,-0.858673 0.550769,-0.855616 -1.41341,-2.980295 -0.99217,-1.07327 -1.795431,-2.114811 -1.793712,-2.327104 0.0088,-1.081364 -1.139609,-0.173635 -1.572572,1.237305 -0.678854,2.212374 -2.825602,2.095234 -6.622504,-0.334897 -3.36443,-2.15342 -4.699635,-8.608395 -2.255343,-10.924875 1.516065,-1.436668 1.530605,-1.652658 0.05094,-2.437167 -1.583711,-0.839654 -2.562183,-0.806377 -4.157632,0.153832 -1.992397,1.199203 -2.387624,1.055147 -2.08786,-0.735683 0.389301,-2.326024 -2.718505,-4.433213 -4.599792,-3.131108 -0.808991,0.559866 -0.787212,0.579794 0.39181,1.784482 1.666375,1.702653 1.485377,3.584598 -0.410168,4.340571 -1.309361,0.522113 -1.325383,0.514883 -1.55688,-0.700132 -0.220015,-1.15472 -1.260505,-1.960423 -3.32314,-2.558249 -0.366242,-0.106169 0.04925,-0.58647 1.167095,-1.334341 3.112921,-2.082757 3.202388,-3.225469 0.382715,-4.809558 -0.726368,-0.408046 -1.344613,-0.626131 -1.776129,-0.639406 z m 17.030438,0.169136 c -0.230651,-0.0068 -0.464566,0.009 -0.718978,0.02538 -1.704122,0.110503 -1.704781,0.08694 -0.103568,1.217951 1.923788,1.358826 3.425177,1.535442 3.434603,0.37158 0.0078,-0.959058 -0.997437,-1.56883 -2.612006,-1.614957 z m 1.611263,9.419609 c -0.905328,-0.04833 -1.534172,0.355776 -0.914825,1.055125 0.381404,0.430703 0.446771,0.860996 0.209884,1.095485 -0.237018,0.234589 0.392808,0.417946 1.6524,0.482149 2.321368,0.118306 2.605862,-0.591014 0.766173,-1.99386 -0.517898,-0.394957 -1.170438,-0.609879 -1.713632,-0.638899 z m -0.916732,5.149044 c -1.362015,-0.01103 -1.299772,0.520989 0.204064,1.814212 1.511919,1.300188 3.207151,1.445122 3.216619,0.276061 0.0075,-0.92717 -1.869994,-2.077714 -3.420683,-2.090273 z m -10.641254,13.53926 c -0.490935,0.001 -0.851939,0.112453 -1.158997,0.334374 -0.708681,0.512177 -0.696144,0.56068 0.491379,1.066515 1.268754,0.540493 1.854943,1.73453 1.568135,3.169054 -0.195348,0.97685 -2.608988,1.717776 -6.328744,1.980058 -3.213692,0.226679 -3.483056,0.624961 -1.359145,1.895304 1.269502,0.759307 3.546541,0.642695 7.03431,-0.34929 0.580626,-0.165203 0.687117,0.04997 0.677607,1.224279 -0.01095,1.351754 -0.111169,1.452597 -1.733627,1.829769 -0.947045,0.220237 -2.863987,0.78558 -4.260237,1.246786 -2.076996,0.686201 -2.749118,0.74791 -3.784417,0.375613 -0.695986,-0.250245 -2.02186,-0.45389 -2.93386,-0.461277 -1.658255,-0.0074 -1.645812,-0.01633 -0.166875,1.311191 0.813414,0.730013 2.081773,2.639247 2.840991,4.210648 2.394481,4.955855 4.156011,6.11366 7.615504,5.061844 1.343862,-0.408529 2.490069,-0.696105 2.536482,-0.635727 0.04641,0.06047 0.19578,0.620655 0.333868,1.221494 0.284135,1.236441 0.662578,1.057301 -4.800329,2.336198 -2.005528,0.469473 -5.401616,1.338396 -7.547201,1.938939 -2.901807,0.812724 -4.459101,1.022868 -6.038392,0.857372 -2.490508,-0.260979 -2.630058,0.341011 -0.421422,1.871649 2.251415,1.560485 2.992976,1.558441 6.812528,0.02397 3.884878,-1.560687 10.694532,-3.270791 11.617668,-2.906003 0.458487,0.181119 0.584932,1.091123 0.561081,4.035927 -0.02241,2.76711 0.132081,4.028002 0.587016,4.692408 1.414406,2.065623 1.947841,0.979358 2.2574,-4.763123 0.300628,-5.576948 -0.260558,-5.193281 7.729768,-5.187566 4.591255,0.0033 5.788256,0.126583 7.618423,0.842979 3.080939,1.205992 4.679475,1.009733 4.692408,-0.587015 0.01517,-1.872038 -3.31327,-3.479449 -7.221922,-3.496105 -3.069295,-0.01305 -9.294853,0.498587 -11.445477,0.938583 -1.146728,0.23462 -1.313761,0.150364 -1.307901,-0.573111 0.01527,-1.885039 0.353799,-2.122205 3.235855,-2.098863 2.998431,0.02428 4.270666,-0.821788 5.970966,-4.108025 0.37286,-0.720704 1.454812,-2.188289 2.432493,-3.230405 3.089231,-3.292788 1.068685,-4.593745 -6.683855,-4.335525 -4.887357,0.162622 -4.905042,0.145778 -4.772488,-1.101189 0.152545,-1.434711 0.974175,-1.770918 4.233544,-1.809522 2.315637,-0.02714 3.675185,-0.767259 3.295823,-1.785864 -0.266394,-0.715582 -1.40892,-0.87634 -5.025518,-0.728226 -2.123754,0.087 -2.125788,0.08879 -2.1143,-1.329669 0.01021,-1.260458 -0.171484,-1.495487 -1.514749,-2.043584 -1.584038,-0.646231 -2.705565,-0.936264 -3.523794,-0.93482 z m 10.468002,11.710165 c 2.118438,0.05076 1.935951,1.041163 0.55931,4.254669 -1.209886,2.824394 -1.207493,2.815563 -3.71193,3.001286 -1.794747,0.133168 -2.57935,0.03281 -2.71613,-0.334509 -0.402834,-1.081599 0.291,-1.706449 1.826361,-1.704014 3.44447,0.01389 3.404388,-2.089947 -0.04352,-2.34418 -1.802772,-0.133005 -1.898806,-0.197135 -1.771321,-1.233137 0.126831,-1.030506 0.295895,-1.11814 2.917797,-1.413915 1.260463,-0.142176 2.233282,-0.24311 2.939429,-0.2262 z m -10.294074,1.541678 c 1.008581,-0.0061 1.316269,0.528928 0.768822,1.537527 -0.269175,0.495937 -1.216332,0.904128 -2.728531,1.196691 -3.462179,0.669882 -4.099771,0.579964 -4.308056,-0.56616 -0.153343,-0.843569 -0.01327,-0.97889 0.882817,-0.961631 0.577663,0.01067 1.841429,-0.252895 2.81747,-0.602201 1.090216,-0.390144 1.962329,-0.600598 2.567478,-0.604226 z m 0.40104,4.503396 c 0.617744,-0.0684 0.686596,0.114314 0.682163,0.661796 -0.0083,1.021567 -0.560228,1.453111 -2.672868,2.040919 -2.461238,0.684889 -2.859567,0.57446 -3.337059,-0.839554 -0.238449,-0.706155 -0.458332,-1.288254 -0.458105,-1.316254 2.26e-4,-0.028 0.774148,-0.07453 1.719452,-0.07977 0.945293,-0.0052 2.417242,-0.145977 3.252678,-0.317417 0.339555,-0.06975 0.607827,-0.126881 0.813738,-0.149664 z"
       id="path3988" />
  </g>
</svg>
