<?xml version="1.0" encoding="UTF-8" standalone="no"?>
<!-- Created with Inkscape (http://www.inkscape.org/) -->

<svg
   xmlns:dc="http://purl.org/dc/elements/1.1/"
   xmlns:cc="http://creativecommons.org/ns#"
   xmlns:rdf="http://www.w3.org/1999/02/22-rdf-syntax-ns#"
   xmlns:svg="http://www.w3.org/2000/svg"
   xmlns="http://www.w3.org/2000/svg"
   xmlns:sodipodi="http://sodipodi.sourceforge.net/DTD/sodipodi-0.dtd"
   xmlns:inkscape="http://www.inkscape.org/namespaces/inkscape"
   width="100"
   height="100"
   id="svg13986"
   version="1.1"
   inkscape:version="0.47 r22583"
   sodipodi:docname="kakugyou.svg"
   style="display:inline">
  <defs
     id="defs13988">
    <inkscape:perspective
       sodipodi:type="inkscape:persp3d"
       inkscape:vp_x="0 : 526.18109 : 1"
       inkscape:vp_y="0 : 1000 : 0"
       inkscape:vp_z="744.09448 : 526.18109 : 1"
       inkscape:persp3d-origin="372.04724 : 350.78739 : 1"
       id="perspective13994" />
    <inkscape:perspective
       id="perspective14004"
       inkscape:persp3d-origin="0.5 : 0.33333333 : 1"
       inkscape:vp_z="1 : 0.5 : 1"
       inkscape:vp_y="0 : 1000 : 0"
       inkscape:vp_x="0 : 0.5 : 1"
       sodipodi:type="inkscape:persp3d" />
    <inkscape:perspective
       id="perspective3830"
       inkscape:persp3d-origin="0.5 : 0.33333333 : 1"
       inkscape:vp_z="1 : 0.5 : 1"
       inkscape:vp_y="0 : 1000 : 0"
       inkscape:vp_x="0 : 0.5 : 1"
       sodipodi:type="inkscape:persp3d" />
    <inkscape:perspective
       id="perspective3830-1"
       inkscape:persp3d-origin="0.5 : 0.33333333 : 1"
       inkscape:vp_z="1 : 0.5 : 1"
       inkscape:vp_y="0 : 1000 : 0"
       inkscape:vp_x="0 : 0.5 : 1"
       sodipodi:type="inkscape:persp3d" />
    <inkscape:perspective
       id="perspective3830-0"
       inkscape:persp3d-origin="0.5 : 0.33333333 : 1"
       inkscape:vp_z="1 : 0.5 : 1"
       inkscape:vp_y="0 : 1000 : 0"
       inkscape:vp_x="0 : 0.5 : 1"
       sodipodi:type="inkscape:persp3d" />
    <inkscape:perspective
       id="perspective3830-2"
       inkscape:persp3d-origin="0.5 : 0.33333333 : 1"
       inkscape:vp_z="1 : 0.5 : 1"
       inkscape:vp_y="0 : 1000 : 0"
       inkscape:vp_x="0 : 0.5 : 1"
       sodipodi:type="inkscape:persp3d" />
    <inkscape:perspective
       id="perspective3830-4"
       inkscape:persp3d-origin="0.5 : 0.33333333 : 1"
       inkscape:vp_z="1 : 0.5 : 1"
       inkscape:vp_y="0 : 1000 : 0"
       inkscape:vp_x="0 : 0.5 : 1"
       sodipodi:type="inkscape:persp3d" />
    <inkscape:perspective
       id="perspective3830-44"
       inkscape:persp3d-origin="0.5 : 0.33333333 : 1"
       inkscape:vp_z="1 : 0.5 : 1"
       inkscape:vp_y="0 : 1000 : 0"
       inkscape:vp_x="0 : 0.5 : 1"
       sodipodi:type="inkscape:persp3d" />
    <inkscape:perspective
       id="perspective3830-11"
       inkscape:persp3d-origin="0.5 : 0.33333333 : 1"
       inkscape:vp_z="1 : 0.5 : 1"
       inkscape:vp_y="0 : 1000 : 0"
       inkscape:vp_x="0 : 0.5 : 1"
       sodipodi:type="inkscape:persp3d" />
    <inkscape:perspective
       id="perspective3830-19"
       inkscape:persp3d-origin="0.5 : 0.33333333 : 1"
       inkscape:vp_z="1 : 0.5 : 1"
       inkscape:vp_y="0 : 1000 : 0"
       inkscape:vp_x="0 : 0.5 : 1"
       sodipodi:type="inkscape:persp3d" />
    <inkscape:perspective
       id="perspective3830-5"
       inkscape:persp3d-origin="0.5 : 0.33333333 : 1"
       inkscape:vp_z="1 : 0.5 : 1"
       inkscape:vp_y="0 : 1000 : 0"
       inkscape:vp_x="0 : 0.5 : 1"
       sodipodi:type="inkscape:persp3d" />
    <inkscape:perspective
       id="perspective3830-53"
       inkscape:persp3d-origin="0.5 : 0.33333333 : 1"
       inkscape:vp_z="1 : 0.5 : 1"
       inkscape:vp_y="0 : 1000 : 0"
       inkscape:vp_x="0 : 0.5 : 1"
       sodipodi:type="inkscape:persp3d" />
    <inkscape:perspective
       id="perspective3830-04"
       inkscape:persp3d-origin="0.5 : 0.33333333 : 1"
       inkscape:vp_z="1 : 0.5 : 1"
       inkscape:vp_y="0 : 1000 : 0"
       inkscape:vp_x="0 : 0.5 : 1"
       sodipodi:type="inkscape:persp3d" />
    <inkscape:perspective
       id="perspective3830-6"
       inkscape:persp3d-origin="0.5 : 0.33333333 : 1"
       inkscape:vp_z="1 : 0.5 : 1"
       inkscape:vp_y="0 : 1000 : 0"
       inkscape:vp_x="0 : 0.5 : 1"
       sodipodi:type="inkscape:persp3d" />
    <inkscape:perspective
       id="perspective3830-55"
       inkscape:persp3d-origin="0.5 : 0.33333333 : 1"
       inkscape:vp_z="1 : 0.5 : 1"
       inkscape:vp_y="0 : 1000 : 0"
       inkscape:vp_x="0 : 0.5 : 1"
       sodipodi:type="inkscape:persp3d" />
    <inkscape:perspective
       id="perspective3830-40"
       inkscape:persp3d-origin="0.5 : 0.33333333 : 1"
       inkscape:vp_z="1 : 0.5 : 1"
       inkscape:vp_y="0 : 1000 : 0"
       inkscape:vp_x="0 : 0.5 : 1"
       sodipodi:type="inkscape:persp3d" />
    <inkscape:perspective
       id="perspective5074"
       inkscape:persp3d-origin="0.5 : 0.33333333 : 1"
       inkscape:vp_z="1 : 0.5 : 1"
       inkscape:vp_y="0 : 1000 : 0"
       inkscape:vp_x="0 : 0.5 : 1"
       sodipodi:type="inkscape:persp3d" />
    <inkscape:perspective
       id="perspective5809"
       inkscape:persp3d-origin="0.5 : 0.33333333 : 1"
       inkscape:vp_z="1 : 0.5 : 1"
       inkscape:vp_y="0 : 1000 : 0"
       inkscape:vp_x="0 : 0.5 : 1"
       sodipodi:type="inkscape:persp3d" />
  </defs>
  <sodipodi:namedview
     id="base"
     pagecolor="#ffffff"
     bordercolor="#666666"
     borderopacity="1.0"
     inkscape:pageopacity="0.0"
     inkscape:pageshadow="2"
     inkscape:zoom="8.48"
     inkscape:cx="35.141509"
     inkscape:cy="50"
     inkscape:document-units="px"
     inkscape:current-layer="layer7"
     showgrid="false"
     showguides="true"
     inkscape:guide-bbox="true"
     inkscape:snap-global="false"
     inkscape:window-width="1920"
     inkscape:window-height="1122"
     inkscape:window-x="0"
     inkscape:window-y="24"
     inkscape:window-maximized="1">
    <sodipodi:guide
       orientation="0,1"
       position="105.48232,6.0037368"
       id="guide2865" />
    <sodipodi:guide
       orientation="1,0"
       position="50,22.169811"
       id="guide2957" />
  </sodipodi:namedview>
  <metadata
     id="metadata13991">
    <rdf:RDF>
      <cc:Work
         rdf:about="">
        <dc:format>image/svg+xml</dc:format>
        <dc:type
           rdf:resource="http://purl.org/dc/dcmitype/StillImage" />
        <dc:title />
      </cc:Work>
    </rdf:RDF>
  </metadata>
  <g
     inkscape:groupmode="layer"
     id="layer7"
     inkscape:label="pieces_0.5_opt_single"
     style="display:inline">
    <path
       style="fill:#e6c679;fill-opacity:1;stroke:#000000;stroke-width:1px;stroke-linecap:butt;stroke-linejoin:miter;stroke-opacity:1"
       d="M 11.594922,93.490201 88.407647,93.491178 75.689402,15.67727 50.000313,7.4948287 23.981149,15.55416 11.594922,93.490201 z"
       id="path5851"
       sodipodi:nodetypes="cccccc" />
    <path
       style="fill:#000000;display:inline"
       d="m 48.006901,15.256835 c -0.705531,0.0424 -1.005773,0.451308 -0.823412,1.17996 0.502746,2.00852 -2.914797,5.952583 -9.507828,10.97532 -3.037883,2.314294 -2.977686,2.730367 0.175393,1.314173 3.028226,-1.360043 6.759565,-4.021109 9.532011,-6.818671 2.283992,-2.304643 3.535518,-2.778926 4.452868,-1.646522 1.109453,1.369486 -5.315487,7.679377 -8.357238,8.204559 -2.02519,0.349746 -2.007494,0.338309 -0.571694,0.994772 1.021975,0.467341 1.848345,0.561163 2.871997,0.33899 1.30165,-0.282513 1.497047,-0.192408 2.086171,0.831766 1.216743,2.115206 0.902955,2.650536 -1.715659,3.046814 -1.6485,0.249414 -1.64302,0.247265 -2.050314,-1.331457 -0.431364,-1.672148 -2.015488,-3.018708 -3.597191,-3.033289 -0.840924,-0.0078 -0.855579,-0.0019 -0.01527,1.65618 0.956033,1.886193 0.834252,9.314486 -0.22909,14.686012 -0.480147,2.425277 -0.461872,2.820712 0.152635,3.782817 1.603228,2.510286 2.971817,0.386162 3.392292,-5.250201 0.250494,-3.357734 0.386984,-3.847496 0.939628,-3.616492 0.353623,0.147766 1.318952,0.361724 2.151838,0.488607 1.514357,0.23077 1.529264,0.222407 1.504106,2.951491 -0.03167,3.435754 1.082469,5.010291 2.406284,3.397326 0.408252,-0.497358 0.843989,-0.898508 0.977063,-0.897281 0.608614,0.0056 3.707521,2.65089 4.37207,3.727962 0.909234,1.473644 2.034784,1.538572 2.935935,0.183322 0.726989,-1.093245 0.702929,-6.077979 -0.107681,-15.439149 -0.223757,-2.582072 -0.202348,-4.555109 0.04984,-5.40602 1.004462,-3.389985 -2.04229,-4.54927 -7.972293,-3.042371 -1.601225,0.406457 -2.913046,0.615273 -2.910736,0.473188 0.0046,-0.286069 7.105815,-4.909005 8.237277,-5.361794 2.107813,-0.843305 -0.43007,-2.754081 -3.693242,-2.784163 -2.054992,-0.01894 -2.435673,-0.298366 -1.583311,-1.139644 0.733575,-0.723969 0.160539,-1.598188 -1.41785,-2.138162 -0.695238,-0.237789 -1.261225,-0.353491 -1.684548,-0.328042 z m 5.630493,12.989956 c 1.962077,-0.01881 1.986557,0.16362 2.327929,11.896965 0.189845,6.525328 0.174367,6.791896 -0.562203,6.745104 -1.2207,-0.07716 -3.572815,-0.904324 -3.893696,-1.379702 -0.454798,-0.673821 -0.302882,-5.12801 0.172238,-5.12363 0.229541,0.0021 1.063508,-0.255257 1.849145,-0.576728 1.98677,-0.81312 1.328595,-2.455757 -0.824701,-2.070191 -1.244618,0.222937 -1.335561,0.155545 -1.491006,-0.982536 -0.179812,-1.316513 0.283282,-2.059976 1.300208,-2.050601 0.350835,0.0032 1.048829,-0.273843 1.536947,-0.610858 1.245863,-0.860252 0.739937,-1.805756 -0.952001,-1.821353 -1.099333,-0.01013 -1.342168,-0.17778 -1.336203,-0.824853 0.005,-0.542777 -0.502702,-1.021827 -1.517645,-1.482803 -1.510153,-0.68575 -1.517561,-0.679518 0.104643,-1.186586 0.892238,-0.278887 2.371838,-0.523658 3.286295,-0.532228 z m -9.003665,7.136054 c 0.110792,-0.02028 0.241571,0.0032 0.405945,0.03494 0.444032,0.0865 1.392217,0.14784 2.092509,0.144296 1.973977,-0.0057 2.292589,2.818153 0.375697,3.316104 -2.780636,0.722298 -3.669008,0.131483 -3.416613,-2.281593 0.08675,-0.829865 0.210097,-1.152852 0.542463,-1.213801 z m -6.507106,17.690767 c -0.789773,0.02382 -1.066515,0.424127 -0.416315,1.089959 1.015863,1.040309 -0.432992,4.659556 -2.558949,6.382932 -0.384873,0.312065 -1.073746,1.110899 -1.547605,1.767059 -0.861553,1.192908 -0.887541,1.167568 0.08563,0.875826 1.749207,-0.524297 2.669918,-1.139486 5.535199,-3.792886 4.121651,-3.816867 4.217602,-4.571615 0.773454,-5.930622 -0.741973,-0.292752 -1.397602,-0.40658 -1.871464,-0.392268 z m 21.778884,0.357031 c -1.421428,0.09303 -3.528265,0.642802 -6.265578,1.661062 -0.51266,0.190682 -1.287812,0.363144 -1.722134,0.35914 -1.048725,-0.0097 -1.021577,0.615459 0.08073,1.407054 1.113348,0.799397 0.94083,0.807107 4.90777,-0.142264 4.166809,-0.997132 5.138367,-1.426444 5.145235,-2.171412 0.0077,-0.839614 -0.724648,-1.206611 -2.146076,-1.113581 z m 7.745335,7.32171 c -2.418635,0.0133 -11.472433,2.134384 -17.100088,3.998785 -3.018506,0.999917 -3.528657,1.074718 -3.630032,0.52906 -0.0949,-0.510696 -0.380345,-0.426374 -1.44176,0.455479 -1.717748,1.427126 -1.687984,1.945322 0.224063,2.814685 1.570923,0.714212 1.585519,0.685445 5.638012,-1.385586 4.052483,-2.070931 4.037599,-2.054267 5.291973,-1.138765 1.418823,1.035623 1.546449,1.428316 1.788938,5.954244 0.09592,1.78976 0.269661,4.858792 0.40593,6.816532 0.285464,4.101405 0.438683,3.962262 -3.58914,2.873286 -3.11828,-0.843181 -3.349139,-0.555747 -0.727073,0.899586 1.15102,0.638837 2.92022,1.875999 3.943807,2.723971 1.023596,0.847972 2.084405,1.55053 2.360783,1.553078 0.639373,0.0059 1.634023,-1.980121 1.528168,-3.048542 -0.04438,-0.447628 -0.283408,-2.566022 -0.519265,-4.692486 -0.235849,-2.126365 -0.344977,-5.780626 -0.268837,-8.127824 0.138445,-4.267505 0.145713,-4.256387 -1.327985,-5.106209 -0.810546,-0.467391 -1.606368,-0.973099 -1.739844,-1.109835 -0.507134,-0.519297 4.678297,-1.195175 9.136424,-1.197078 4.020008,-0.0019 4.668079,-0.08032 4.787672,-0.674645 0.217168,-1.079244 -2.167636,-2.151823 -4.761746,-2.137736 z m -28.366167,2.301109 c -0.484326,0.007 -0.74398,0.381658 -0.697842,1.118614 0.141625,2.261902 -5.582033,9.384092 -9.642329,12.005374 -2.191133,1.414562 -0.783889,1.901205 1.962617,0.674371 0.893347,-0.399082 2.857478,-1.91759 4.374965,-3.366063 1.517488,-1.448573 2.828669,-2.521982 2.89706,-2.379645 0.06839,0.142436 -0.03869,2.645705 -0.238481,5.529286 -0.359371,5.185908 -0.180182,6.475514 0.964373,7.259199 1.487294,1.018453 1.845776,-0.211294 1.901862,-6.295236 0.04756,-5.159381 -0.01355,-5.76552 -0.811298,-6.914022 -0.873384,-1.257605 -0.869443,-1.27832 0.838104,-2.773642 2.03807,-1.784889 2.103458,-2.371261 0.472338,-3.777057 -0.841418,-0.725487 -1.537043,-1.088265 -2.021369,-1.081179 z"
       id="path3815" />
  </g>
</svg>
