<?xml version="1.0" encoding="UTF-8" standalone="no"?>
<!-- Created with Inkscape (http://www.inkscape.org/) -->

<svg
   xmlns:dc="http://purl.org/dc/elements/1.1/"
   xmlns:cc="http://creativecommons.org/ns#"
   xmlns:rdf="http://www.w3.org/1999/02/22-rdf-syntax-ns#"
   xmlns:svg="http://www.w3.org/2000/svg"
   xmlns="http://www.w3.org/2000/svg"
   xmlns:sodipodi="http://sodipodi.sourceforge.net/DTD/sodipodi-0.dtd"
   xmlns:inkscape="http://www.inkscape.org/namespaces/inkscape"
   width="100"
   height="100"
   id="svg13986"
   version="1.1"
   inkscape:version="0.47 r22583"
   sodipodi:docname="keima.svg"
   style="display:inline">
  <defs
     id="defs13988">
    <inkscape:perspective
       sodipodi:type="inkscape:persp3d"
       inkscape:vp_x="0 : 526.18109 : 1"
       inkscape:vp_y="0 : 1000 : 0"
       inkscape:vp_z="744.09448 : 526.18109 : 1"
       inkscape:persp3d-origin="372.04724 : 350.78739 : 1"
       id="perspective13994" />
    <inkscape:perspective
       id="perspective14004"
       inkscape:persp3d-origin="0.5 : 0.33333333 : 1"
       inkscape:vp_z="1 : 0.5 : 1"
       inkscape:vp_y="0 : 1000 : 0"
       inkscape:vp_x="0 : 0.5 : 1"
       sodipodi:type="inkscape:persp3d" />
    <inkscape:perspective
       id="perspective3830"
       inkscape:persp3d-origin="0.5 : 0.33333333 : 1"
       inkscape:vp_z="1 : 0.5 : 1"
       inkscape:vp_y="0 : 1000 : 0"
       inkscape:vp_x="0 : 0.5 : 1"
       sodipodi:type="inkscape:persp3d" />
    <inkscape:perspective
       id="perspective3830-1"
       inkscape:persp3d-origin="0.5 : 0.33333333 : 1"
       inkscape:vp_z="1 : 0.5 : 1"
       inkscape:vp_y="0 : 1000 : 0"
       inkscape:vp_x="0 : 0.5 : 1"
       sodipodi:type="inkscape:persp3d" />
    <inkscape:perspective
       id="perspective3830-0"
       inkscape:persp3d-origin="0.5 : 0.33333333 : 1"
       inkscape:vp_z="1 : 0.5 : 1"
       inkscape:vp_y="0 : 1000 : 0"
       inkscape:vp_x="0 : 0.5 : 1"
       sodipodi:type="inkscape:persp3d" />
    <inkscape:perspective
       id="perspective3830-2"
       inkscape:persp3d-origin="0.5 : 0.33333333 : 1"
       inkscape:vp_z="1 : 0.5 : 1"
       inkscape:vp_y="0 : 1000 : 0"
       inkscape:vp_x="0 : 0.5 : 1"
       sodipodi:type="inkscape:persp3d" />
    <inkscape:perspective
       id="perspective3830-4"
       inkscape:persp3d-origin="0.5 : 0.33333333 : 1"
       inkscape:vp_z="1 : 0.5 : 1"
       inkscape:vp_y="0 : 1000 : 0"
       inkscape:vp_x="0 : 0.5 : 1"
       sodipodi:type="inkscape:persp3d" />
    <inkscape:perspective
       id="perspective3830-44"
       inkscape:persp3d-origin="0.5 : 0.33333333 : 1"
       inkscape:vp_z="1 : 0.5 : 1"
       inkscape:vp_y="0 : 1000 : 0"
       inkscape:vp_x="0 : 0.5 : 1"
       sodipodi:type="inkscape:persp3d" />
    <inkscape:perspective
       id="perspective3830-11"
       inkscape:persp3d-origin="0.5 : 0.33333333 : 1"
       inkscape:vp_z="1 : 0.5 : 1"
       inkscape:vp_y="0 : 1000 : 0"
       inkscape:vp_x="0 : 0.5 : 1"
       sodipodi:type="inkscape:persp3d" />
    <inkscape:perspective
       id="perspective3830-19"
       inkscape:persp3d-origin="0.5 : 0.33333333 : 1"
       inkscape:vp_z="1 : 0.5 : 1"
       inkscape:vp_y="0 : 1000 : 0"
       inkscape:vp_x="0 : 0.5 : 1"
       sodipodi:type="inkscape:persp3d" />
    <inkscape:perspective
       id="perspective3830-5"
       inkscape:persp3d-origin="0.5 : 0.33333333 : 1"
       inkscape:vp_z="1 : 0.5 : 1"
       inkscape:vp_y="0 : 1000 : 0"
       inkscape:vp_x="0 : 0.5 : 1"
       sodipodi:type="inkscape:persp3d" />
    <inkscape:perspective
       id="perspective3830-53"
       inkscape:persp3d-origin="0.5 : 0.33333333 : 1"
       inkscape:vp_z="1 : 0.5 : 1"
       inkscape:vp_y="0 : 1000 : 0"
       inkscape:vp_x="0 : 0.5 : 1"
       sodipodi:type="inkscape:persp3d" />
    <inkscape:perspective
       id="perspective3830-04"
       inkscape:persp3d-origin="0.5 : 0.33333333 : 1"
       inkscape:vp_z="1 : 0.5 : 1"
       inkscape:vp_y="0 : 1000 : 0"
       inkscape:vp_x="0 : 0.5 : 1"
       sodipodi:type="inkscape:persp3d" />
    <inkscape:perspective
       id="perspective3830-6"
       inkscape:persp3d-origin="0.5 : 0.33333333 : 1"
       inkscape:vp_z="1 : 0.5 : 1"
       inkscape:vp_y="0 : 1000 : 0"
       inkscape:vp_x="0 : 0.5 : 1"
       sodipodi:type="inkscape:persp3d" />
    <inkscape:perspective
       id="perspective3830-55"
       inkscape:persp3d-origin="0.5 : 0.33333333 : 1"
       inkscape:vp_z="1 : 0.5 : 1"
       inkscape:vp_y="0 : 1000 : 0"
       inkscape:vp_x="0 : 0.5 : 1"
       sodipodi:type="inkscape:persp3d" />
    <inkscape:perspective
       id="perspective3830-40"
       inkscape:persp3d-origin="0.5 : 0.33333333 : 1"
       inkscape:vp_z="1 : 0.5 : 1"
       inkscape:vp_y="0 : 1000 : 0"
       inkscape:vp_x="0 : 0.5 : 1"
       sodipodi:type="inkscape:persp3d" />
    <inkscape:perspective
       id="perspective5074"
       inkscape:persp3d-origin="0.5 : 0.33333333 : 1"
       inkscape:vp_z="1 : 0.5 : 1"
       inkscape:vp_y="0 : 1000 : 0"
       inkscape:vp_x="0 : 0.5 : 1"
       sodipodi:type="inkscape:persp3d" />
    <inkscape:perspective
       id="perspective5809"
       inkscape:persp3d-origin="0.5 : 0.33333333 : 1"
       inkscape:vp_z="1 : 0.5 : 1"
       inkscape:vp_y="0 : 1000 : 0"
       inkscape:vp_x="0 : 0.5 : 1"
       sodipodi:type="inkscape:persp3d" />
  </defs>
  <sodipodi:namedview
     id="base"
     pagecolor="#ffffff"
     bordercolor="#666666"
     borderopacity="1.0"
     inkscape:pageopacity="0.0"
     inkscape:pageshadow="2"
     inkscape:zoom="2"
     inkscape:cx="136.19416"
     inkscape:cy="2.9818092"
     inkscape:document-units="px"
     inkscape:current-layer="layer7"
     showgrid="false"
     showguides="true"
     inkscape:guide-bbox="true"
     inkscape:snap-global="false"
     inkscape:window-width="1920"
     inkscape:window-height="1122"
     inkscape:window-x="0"
     inkscape:window-y="24"
     inkscape:window-maximized="1">
    <sodipodi:guide
       orientation="0,1"
       position="105.48232,6.0037368"
       id="guide2865" />
    <sodipodi:guide
       orientation="1,0"
       position="50,22.169811"
       id="guide2957" />
  </sodipodi:namedview>
  <metadata
     id="metadata13991">
    <rdf:RDF>
      <cc:Work
         rdf:about="">
        <dc:format>image/svg+xml</dc:format>
        <dc:type
           rdf:resource="http://purl.org/dc/dcmitype/StillImage" />
        <dc:title />
      </cc:Work>
    </rdf:RDF>
  </metadata>
  <g
     inkscape:groupmode="layer"
     id="layer7"
     inkscape:label="pieces_0.5_opt_single"
     style="display:inline">
    <path
       style="fill:#e6c679;fill-opacity:1;stroke:#000000;stroke-width:1px;stroke-linecap:butt;stroke-linejoin:miter;stroke-opacity:1"
       d="M 25.435269,21.226134 14.28749,93.49641 85.709711,93.497106 73.702163,20.880292 49.998226,13.116352 25.435269,21.226134 z"
       id="path5835"
       sodipodi:nodetypes="cccccc" />
    <path
       style="fill:#000000;display:inline"
       d="m 53.561348,20.817873 c -1.950764,-0.09308 -2.565918,0.655553 -1.04965,1.644651 1.327281,0.86581 1.776238,2.289553 1.779188,5.801444 0.002,2.280074 -0.81699,2.913594 -5.138372,3.974216 -1.934764,0.474862 -1.979267,0.507208 -1.26316,1.173492 0.933466,0.86848 2.775461,0.918697 4.749008,0.115448 1.824592,-0.742627 1.865543,-0.675246 1.920309,1.552753 0.0472,1.920396 0.193356,1.826939 -4.564759,2.980549 -2.394631,0.580581 -0.632314,1.890468 2.262645,1.681578 2.441665,-0.176182 2.94682,0.288228 2.165765,1.961765 -0.376547,0.806792 -0.843483,1.004759 -2.920004,1.217524 -3.100524,0.317696 -2.539161,1.403232 0.917585,1.79159 1.759396,0.197666 2.113958,0.37707 2.206768,1.087168 0.129437,0.990415 -5.758955,3.373511 -8.287808,3.345318 -1.664216,-0.01855 -1.734954,0.370183 -0.264616,1.309632 1.563532,0.998892 2.848161,0.895856 5.817365,-0.403925 4.51019,-1.974445 10.732865,-2.734974 12.830864,-1.575814 1.55981,0.861742 3.766786,0.645681 3.629303,-0.365814 -0.287647,-2.116238 -6.566342,-3.459545 -10.070479,-2.143646 -1.299604,0.488243 -1.684299,0.09103 -1.29709,-1.389546 0.192987,-0.737904 0.639627,-1.111258 1.451693,-1.265145 1.593886,-0.302031 2.236595,-1.136208 1.55345,-1.982806 -0.352926,-0.437362 -0.886988,-0.600765 -1.65127,-0.455936 -1.065296,0.201877 -1.126638,0.140739 -1.112389,-1.137472 0.01419,-1.27261 0.110629,-1.392403 1.770097,-1.792878 2.965071,-0.715531 2.673431,-2.845925 -0.31795,-2.316189 -1.283263,0.227239 -1.428729,0.169554 -1.461343,-0.672582 -0.113593,-2.932829 0.06327,-3.127309 3.665882,-3.646861 2.271944,-0.327653 2.91289,-0.579424 2.918959,-1.12378 0.01256,-1.12648 -2.176509,-1.826956 -4.017065,-1.294861 -2.63648,0.762176 -2.592348,0.806191 -2.24871,-2.9315 0.366399,-3.985264 -0.0056,-4.577537 -3.069068,-5.034526 -0.331749,-0.04949 -0.626469,-0.09055 -0.905148,-0.103847 z m -12.619443,2.234461 c -0.9834,-0.01266 -1.769384,0.850709 -1.012479,1.113783 1.357155,0.471698 1.671764,1.420884 1.632353,4.956005 -0.0397,3.560948 -0.0367,3.561312 -2.489255,4.628788 -1.348959,0.587119 -3.264223,1.169774 -4.264716,1.296289 -2.189011,0.276815 -2.524944,0.654613 -1.329488,1.516523 1.282194,0.924441 2.9007,0.826258 5.097614,-0.318193 2.586793,-1.347547 3.07676,-1.314953 2.747391,0.249393 -0.42919,2.038362 -3.318968,5.697285 -6.402683,8.054125 -1.702471,1.301172 -2.656179,2.240279 -2.307236,2.318174 1.021189,0.228298 3.992937,-1.528463 6.386205,-3.772793 1.26658,-1.187765 2.408787,-2.160782 2.555478,-2.159147 0.146691,0.0016 0.256094,2.258045 0.225494,5.002825 -0.05564,4.99059 -0.06869,5.003895 -1.741391,4.824637 -1.672747,-0.179158 -1.667227,-0.183647 -0.515646,1.400589 0.633355,0.871414 1.502702,1.91352 1.943197,2.303055 2.318629,2.050275 2.703812,0.9434 2.453583,-7.035585 -0.216138,-6.891628 -0.04261,-7.502902 1.527184,-5.233301 1.16352,1.682205 2.917067,1.79006 2.748436,0.155648 -0.09072,-0.879386 -0.56669,-1.389063 -2.22443,-2.30619 -2.296201,-1.270346 -2.403149,-1.490862 -1.467857,-2.891543 0.560706,-0.839722 0.562173,-0.971293 0.01602,-1.437411 -0.903183,-0.770826 -0.719366,-1.63342 0.429217,-2.057843 0.558354,-0.206308 1.007223,-0.642341 1.011085,-0.98879 0.0039,-0.346438 -0.434825,-0.823618 -0.988441,-1.042334 -1.244736,-0.491756 -1.334526,-1.051112 -0.789701,-4.852854 0.284227,-1.983355 0.252379,-2.080576 -1.030385,-2.886666 C 42.42618,23.433754 41.42915,23.058617 40.9419,23.052334 z m 16.333221,31.871558 c -1.11324,-0.02241 -13.104416,2.657182 -13.597191,3.036112 -0.461445,0.354878 1.427729,1.328498 2.610206,1.341681 1.533844,0.0171 2.736267,1.204078 2.534471,2.528411 -0.118959,0.780622 -0.579662,1.057253 -2.580107,1.565085 -2.423951,0.615416 -2.416286,0.614952 -1.358646,1.328686 0.661247,0.4462 1.6152,0.657547 2.587318,0.59138 1.521958,-0.10434 1.563162,-0.05073 1.54812,1.298588 -0.01722,1.544404 -0.315375,1.756894 -3.215171,2.464312 -1.967635,0.480095 -1.988767,0.498111 -1.138517,1.206133 0.614724,0.511684 1.313276,0.665281 2.431775,0.527141 1.671455,-0.20638 1.955863,0.08151 1.88523,1.896134 -0.03112,0.799903 -0.423068,1.097252 -2.081184,1.664403 -3.443884,1.177882 -3.816446,1.050371 -3.86187,-1.199375 -0.100224,-4.966226 -4.9e-5,-8.284316 0.344845,-11.309359 0.436725,-3.830169 0.397871,-3.865905 -3.455192,-4.038768 -2.285498,-0.102584 -3.049881,0.273768 -1.571112,0.763783 1.909942,0.633031 2.133331,1.473973 2.162769,7.837097 0.02184,4.714736 0.176296,6.306707 0.699336,7.352003 0.887687,1.774206 0.565179,2.151684 -1.930169,2.134865 -2.09908,-0.0144 -2.104404,-0.03741 -1.102391,0.769009 1.832771,1.475023 3.288175,1.471047 8.000896,-0.03581 6.809477,-2.177425 15.763277,-3.186924 17.898623,-2.019347 1.427845,0.780766 1.499279,2.854791 0.185886,5.75243 -1.194974,2.636342 -1.781766,2.967921 -4.057475,2.329913 -2.090907,-0.586045 -2.084297,-0.735881 -0.243819,2.247422 2.576915,4.177086 4.554492,3.403483 7.533674,-2.978703 2.421928,-5.188323 2.902132,-7.12899 2.124485,-8.351835 -0.705379,-1.109133 -3.847957,-2.334291 -6.067941,-2.34904 -1.583751,-0.01406 -11.141868,1.340728 -12.082304,1.709167 -0.836305,0.327697 -0.853913,0.166841 -0.22943,-1.846423 0.452593,-1.459045 0.599245,-1.549966 3.368972,-2.243833 2.367509,-0.593044 2.884812,-0.864095 2.89224,-1.530353 0.0083,-0.745554 -0.239118,-0.827717 -2.928957,-0.7827 -3.037163,0.05065 -3.164695,-0.03603 -2.544574,-1.622217 0.27369,-0.699992 0.91494,-1.071317 2.422474,-1.441834 2.222688,-0.546356 3.132616,-1.282009 2.77526,-2.250452 -0.28957,-0.784777 -1.38028,-0.797137 -3.249799,-0.03623 -0.809317,0.329898 -1.479346,0.435485 -1.503042,0.264511 -0.02379,-0.170976 -0.0887,-0.565724 -0.115238,-0.87634 -0.04917,-0.576684 -0.614019,-0.985756 -2.045998,-1.49165 -0.805628,-0.284599 -0.805545,-0.292048 0.0066,-0.593713 2.408804,-0.894803 3.961101,-1.174666 6.169453,-1.150047 2.867582,0.03197 4.136382,-0.81674 2.770731,-1.844227 -0.419823,-0.316 -1.3131,-0.598425 -1.993256,-0.616009 z M 54.588348,77.27033 c -1.799278,-0.02006 -1.798781,0.0304 0.258589,2.034259 1.757386,1.711797 2.80919,1.959487 3.054297,0.752845 0.23499,-1.156753 -1.681918,-2.768922 -3.312886,-2.787104 z m -3.888694,1.206725 c -0.132623,0.03095 -0.338115,0.156465 -0.597894,0.368357 -0.597681,0.487468 -1.943591,0.409109 -4.153553,-0.265069 -1.35104,-0.412086 -1.123938,0.358643 0.662027,2.288773 1.854037,2.003792 2.301748,1.974832 3.566807,-0.366511 0.751777,-1.391356 0.920493,-2.11841 0.522613,-2.02555 z m -13.353372,0.78869 c -0.28075,-0.0033 -0.407446,0.104989 -0.410057,0.339199 -0.007,0.631561 2.700632,3.394967 3.615264,3.696782 2.316087,0.764066 2.261224,-1.867059 -0.0613,-2.907114 -1.724538,-0.772273 -2.675944,-1.123316 -3.143861,-1.128867 z m -7.390566,1.355196 c -0.544048,0.1385 -0.260345,0.94442 0.848469,2.384607 1.341313,1.74216 1.898122,2.146293 2.882381,2.157266 2.485996,0.02771 1.86806,-2.205313 -0.990776,-3.636271 -1.397687,-0.699613 -2.316927,-1.013324 -2.740074,-0.905602 z"
       id="path4004" />
  </g>
</svg>
