<?xml version="1.0" encoding="UTF-8" standalone="no"?>
<!-- Created with Inkscape (http://www.inkscape.org/) -->

<svg
   xmlns:dc="http://purl.org/dc/elements/1.1/"
   xmlns:cc="http://creativecommons.org/ns#"
   xmlns:rdf="http://www.w3.org/1999/02/22-rdf-syntax-ns#"
   xmlns:svg="http://www.w3.org/2000/svg"
   xmlns="http://www.w3.org/2000/svg"
   xmlns:sodipodi="http://sodipodi.sourceforge.net/DTD/sodipodi-0.dtd"
   xmlns:inkscape="http://www.inkscape.org/namespaces/inkscape"
   width="100"
   height="100"
   id="svg13986"
   version="1.1"
   inkscape:version="0.47 r22583"
   sodipodi:docname="kin.svg"
   style="display:inline">
  <defs
     id="defs13988">
    <inkscape:perspective
       sodipodi:type="inkscape:persp3d"
       inkscape:vp_x="0 : 526.18109 : 1"
       inkscape:vp_y="0 : 1000 : 0"
       inkscape:vp_z="744.09448 : 526.18109 : 1"
       inkscape:persp3d-origin="372.04724 : 350.78739 : 1"
       id="perspective13994" />
    <inkscape:perspective
       id="perspective14004"
       inkscape:persp3d-origin="0.5 : 0.33333333 : 1"
       inkscape:vp_z="1 : 0.5 : 1"
       inkscape:vp_y="0 : 1000 : 0"
       inkscape:vp_x="0 : 0.5 : 1"
       sodipodi:type="inkscape:persp3d" />
    <inkscape:perspective
       id="perspective3830"
       inkscape:persp3d-origin="0.5 : 0.33333333 : 1"
       inkscape:vp_z="1 : 0.5 : 1"
       inkscape:vp_y="0 : 1000 : 0"
       inkscape:vp_x="0 : 0.5 : 1"
       sodipodi:type="inkscape:persp3d" />
    <inkscape:perspective
       id="perspective3830-1"
       inkscape:persp3d-origin="0.5 : 0.33333333 : 1"
       inkscape:vp_z="1 : 0.5 : 1"
       inkscape:vp_y="0 : 1000 : 0"
       inkscape:vp_x="0 : 0.5 : 1"
       sodipodi:type="inkscape:persp3d" />
    <inkscape:perspective
       id="perspective3830-0"
       inkscape:persp3d-origin="0.5 : 0.33333333 : 1"
       inkscape:vp_z="1 : 0.5 : 1"
       inkscape:vp_y="0 : 1000 : 0"
       inkscape:vp_x="0 : 0.5 : 1"
       sodipodi:type="inkscape:persp3d" />
    <inkscape:perspective
       id="perspective3830-2"
       inkscape:persp3d-origin="0.5 : 0.33333333 : 1"
       inkscape:vp_z="1 : 0.5 : 1"
       inkscape:vp_y="0 : 1000 : 0"
       inkscape:vp_x="0 : 0.5 : 1"
       sodipodi:type="inkscape:persp3d" />
    <inkscape:perspective
       id="perspective3830-4"
       inkscape:persp3d-origin="0.5 : 0.33333333 : 1"
       inkscape:vp_z="1 : 0.5 : 1"
       inkscape:vp_y="0 : 1000 : 0"
       inkscape:vp_x="0 : 0.5 : 1"
       sodipodi:type="inkscape:persp3d" />
    <inkscape:perspective
       id="perspective3830-44"
       inkscape:persp3d-origin="0.5 : 0.33333333 : 1"
       inkscape:vp_z="1 : 0.5 : 1"
       inkscape:vp_y="0 : 1000 : 0"
       inkscape:vp_x="0 : 0.5 : 1"
       sodipodi:type="inkscape:persp3d" />
    <inkscape:perspective
       id="perspective3830-11"
       inkscape:persp3d-origin="0.5 : 0.33333333 : 1"
       inkscape:vp_z="1 : 0.5 : 1"
       inkscape:vp_y="0 : 1000 : 0"
       inkscape:vp_x="0 : 0.5 : 1"
       sodipodi:type="inkscape:persp3d" />
    <inkscape:perspective
       id="perspective3830-19"
       inkscape:persp3d-origin="0.5 : 0.33333333 : 1"
       inkscape:vp_z="1 : 0.5 : 1"
       inkscape:vp_y="0 : 1000 : 0"
       inkscape:vp_x="0 : 0.5 : 1"
       sodipodi:type="inkscape:persp3d" />
    <inkscape:perspective
       id="perspective3830-5"
       inkscape:persp3d-origin="0.5 : 0.33333333 : 1"
       inkscape:vp_z="1 : 0.5 : 1"
       inkscape:vp_y="0 : 1000 : 0"
       inkscape:vp_x="0 : 0.5 : 1"
       sodipodi:type="inkscape:persp3d" />
    <inkscape:perspective
       id="perspective3830-53"
       inkscape:persp3d-origin="0.5 : 0.33333333 : 1"
       inkscape:vp_z="1 : 0.5 : 1"
       inkscape:vp_y="0 : 1000 : 0"
       inkscape:vp_x="0 : 0.5 : 1"
       sodipodi:type="inkscape:persp3d" />
    <inkscape:perspective
       id="perspective3830-04"
       inkscape:persp3d-origin="0.5 : 0.33333333 : 1"
       inkscape:vp_z="1 : 0.5 : 1"
       inkscape:vp_y="0 : 1000 : 0"
       inkscape:vp_x="0 : 0.5 : 1"
       sodipodi:type="inkscape:persp3d" />
    <inkscape:perspective
       id="perspective3830-6"
       inkscape:persp3d-origin="0.5 : 0.33333333 : 1"
       inkscape:vp_z="1 : 0.5 : 1"
       inkscape:vp_y="0 : 1000 : 0"
       inkscape:vp_x="0 : 0.5 : 1"
       sodipodi:type="inkscape:persp3d" />
    <inkscape:perspective
       id="perspective3830-55"
       inkscape:persp3d-origin="0.5 : 0.33333333 : 1"
       inkscape:vp_z="1 : 0.5 : 1"
       inkscape:vp_y="0 : 1000 : 0"
       inkscape:vp_x="0 : 0.5 : 1"
       sodipodi:type="inkscape:persp3d" />
    <inkscape:perspective
       id="perspective3830-40"
       inkscape:persp3d-origin="0.5 : 0.33333333 : 1"
       inkscape:vp_z="1 : 0.5 : 1"
       inkscape:vp_y="0 : 1000 : 0"
       inkscape:vp_x="0 : 0.5 : 1"
       sodipodi:type="inkscape:persp3d" />
    <inkscape:perspective
       id="perspective5074"
       inkscape:persp3d-origin="0.5 : 0.33333333 : 1"
       inkscape:vp_z="1 : 0.5 : 1"
       inkscape:vp_y="0 : 1000 : 0"
       inkscape:vp_x="0 : 0.5 : 1"
       sodipodi:type="inkscape:persp3d" />
    <inkscape:perspective
       id="perspective5809"
       inkscape:persp3d-origin="0.5 : 0.33333333 : 1"
       inkscape:vp_z="1 : 0.5 : 1"
       inkscape:vp_y="0 : 1000 : 0"
       inkscape:vp_x="0 : 0.5 : 1"
       sodipodi:type="inkscape:persp3d" />
  </defs>
  <sodipodi:namedview
     id="base"
     pagecolor="#ffffff"
     bordercolor="#666666"
     borderopacity="1.0"
     inkscape:pageopacity="0.0"
     inkscape:pageshadow="2"
     inkscape:zoom="2"
     inkscape:cx="-13.954429"
     inkscape:cy="22.395734"
     inkscape:document-units="px"
     inkscape:current-layer="layer7"
     showgrid="false"
     showguides="true"
     inkscape:guide-bbox="true"
     inkscape:snap-global="false"
     inkscape:window-width="1920"
     inkscape:window-height="1122"
     inkscape:window-x="0"
     inkscape:window-y="24"
     inkscape:window-maximized="1">
    <sodipodi:guide
       orientation="0,1"
       position="105.48232,6.0037368"
       id="guide2865" />
    <sodipodi:guide
       orientation="1,0"
       position="50,22.169811"
       id="guide2957" />
  </sodipodi:namedview>
  <metadata
     id="metadata13991">
    <rdf:RDF>
      <cc:Work
         rdf:about="">
        <dc:format>image/svg+xml</dc:format>
        <dc:type
           rdf:resource="http://purl.org/dc/dcmitype/StillImage" />
        <dc:title />
      </cc:Work>
    </rdf:RDF>
  </metadata>
  <g
     inkscape:groupmode="layer"
     id="layer7"
     inkscape:label="pieces_0.5_opt_single"
     style="display:inline">
    <path
       style="fill:#e6c679;fill-opacity:1;stroke:#000000;stroke-width:1px;stroke-linecap:butt;stroke-linejoin:miter;stroke-opacity:1"
       d="M 25.485068,16.80795 13.229987,93.485954 86.773385,93.507844 74.192881,16.553794 50.000649,8.6193757 25.485068,16.80795 z"
       id="path5825"
       sodipodi:nodetypes="cccccc" />
    <path
       style="fill:#000000;display:inline"
       d="m 45.137347,15.558645 c -1.098313,-0.01221 -1.264023,0.46736 -0.388523,1.214507 0.906181,0.773339 0.709958,2.09964 -0.67706,4.680263 -2.790466,5.191847 -8.829457,12.489428 -12.258676,14.770916 -1.018554,0.677661 -1.027398,0.686073 -0.101682,0.717664 3.332071,0.113801 8.933108,-5.465592 15.010937,-14.959087 1.101643,-1.720743 2.13135,-3.132755 2.284941,-3.131048 0.405575,0.0045 2.002479,1.323928 7.184603,5.923968 5.66801,5.031337 6.763962,5.595072 11.156581,5.655597 4.765743,0.06573 4.486971,-0.720215 -0.999928,-2.823788 -4.177258,-1.601486 -5.184424,-2.138293 -9.134487,-4.820571 -1.76603,-1.199223 -4.238795,-2.675457 -5.494786,-3.311276 -1.255991,-0.635819 -2.349358,-1.505964 -2.447758,-1.902322 -0.200067,-0.805774 -2.657864,-1.998414 -4.134112,-2.014823 l -5e-5,0 z m 6.531139,14.10471 c -0.600585,-0.02358 -1.652883,0.257383 -3.97962,0.955828 -2.272602,0.682194 -4.407457,1.138665 -4.730267,1.009989 -0.3228,-0.128666 -0.5931,-0.06178 -0.59545,0.149641 -0.0047,0.421214 1.359468,1.415787 3.348048,2.443612 2.571168,1.328929 1.165864,2.743988 -3.761241,3.802182 -2.367337,0.50843 -2.674501,0.981235 -1.207919,1.830437 0.993776,0.575431 1.251981,0.55569 3.786574,-0.457943 2.163841,-0.865353 2.808703,-0.982474 3.06891,-0.559675 0.53448,0.868474 0.348739,6.282184 -0.230915,6.716598 -1.104286,0.827568 -5.897646,2.209888 -7.712727,2.226916 -2.216869,0.02085 -2.347104,0.231128 -0.82808,1.397133 1.528128,1.172956 2.516316,1.100385 6.161775,-0.462795 2.866699,-1.229285 5.796783,-1.963724 9.15118,-2.304683 0.668016,-0.0679 2.20136,0.120164 3.401872,0.412835 2.421578,0.59033 3.366745,0.434786 3.193555,-0.527039 -0.342678,-1.903296 -5.325981,-2.891583 -9.136582,-1.820409 -1.964168,0.552134 -1.415354,-0.199163 1.110354,-1.487751 4.111206,-2.097506 4.588527,-3.805327 1.367296,-4.922607 -1.626939,-0.564288 -2.209448,-0.302166 -1.60164,0.700992 0.582235,0.96096 0.113398,2.647794 -1.009675,3.676505 -1.219641,1.117163 -1.436089,0.633498 -1.129087,-2.4502 0.262805,-2.639753 0.273965,-2.632418 2.501593,-2.941129 3.820371,-0.529451 4.038204,-0.603245 4.047325,-1.423854 0.01114,-1.002208 -1.029177,-1.331241 -3.924058,-1.23119 -3.52174,0.121706 -5.420253,-1.301182 -2.541502,-1.903364 1.769854,-0.370232 2.79404,-1.658039 1.996414,-2.477964 -0.208293,-0.214114 -0.385778,-0.33792 -0.746133,-0.352065 z m -9.38558,12.146436 c -0.694668,-0.02376 -0.41678,0.53214 0.790916,1.946411 1.564711,1.832363 2.553023,1.916877 2.935235,0.220136 0.405639,-1.800725 1.659416,-3.600138 -0.480866,-1.724201 -0.323482,0.283527 -1.41185,0.02089 -2.216529,-0.212148 -0.447976,-0.129732 -0.797199,-0.222278 -1.028756,-0.230198 z m 14.09632,8.282183 c -0.626828,0.0035 -0.808724,0.43585 -0.639896,1.33672 0.180752,0.964469 -0.04745,1.354006 -1.559983,2.576571 -0.975979,0.788901 -2.214275,1.812802 -2.775532,2.281793 -1.020482,0.852811 -1.035201,0.856247 0.180542,0.627045 1.318574,-0.24856 7.862708,-3.342768 8.199856,-3.877853 0.467778,-0.742247 -0.359939,-1.911369 -1.753702,-2.488395 -0.720509,-0.29824 -1.275188,-0.45799 -1.651285,-0.455881 z m -15.633771,3.513958 c -0.189919,0.0043 -0.359699,0.01235 -0.531912,0.05659 -1.371101,0.352383 -1.639146,1.091 -0.516293,1.463102 0.848557,0.281249 0.875328,0.445957 0.659661,5.32016 -0.254279,5.74693 0.06967,5.10884 -5.439639,11.409 -3.242097,3.70749 -3.953996,4.27387 -3.941089,3.11264 0.01337,-1.20313 -0.712527,-0.59801 -1.419708,1.20304 -0.744264,1.89555 -0.472414,3.02619 0.747511,3.03975 0.279133,0.003 0.751115,0.29797 1.02424,0.63642 0.848359,1.05119 1.514241,0.70557 2.388746,-1.22353 0.463194,-1.02171 1.664951,-3.08683 2.644646,-4.56463 0.979686,-1.47781 2.111864,-3.18628 2.511319,-3.81608 1.042546,-1.64401 1.07903,-1.47595 1.245385,6.04547 0.165555,7.4854 0.232859,7.24608 -2.473829,6.06663 -1.19432,-0.52041 -0.778616,0.30391 1.284286,2.54568 2.739008,2.97642 4.409926,1.87653 3.935184,-2.58142 -0.622961,-5.84989 -0.561645,-16.62447 0.108447,-18.18742 0.494306,-1.15308 0.577397,-1.65739 0.239576,-1.87245 -0.346529,-0.22067 -0.334775,-0.93718 0.06315,-2.874481 0.867379,-4.22212 0.833934,-4.51786 -0.660008,-5.288912 -0.642696,-0.331463 -1.299917,-0.50242 -1.869675,-0.48956 z m 20.164719,2.161751 c -0.257116,0.09093 -0.218397,0.491603 0.143042,1.189163 0.27724,0.535114 0.385806,1.339571 0.22984,1.815166 -0.316619,0.965441 -4.544778,4.680222 -8.836637,7.746012 -1.550969,1.10783 -2.804694,2.09371 -2.805738,2.1877 -0.01068,0.96104 15.271741,-7.69079 15.756354,-8.919175 0.337314,-0.855104 -0.954855,-2.479165 -2.71232,-3.405356 -0.937288,-0.493948 -1.517424,-0.704433 -1.774541,-0.61351 z m -6.863819,1.767572 c -0.379191,0.0088 -0.661474,0.10828 -0.784675,0.303798 -0.109182,0.173197 0.571854,1.169778 1.537744,2.235981 1.965401,2.16928 2.486307,2.39023 2.769616,1.0621 0.107076,-0.50194 0.323823,-1.412842 0.460049,-2.026266 0.240238,-1.081797 -0.283725,-1.5541 -0.804461,-0.727736 -0.162771,0.258307 -0.574785,0.163671 -1.122499,-0.23124 -0.576745,-0.415748 -1.423782,-0.631302 -2.055774,-0.616637 z m -3.188356,2.870989 c -0.05384,-0.033 -0.152665,0.0743 -0.284359,0.27811 -0.209048,0.3235 -0.96908,0.50301 -1.911342,0.44753 -2.822587,-0.16528 -2.825561,-0.0741 -0.368388,2.2148 2.683364,2.49957 2.710868,2.50208 3.419227,1.6631 0.407995,-0.48319 0.37847,-0.8518 -0.134359,-1.97036 -0.35115,-0.76585 -0.633839,-1.75001 -0.632245,-2.16341 0.0012,-0.28396 -0.03465,-0.43675 -0.08848,-0.46977 l -5e-5,0 z m -19.079383,1.41304 c -1.080657,0.0701 -0.693396,0.63453 1.136034,1.82523 1.232858,0.80236 1.795738,1.48115 1.789464,2.08252 -0.0091,0.88085 0.001,0.88097 1.6249,0.0181 2.893771,-1.53783 1.532786,-3.26802 -2.989037,-3.81471 -0.688038,-0.0832 -1.201139,-0.13449 -1.561361,-0.11111 z m 26.052196,3.88354 c -0.525134,0.0235 -0.950636,0.15989 -1.098198,0.39407 -0.140914,0.22364 0.05269,0.52276 0.398931,0.66072 1.197788,0.47744 0.586629,1.23605 -1.331521,1.70406 -2.708704,0.66093 -3.935593,1.03912 -7.180816,2.17032 -1.563002,0.54486 -3.149524,1.01756 -3.511592,1.02354 -0.362064,0.006 -0.893699,0.26213 -1.162778,0.58086 -0.804124,0.95232 2.401489,1.7769 4.300425,1.11036 1.433742,-0.50329 1.455827,-0.48745 3.513665,1.60165 2.226387,2.26019 3.163139,2.56932 3.860868,1.29299 0.605058,-1.10674 -0.883408,-2.63863 -3.244578,-3.31751 -1.759565,-0.50599 -1.779406,-0.48626 0.860022,-1.45928 4.968585,-1.83169 5.18071,-1.79228 5.455561,1.21696 0.410449,4.49384 -0.0048,10.73011 -0.712498,10.68024 -0.333369,-0.0235 -1.511269,-0.16146 -2.621712,-0.31041 -1.373358,-0.18418 -1.848379,-0.16415 -1.4388,0.10902 0.331175,0.22089 1.791779,1.14098 3.22757,2.03599 4.636685,2.89012 4.62401,2.92653 4.740362,-7.54153 0.09389,-8.44707 0.08381,-8.44019 2.407524,-8.53627 1.67086,-0.069 2.839043,0.11987 4.1796,0.734 2.961594,1.3567 4.111906,1.07412 3.635543,-0.9284 -0.367302,-1.54398 -3.556536,-2.45118 -7.539109,-2.14642 -2.564308,0.19611 -3.335219,0.10104 -4.058082,-0.42013 -0.628364,-0.45301 -1.805158,-0.69401 -2.680387,-0.65483 z"
       id="path4010"
       sodipodi:nodetypes="csssssssssssscccssssssssssssssssssssssssssccssssccssssssccsssssssssssssssssssccssssssccssssssccsssssscccssssccssssssssssssssssssssssc" />
  </g>
</svg>
