<?xml version="1.0" encoding="UTF-8" standalone="no"?>
<!-- Created with Inkscape (http://www.inkscape.org/) -->

<svg
   xmlns:dc="http://purl.org/dc/elements/1.1/"
   xmlns:cc="http://creativecommons.org/ns#"
   xmlns:rdf="http://www.w3.org/1999/02/22-rdf-syntax-ns#"
   xmlns:svg="http://www.w3.org/2000/svg"
   xmlns="http://www.w3.org/2000/svg"
   xmlns:sodipodi="http://sodipodi.sourceforge.net/DTD/sodipodi-0.dtd"
   xmlns:inkscape="http://www.inkscape.org/namespaces/inkscape"
   width="100"
   height="100"
   id="svg13986"
   version="1.1"
   inkscape:version="0.47 r22583"
   sodipodi:docname="kyousha.svg"
   style="display:inline">
  <defs
     id="defs13988">
    <inkscape:perspective
       sodipodi:type="inkscape:persp3d"
       inkscape:vp_x="0 : 526.18109 : 1"
       inkscape:vp_y="0 : 1000 : 0"
       inkscape:vp_z="744.09448 : 526.18109 : 1"
       inkscape:persp3d-origin="372.04724 : 350.78739 : 1"
       id="perspective13994" />
    <inkscape:perspective
       id="perspective14004"
       inkscape:persp3d-origin="0.5 : 0.33333333 : 1"
       inkscape:vp_z="1 : 0.5 : 1"
       inkscape:vp_y="0 : 1000 : 0"
       inkscape:vp_x="0 : 0.5 : 1"
       sodipodi:type="inkscape:persp3d" />
    <inkscape:perspective
       id="perspective3830"
       inkscape:persp3d-origin="0.5 : 0.33333333 : 1"
       inkscape:vp_z="1 : 0.5 : 1"
       inkscape:vp_y="0 : 1000 : 0"
       inkscape:vp_x="0 : 0.5 : 1"
       sodipodi:type="inkscape:persp3d" />
    <inkscape:perspective
       id="perspective3830-1"
       inkscape:persp3d-origin="0.5 : 0.33333333 : 1"
       inkscape:vp_z="1 : 0.5 : 1"
       inkscape:vp_y="0 : 1000 : 0"
       inkscape:vp_x="0 : 0.5 : 1"
       sodipodi:type="inkscape:persp3d" />
    <inkscape:perspective
       id="perspective3830-0"
       inkscape:persp3d-origin="0.5 : 0.33333333 : 1"
       inkscape:vp_z="1 : 0.5 : 1"
       inkscape:vp_y="0 : 1000 : 0"
       inkscape:vp_x="0 : 0.5 : 1"
       sodipodi:type="inkscape:persp3d" />
    <inkscape:perspective
       id="perspective3830-2"
       inkscape:persp3d-origin="0.5 : 0.33333333 : 1"
       inkscape:vp_z="1 : 0.5 : 1"
       inkscape:vp_y="0 : 1000 : 0"
       inkscape:vp_x="0 : 0.5 : 1"
       sodipodi:type="inkscape:persp3d" />
    <inkscape:perspective
       id="perspective3830-4"
       inkscape:persp3d-origin="0.5 : 0.33333333 : 1"
       inkscape:vp_z="1 : 0.5 : 1"
       inkscape:vp_y="0 : 1000 : 0"
       inkscape:vp_x="0 : 0.5 : 1"
       sodipodi:type="inkscape:persp3d" />
    <inkscape:perspective
       id="perspective3830-44"
       inkscape:persp3d-origin="0.5 : 0.33333333 : 1"
       inkscape:vp_z="1 : 0.5 : 1"
       inkscape:vp_y="0 : 1000 : 0"
       inkscape:vp_x="0 : 0.5 : 1"
       sodipodi:type="inkscape:persp3d" />
    <inkscape:perspective
       id="perspective3830-11"
       inkscape:persp3d-origin="0.5 : 0.33333333 : 1"
       inkscape:vp_z="1 : 0.5 : 1"
       inkscape:vp_y="0 : 1000 : 0"
       inkscape:vp_x="0 : 0.5 : 1"
       sodipodi:type="inkscape:persp3d" />
    <inkscape:perspective
       id="perspective3830-19"
       inkscape:persp3d-origin="0.5 : 0.33333333 : 1"
       inkscape:vp_z="1 : 0.5 : 1"
       inkscape:vp_y="0 : 1000 : 0"
       inkscape:vp_x="0 : 0.5 : 1"
       sodipodi:type="inkscape:persp3d" />
    <inkscape:perspective
       id="perspective3830-5"
       inkscape:persp3d-origin="0.5 : 0.33333333 : 1"
       inkscape:vp_z="1 : 0.5 : 1"
       inkscape:vp_y="0 : 1000 : 0"
       inkscape:vp_x="0 : 0.5 : 1"
       sodipodi:type="inkscape:persp3d" />
    <inkscape:perspective
       id="perspective3830-53"
       inkscape:persp3d-origin="0.5 : 0.33333333 : 1"
       inkscape:vp_z="1 : 0.5 : 1"
       inkscape:vp_y="0 : 1000 : 0"
       inkscape:vp_x="0 : 0.5 : 1"
       sodipodi:type="inkscape:persp3d" />
    <inkscape:perspective
       id="perspective3830-04"
       inkscape:persp3d-origin="0.5 : 0.33333333 : 1"
       inkscape:vp_z="1 : 0.5 : 1"
       inkscape:vp_y="0 : 1000 : 0"
       inkscape:vp_x="0 : 0.5 : 1"
       sodipodi:type="inkscape:persp3d" />
    <inkscape:perspective
       id="perspective3830-6"
       inkscape:persp3d-origin="0.5 : 0.33333333 : 1"
       inkscape:vp_z="1 : 0.5 : 1"
       inkscape:vp_y="0 : 1000 : 0"
       inkscape:vp_x="0 : 0.5 : 1"
       sodipodi:type="inkscape:persp3d" />
    <inkscape:perspective
       id="perspective3830-55"
       inkscape:persp3d-origin="0.5 : 0.33333333 : 1"
       inkscape:vp_z="1 : 0.5 : 1"
       inkscape:vp_y="0 : 1000 : 0"
       inkscape:vp_x="0 : 0.5 : 1"
       sodipodi:type="inkscape:persp3d" />
    <inkscape:perspective
       id="perspective3830-40"
       inkscape:persp3d-origin="0.5 : 0.33333333 : 1"
       inkscape:vp_z="1 : 0.5 : 1"
       inkscape:vp_y="0 : 1000 : 0"
       inkscape:vp_x="0 : 0.5 : 1"
       sodipodi:type="inkscape:persp3d" />
    <inkscape:perspective
       id="perspective5074"
       inkscape:persp3d-origin="0.5 : 0.33333333 : 1"
       inkscape:vp_z="1 : 0.5 : 1"
       inkscape:vp_y="0 : 1000 : 0"
       inkscape:vp_x="0 : 0.5 : 1"
       sodipodi:type="inkscape:persp3d" />
    <inkscape:perspective
       id="perspective5809"
       inkscape:persp3d-origin="0.5 : 0.33333333 : 1"
       inkscape:vp_z="1 : 0.5 : 1"
       inkscape:vp_y="0 : 1000 : 0"
       inkscape:vp_x="0 : 0.5 : 1"
       sodipodi:type="inkscape:persp3d" />
  </defs>
  <sodipodi:namedview
     id="base"
     pagecolor="#ffffff"
     bordercolor="#666666"
     borderopacity="1.0"
     inkscape:pageopacity="0.0"
     inkscape:pageshadow="2"
     inkscape:zoom="4"
     inkscape:cx="86.24545"
     inkscape:cy="18.639236"
     inkscape:document-units="px"
     inkscape:current-layer="layer7"
     showgrid="false"
     showguides="true"
     inkscape:guide-bbox="true"
     inkscape:snap-global="false"
     inkscape:window-width="1920"
     inkscape:window-height="1122"
     inkscape:window-x="0"
     inkscape:window-y="24"
     inkscape:window-maximized="1">
    <sodipodi:guide
       orientation="0,1"
       position="105.48232,6.0037368"
       id="guide2865" />
    <sodipodi:guide
       orientation="1,0"
       position="50,22.169811"
       id="guide2957" />
  </sodipodi:namedview>
  <metadata
     id="metadata13991">
    <rdf:RDF>
      <cc:Work
         rdf:about="">
        <dc:format>image/svg+xml</dc:format>
        <dc:type
           rdf:resource="http://purl.org/dc/dcmitype/StillImage" />
        <dc:title />
      </cc:Work>
    </rdf:RDF>
  </metadata>
  <g
     inkscape:groupmode="layer"
     id="layer7"
     inkscape:label="pieces_0.5_opt_single"
     style="display:inline">
    <path
       style="fill:#e6c679;fill-opacity:1;stroke:#000000;stroke-width:1px;stroke-linecap:butt;stroke-linejoin:miter;stroke-opacity:1"
       d="m 16.364789,93.493542 67.267246,0.0067 -11.789781,-71.81211 -21.850598,-6.654257 -22.353277,7.334282 -11.27359,71.125385 z"
       id="path5837"
       sodipodi:nodetypes="cccccc" />
    <path
       style="fill:#000000;display:inline"
       d="m 49.258199,22.265193 c -0.426188,0.06251 -0.614068,0.507258 -0.638893,1.305794 -0.04841,1.555904 -2.65465,3.468046 -6.866167,5.021174 -2.580363,0.951542 -1.968352,1.633215 0.926504,1.04114 2.449133,-0.50092 4.54784,0.626324 4.909699,2.645997 0.236978,1.322609 0.730111,1.139362 -6.494914,2.431218 -6.519367,1.165676 -6.776271,1.287167 -5.150577,2.382979 0.897501,0.604958 1.305766,0.644332 3.279076,0.222308 6.809376,-1.456285 0.742864,4.603312 -7.83346,7.823567 -1.624062,0.609801 -1.612524,0.615674 1.151211,0.480993 2.107578,-0.102641 3.379907,-0.44354 5.390614,-1.44288 2.636704,-1.310394 2.641864,-1.32078 3.595206,-0.118106 0.576653,0.72749 1.175195,2.418306 1.548562,4.266672 0.339485,1.680697 0.79086,3.442986 0.98941,3.948221 0.338801,0.862144 1.579586,1.343188 1.58736,0.610629 0.002,-0.18429 1.925894,-0.28983 4.252745,-0.236136 4.644102,0.107386 4.240965,0.588435 5.758143,-6.626772 0.164206,-0.780901 0.554183,-1.763368 0.897831,-2.146843 1.374959,-1.534347 -1.569773,-3.285663 -4.906714,-2.927232 -2.255197,0.242233 -2.26301,0.227359 -1.740617,-0.893521 0.654069,-1.403408 3.688692,-1.249958 10.370105,0.51632 3.876096,1.024668 4.234,1.051568 5.151649,0.460942 0.934566,-0.601507 0.839407,-2.236219 -0.132365,-2.251531 -0.158962,-0.0025 -1.93294,-0.283627 -3.930978,-0.635499 -1.998039,-0.351862 -5.203639,-0.645004 -7.149547,-0.669654 -3.538015,-0.04465 -3.530894,-0.05227 -3.518119,-1.256153 0.01706,-1.607559 2.168312,-2.214596 6.519862,-1.837169 3.544508,0.30744 5.089605,-0.231655 3.795628,-1.334798 -0.711028,-0.606179 -5.303716,-0.8889 -8.276473,-0.494102 -1.244354,0.165265 -1.415969,0.09138 -1.523537,-0.734958 -0.128251,-0.985317 -2.159718,-2.552312 -3.34795,-2.566921 -1.573024,-0.02019 -0.975283,-0.795584 1.267173,-1.611645 3.871036,-1.408712 4.720557,-3.040249 2.297625,-4.475871 -1.07536,-0.637167 -1.751905,-0.960673 -2.178092,-0.898163 z m -3.11051,13.342745 c 0.994797,-0.05945 1.52772,0.340793 1.518895,1.172433 -0.01298,1.223272 -1.223101,1.893438 -1.980577,1.104046 -0.171731,-0.178962 -0.912479,-0.537433 -1.616619,-0.798449 -1.280236,-0.474552 -1.261481,-0.469323 -0.209452,-0.877272 0.930079,-0.360662 1.690871,-0.565093 2.287753,-0.600758 z m 0.561883,3.006131 c 0.552697,0.04281 0.939015,0.644339 1.013617,1.6671 0.105976,1.453097 0.111563,1.428034 -2.239185,1.913847 -1.292918,0.267206 -2.756144,0.603968 -3.257775,0.715471 -1.443416,0.320862 -1.050886,-0.469598 0.926095,-1.865278 1.001055,-0.706717 2.081752,-1.572368 2.426674,-1.911857 0.391764,-0.385591 0.798958,-0.544969 1.130574,-0.519283 z m 4.733893,4.487986 c 1.351494,-0.06393 1.589703,0.389841 1.578406,1.454331 -0.01414,1.332215 -0.06609,1.402778 -1.137537,1.175495 -0.624879,-0.132538 -1.950789,-0.05855 -2.939656,0.187567 -0.988867,0.246121 -2.078479,0.539225 -2.413078,0.63068 -0.357786,0.09761 -0.858916,-0.326333 -1.239319,-1.013208 -0.646803,-1.167929 -0.671071,-1.157876 2.331603,-1.787859 1.778359,-0.373109 3.008688,-0.608644 3.819581,-0.647006 z m 0.799267,4.196218 c 0.26442,0.01181 0.344517,0.283021 0.333451,0.972343 -0.02618,1.618813 -0.544801,2.307049 -1.521138,1.98397 -0.446747,-0.147749 -1.624505,0.01826 -2.597583,0.347456 -2.608218,0.882173 -2.789867,0.797241 -2.767166,-1.341939 0.01363,-1.284628 0.09802,-1.386588 1.012213,-1.145574 0.917015,0.241845 3.603619,-0.150469 5.227078,-0.757076 0.134149,-0.0501 0.225002,-0.06311 0.313145,-0.05918 z m -4.648128,8.04488 c -0.439726,0.02645 -0.84376,0.123697 -1.159833,0.331461 -0.514216,0.338063 -0.441852,0.538842 0.486708,1.255235 1.23348,0.951743 1.511952,2.988612 0.464159,3.380116 -0.337518,0.126126 -2.153583,0.422321 -4.03865,0.675933 -3.427387,0.461156 -3.419478,0.471641 -2.325634,1.22539 0.863328,0.594695 1.723647,0.730332 4.118135,0.668737 2.744668,-0.07098 3.031496,-0.0071 3.024116,0.688379 -0.0095,0.896549 -0.340166,1.104152 -3.868072,2.271582 -2.92334,0.967334 -3.393323,0.978348 -6.161873,0.497142 -2.093707,-0.363837 -2.584005,0.142289 -0.916147,0.927831 0.658487,0.310105 1.54778,1.678119 2.676152,4.028625 2.035944,4.240842 3.052632,5.062477 5.391432,4.369956 2.750498,-0.81446 3.164671,-0.776763 3.152757,0.345974 -0.01028,0.968946 -0.286432,1.091822 -6.685057,2.679214 -3.679603,0.912806 -7.731086,1.705809 -8.987809,1.748476 -2.714713,0.0923 -2.709449,0.935401 0.0093,2.062715 1.536506,0.63714 1.721749,0.609504 4.284988,-0.32955 2.68271,-0.982788 9.253455,-2.52695 10.683505,-2.511775 0.677512,0.0072 0.782811,0.40833 0.899644,3.572248 0.07239,1.961178 0.25904,3.789762 0.425615,4.067245 0.166584,0.277583 0.558931,0.537211 0.869314,0.540505 0.620375,0.0066 0.872148,-1.044104 1.279033,-5.674247 0.146089,-1.662444 0.330852,-3.106414 0.440383,-3.214258 0.850176,-0.836726 11.469442,-0.449219 14.682693,0.530833 2.068123,0.630781 3.488314,-0.171244 2.672349,-1.502978 -1.228445,-2.004848 -7.690374,-2.700757 -15.608203,-1.665717 -1.859063,0.242986 -1.939976,0.223027 -1.929432,-0.770518 0.01296,-1.221231 0.672781,-1.524196 3.234817,-1.497008 1.565892,0.01662 2.0904,-0.187729 2.949272,-1.093766 1.4576,-1.537719 5.260638,-6.864464 5.26613,-7.382035 0.01146,-1.080139 -2.990237,-1.795331 -7.356678,-1.765664 -4.060981,0.02751 -4.374955,-0.02747 -4.367127,-0.765134 0.01081,-1.019042 0.923888,-1.468829 3.675609,-1.804848 4.458008,-0.544425 4.164938,-2.347787 -0.352098,-2.160108 -2.651118,0.110074 -2.650752,0.101978 -2.520496,-1.026804 0.163338,-1.415346 -2.50359,-2.817825 -4.409064,-2.703188 z m 8.510111,10.872165 c 2.156878,-0.01944 1.986391,0.3864 0.648332,3.694588 -0.859631,2.125298 -0.879781,2.115784 -3.084877,2.092383 -2.055494,-0.02181 -2.182259,-0.07671 -2.052767,-0.928085 0.111075,-0.730262 0.469936,-0.957467 1.761839,-1.106366 1.953427,-0.224985 2.478904,-1.400825 0.832019,-1.835025 -0.56874,-0.150043 -1.261872,-0.191201 -1.561749,-0.07908 -0.299886,0.112025 -0.811924,0.03004 -1.123279,-0.168179 -1.187955,-0.755948 0.505204,-1.558226 3.486462,-1.650596 0.406666,-0.0126 0.785893,-0.01686 1.09402,-0.01964 z m -8.450289,1.160397 c 0.270841,-0.05053 0.466077,0.25436 0.461428,0.692435 -0.0069,0.645964 -0.447657,0.896401 -2.420042,1.286893 -3.20857,0.635088 -3.316418,0.629644 -3.529061,-0.224961 -0.15334,-0.616262 0.213379,-0.802631 2.387798,-1.193479 1.423686,-0.255908 2.829039,-0.510759 3.099877,-0.560888 z m 0.02502,3.531714 c 1.36728,0.04875 0.941585,1.626383 -0.96066,2.177429 -2.139035,0.619637 -3.152414,0.573631 -3.435648,-0.192718 -0.459387,-1.242944 -0.22539,-1.615482 1.079684,-1.613634 0.722852,7.71e-4 1.903816,-0.145056 2.628499,-0.315875 0.269811,-0.06363 0.492798,-0.06216 0.688125,-0.0552 z"
       id="path4002" />
  </g>
</svg>
