<?xml version="1.0" encoding="UTF-8" standalone="no"?>
<!-- Created with Inkscape (http://www.inkscape.org/) -->

<svg
   xmlns:dc="http://purl.org/dc/elements/1.1/"
   xmlns:cc="http://creativecommons.org/ns#"
   xmlns:rdf="http://www.w3.org/1999/02/22-rdf-syntax-ns#"
   xmlns:svg="http://www.w3.org/2000/svg"
   xmlns="http://www.w3.org/2000/svg"
   xmlns:sodipodi="http://sodipodi.sourceforge.net/DTD/sodipodi-0.dtd"
   xmlns:inkscape="http://www.inkscape.org/namespaces/inkscape"
   width="100"
   height="100"
   id="svg13986"
   version="1.1"
   inkscape:version="0.47 r22583"
   sodipodi:docname="narikyou.svg"
   style="display:inline">
  <defs
     id="defs13988">
    <inkscape:perspective
       sodipodi:type="inkscape:persp3d"
       inkscape:vp_x="0 : 526.18109 : 1"
       inkscape:vp_y="0 : 1000 : 0"
       inkscape:vp_z="744.09448 : 526.18109 : 1"
       inkscape:persp3d-origin="372.04724 : 350.78739 : 1"
       id="perspective13994" />
    <inkscape:perspective
       id="perspective14004"
       inkscape:persp3d-origin="0.5 : 0.33333333 : 1"
       inkscape:vp_z="1 : 0.5 : 1"
       inkscape:vp_y="0 : 1000 : 0"
       inkscape:vp_x="0 : 0.5 : 1"
       sodipodi:type="inkscape:persp3d" />
    <inkscape:perspective
       id="perspective3830"
       inkscape:persp3d-origin="0.5 : 0.33333333 : 1"
       inkscape:vp_z="1 : 0.5 : 1"
       inkscape:vp_y="0 : 1000 : 0"
       inkscape:vp_x="0 : 0.5 : 1"
       sodipodi:type="inkscape:persp3d" />
    <inkscape:perspective
       id="perspective3830-1"
       inkscape:persp3d-origin="0.5 : 0.33333333 : 1"
       inkscape:vp_z="1 : 0.5 : 1"
       inkscape:vp_y="0 : 1000 : 0"
       inkscape:vp_x="0 : 0.5 : 1"
       sodipodi:type="inkscape:persp3d" />
    <inkscape:perspective
       id="perspective3830-0"
       inkscape:persp3d-origin="0.5 : 0.33333333 : 1"
       inkscape:vp_z="1 : 0.5 : 1"
       inkscape:vp_y="0 : 1000 : 0"
       inkscape:vp_x="0 : 0.5 : 1"
       sodipodi:type="inkscape:persp3d" />
    <inkscape:perspective
       id="perspective3830-2"
       inkscape:persp3d-origin="0.5 : 0.33333333 : 1"
       inkscape:vp_z="1 : 0.5 : 1"
       inkscape:vp_y="0 : 1000 : 0"
       inkscape:vp_x="0 : 0.5 : 1"
       sodipodi:type="inkscape:persp3d" />
    <inkscape:perspective
       id="perspective3830-4"
       inkscape:persp3d-origin="0.5 : 0.33333333 : 1"
       inkscape:vp_z="1 : 0.5 : 1"
       inkscape:vp_y="0 : 1000 : 0"
       inkscape:vp_x="0 : 0.5 : 1"
       sodipodi:type="inkscape:persp3d" />
    <inkscape:perspective
       id="perspective3830-44"
       inkscape:persp3d-origin="0.5 : 0.33333333 : 1"
       inkscape:vp_z="1 : 0.5 : 1"
       inkscape:vp_y="0 : 1000 : 0"
       inkscape:vp_x="0 : 0.5 : 1"
       sodipodi:type="inkscape:persp3d" />
    <inkscape:perspective
       id="perspective3830-11"
       inkscape:persp3d-origin="0.5 : 0.33333333 : 1"
       inkscape:vp_z="1 : 0.5 : 1"
       inkscape:vp_y="0 : 1000 : 0"
       inkscape:vp_x="0 : 0.5 : 1"
       sodipodi:type="inkscape:persp3d" />
    <inkscape:perspective
       id="perspective3830-19"
       inkscape:persp3d-origin="0.5 : 0.33333333 : 1"
       inkscape:vp_z="1 : 0.5 : 1"
       inkscape:vp_y="0 : 1000 : 0"
       inkscape:vp_x="0 : 0.5 : 1"
       sodipodi:type="inkscape:persp3d" />
    <inkscape:perspective
       id="perspective3830-5"
       inkscape:persp3d-origin="0.5 : 0.33333333 : 1"
       inkscape:vp_z="1 : 0.5 : 1"
       inkscape:vp_y="0 : 1000 : 0"
       inkscape:vp_x="0 : 0.5 : 1"
       sodipodi:type="inkscape:persp3d" />
    <inkscape:perspective
       id="perspective3830-53"
       inkscape:persp3d-origin="0.5 : 0.33333333 : 1"
       inkscape:vp_z="1 : 0.5 : 1"
       inkscape:vp_y="0 : 1000 : 0"
       inkscape:vp_x="0 : 0.5 : 1"
       sodipodi:type="inkscape:persp3d" />
    <inkscape:perspective
       id="perspective3830-04"
       inkscape:persp3d-origin="0.5 : 0.33333333 : 1"
       inkscape:vp_z="1 : 0.5 : 1"
       inkscape:vp_y="0 : 1000 : 0"
       inkscape:vp_x="0 : 0.5 : 1"
       sodipodi:type="inkscape:persp3d" />
    <inkscape:perspective
       id="perspective3830-6"
       inkscape:persp3d-origin="0.5 : 0.33333333 : 1"
       inkscape:vp_z="1 : 0.5 : 1"
       inkscape:vp_y="0 : 1000 : 0"
       inkscape:vp_x="0 : 0.5 : 1"
       sodipodi:type="inkscape:persp3d" />
    <inkscape:perspective
       id="perspective3830-55"
       inkscape:persp3d-origin="0.5 : 0.33333333 : 1"
       inkscape:vp_z="1 : 0.5 : 1"
       inkscape:vp_y="0 : 1000 : 0"
       inkscape:vp_x="0 : 0.5 : 1"
       sodipodi:type="inkscape:persp3d" />
    <inkscape:perspective
       id="perspective3830-40"
       inkscape:persp3d-origin="0.5 : 0.33333333 : 1"
       inkscape:vp_z="1 : 0.5 : 1"
       inkscape:vp_y="0 : 1000 : 0"
       inkscape:vp_x="0 : 0.5 : 1"
       sodipodi:type="inkscape:persp3d" />
    <inkscape:perspective
       id="perspective5074"
       inkscape:persp3d-origin="0.5 : 0.33333333 : 1"
       inkscape:vp_z="1 : 0.5 : 1"
       inkscape:vp_y="0 : 1000 : 0"
       inkscape:vp_x="0 : 0.5 : 1"
       sodipodi:type="inkscape:persp3d" />
    <inkscape:perspective
       id="perspective5809"
       inkscape:persp3d-origin="0.5 : 0.33333333 : 1"
       inkscape:vp_z="1 : 0.5 : 1"
       inkscape:vp_y="0 : 1000 : 0"
       inkscape:vp_x="0 : 0.5 : 1"
       sodipodi:type="inkscape:persp3d" />
  </defs>
  <sodipodi:namedview
     id="base"
     pagecolor="#ffffff"
     bordercolor="#666666"
     borderopacity="1.0"
     inkscape:pageopacity="0.0"
     inkscape:pageshadow="2"
     inkscape:zoom="8.48"
     inkscape:cx="11.438679"
     inkscape:cy="50"
     inkscape:document-units="px"
     inkscape:current-layer="layer7"
     showgrid="false"
     showguides="true"
     inkscape:guide-bbox="true"
     inkscape:snap-global="false"
     inkscape:window-width="1920"
     inkscape:window-height="1122"
     inkscape:window-x="0"
     inkscape:window-y="24"
     inkscape:window-maximized="1">
    <sodipodi:guide
       orientation="0,1"
       position="105.48232,6.0037368"
       id="guide2865" />
    <sodipodi:guide
       orientation="1,0"
       position="50,22.169811"
       id="guide2957" />
  </sodipodi:namedview>
  <metadata
     id="metadata13991">
    <rdf:RDF>
      <cc:Work
         rdf:about="">
        <dc:format>image/svg+xml</dc:format>
        <dc:type
           rdf:resource="http://purl.org/dc/dcmitype/StillImage" />
        <dc:title />
      </cc:Work>
    </rdf:RDF>
  </metadata>
  <g
     inkscape:groupmode="layer"
     id="layer7"
     inkscape:label="pieces_0.5_opt_single"
     style="display:inline">
    <path
       id="path5843"
       d="M 16.367183,93.494621 83.63443,93.494371 71.837245,21.683489 49.998137,15.021803 27.63344,22.368072 16.367183,93.494621 z"
       style="fill:#e6c679;fill-opacity:1;stroke:#000000;stroke-width:1px;stroke-linecap:butt;stroke-linejoin:miter;stroke-opacity:1"
       sodipodi:nodetypes="cccccc" />
    <path
       style="fill:#d11111;fill-opacity:1;display:inline"
       d="m 47.19728,32.929367 c -0.367034,-0.02346 -0.210552,0.353117 0.455917,1.223608 1.735189,2.266459 1.094146,4.091474 -3.895647,10.865914 -1.128917,1.532621 -1.348599,2.083593 -0.995295,2.52093 0.653972,0.809317 0.962576,0.766708 5.01056,-0.978652 2.010882,-0.867017 4.726123,-1.793985 6.021671,-2.030585 2.564062,-0.468282 3.364935,-1.290311 2.117278,-2.227874 -1.157207,-0.869508 -2.430954,-0.688983 -5.758877,0.81453 -4.131965,1.866783 -4.1443,1.848102 -1.105564,-1.85547 1.459838,-1.779258 2.662758,-3.579167 2.667217,-4.003444 0.01107,-1.053742 -1.682708,-3.052351 -3.272255,-3.847098 -0.61939,-0.309676 -1.024781,-0.467764 -1.245005,-0.481859 z m 1.22354,14.419903 c -1.376174,-0.01546 -1.38471,-0.02155 0.04772,1.406829 1.394793,1.390734 1.450183,1.524273 1.542106,4.922727 0.113692,4.202827 0.09887,4.292276 -1.905384,5.855301 -4.14883,3.235582 -4.637738,5.674729 -1.552407,7.952876 2.30786,1.704146 2.256149,1.572645 1.144417,4.106003 -1.268105,2.889634 -1.01377,3.583294 1.212167,3.606686 1.859547,0.01954 1.922332,0.124108 1.387126,1.827178 -0.248017,0.789237 0.216681,0.508255 2.389646,-1.381216 2.956506,-2.570674 3.312214,-3.470736 1.606745,-4.202098 -0.890516,-0.381878 -1.497884,-0.357709 -2.907731,0.125702 -0.975931,0.334663 -1.837991,0.555717 -1.911399,0.479941 -0.07341,-0.07538 0.900305,-2.216912 2.175125,-4.758656 2.958988,-5.899632 3.195881,-7.234716 1.530025,-8.796908 -1.234503,-1.157736 -1.224248,-1.162928 -0.802328,-3.946149 0.232059,-1.530746 0.514282,-2.909406 0.626228,-3.087339 0.849796,-1.350345 -2.193827,-4.085779 -4.582055,-4.110877 z m 7.42264,1.453079 c -1.589792,0.0099 -1.505488,0.696099 0.985825,1.354184 1.630912,0.430862 2.080189,0.969263 1.789084,2.237674 -0.315471,1.374561 -0.363791,1.384704 1.996278,0.364748 3.156951,-1.364402 2.139942,-2.782967 -2.648603,-3.715538 -0.879309,-0.171249 -1.59265,-0.244379 -2.122584,-0.241068 z m -19.943139,9.353449 c -0.131098,0.01332 -0.157941,0.16003 -0.160511,0.404586 -0.01137,1.08224 3.103733,5.773484 4.122578,6.199913 1.611064,0.674167 1.486749,0.850121 2.25048,-3.007767 0.562426,-2.841047 0.50398,-2.935966 -0.855248,-1.884091 -1.382066,1.069536 -1.539944,1.046626 -3.681057,-0.632467 -0.979225,-0.767952 -1.457747,-1.102409 -1.676242,-1.080174 z m 13.375298,3.015718 c 0.604767,0.0064 0.754749,2.230004 0.270778,3.971815 -0.139389,0.501663 -0.470386,0.932608 -0.728561,0.929895 -0.753759,-0.0079 -2.236866,-1.261625 -2.230502,-1.867292 0.0083,-0.785256 2.003873,-3.041611 2.688285,-3.034418 z"
       id="path3996" />
  </g>
</svg>
