<?xml version="1.0" encoding="UTF-8" standalone="no"?>
<!-- Created with Inkscape (http://www.inkscape.org/) -->

<svg
   xmlns:dc="http://purl.org/dc/elements/1.1/"
   xmlns:cc="http://creativecommons.org/ns#"
   xmlns:rdf="http://www.w3.org/1999/02/22-rdf-syntax-ns#"
   xmlns:svg="http://www.w3.org/2000/svg"
   xmlns="http://www.w3.org/2000/svg"
   xmlns:sodipodi="http://sodipodi.sourceforge.net/DTD/sodipodi-0.dtd"
   xmlns:inkscape="http://www.inkscape.org/namespaces/inkscape"
   width="100"
   height="100"
   id="svg13986"
   version="1.1"
   inkscape:version="0.47 r22583"
   sodipodi:docname="narikei.svg"
   style="display:inline">
  <defs
     id="defs13988">
    <inkscape:perspective
       sodipodi:type="inkscape:persp3d"
       inkscape:vp_x="0 : 526.18109 : 1"
       inkscape:vp_y="0 : 1000 : 0"
       inkscape:vp_z="744.09448 : 526.18109 : 1"
       inkscape:persp3d-origin="372.04724 : 350.78739 : 1"
       id="perspective13994" />
    <inkscape:perspective
       id="perspective14004"
       inkscape:persp3d-origin="0.5 : 0.33333333 : 1"
       inkscape:vp_z="1 : 0.5 : 1"
       inkscape:vp_y="0 : 1000 : 0"
       inkscape:vp_x="0 : 0.5 : 1"
       sodipodi:type="inkscape:persp3d" />
    <inkscape:perspective
       id="perspective3830"
       inkscape:persp3d-origin="0.5 : 0.33333333 : 1"
       inkscape:vp_z="1 : 0.5 : 1"
       inkscape:vp_y="0 : 1000 : 0"
       inkscape:vp_x="0 : 0.5 : 1"
       sodipodi:type="inkscape:persp3d" />
    <inkscape:perspective
       id="perspective3830-1"
       inkscape:persp3d-origin="0.5 : 0.33333333 : 1"
       inkscape:vp_z="1 : 0.5 : 1"
       inkscape:vp_y="0 : 1000 : 0"
       inkscape:vp_x="0 : 0.5 : 1"
       sodipodi:type="inkscape:persp3d" />
    <inkscape:perspective
       id="perspective3830-0"
       inkscape:persp3d-origin="0.5 : 0.33333333 : 1"
       inkscape:vp_z="1 : 0.5 : 1"
       inkscape:vp_y="0 : 1000 : 0"
       inkscape:vp_x="0 : 0.5 : 1"
       sodipodi:type="inkscape:persp3d" />
    <inkscape:perspective
       id="perspective3830-2"
       inkscape:persp3d-origin="0.5 : 0.33333333 : 1"
       inkscape:vp_z="1 : 0.5 : 1"
       inkscape:vp_y="0 : 1000 : 0"
       inkscape:vp_x="0 : 0.5 : 1"
       sodipodi:type="inkscape:persp3d" />
    <inkscape:perspective
       id="perspective3830-4"
       inkscape:persp3d-origin="0.5 : 0.33333333 : 1"
       inkscape:vp_z="1 : 0.5 : 1"
       inkscape:vp_y="0 : 1000 : 0"
       inkscape:vp_x="0 : 0.5 : 1"
       sodipodi:type="inkscape:persp3d" />
    <inkscape:perspective
       id="perspective3830-44"
       inkscape:persp3d-origin="0.5 : 0.33333333 : 1"
       inkscape:vp_z="1 : 0.5 : 1"
       inkscape:vp_y="0 : 1000 : 0"
       inkscape:vp_x="0 : 0.5 : 1"
       sodipodi:type="inkscape:persp3d" />
    <inkscape:perspective
       id="perspective3830-11"
       inkscape:persp3d-origin="0.5 : 0.33333333 : 1"
       inkscape:vp_z="1 : 0.5 : 1"
       inkscape:vp_y="0 : 1000 : 0"
       inkscape:vp_x="0 : 0.5 : 1"
       sodipodi:type="inkscape:persp3d" />
    <inkscape:perspective
       id="perspective3830-19"
       inkscape:persp3d-origin="0.5 : 0.33333333 : 1"
       inkscape:vp_z="1 : 0.5 : 1"
       inkscape:vp_y="0 : 1000 : 0"
       inkscape:vp_x="0 : 0.5 : 1"
       sodipodi:type="inkscape:persp3d" />
    <inkscape:perspective
       id="perspective3830-5"
       inkscape:persp3d-origin="0.5 : 0.33333333 : 1"
       inkscape:vp_z="1 : 0.5 : 1"
       inkscape:vp_y="0 : 1000 : 0"
       inkscape:vp_x="0 : 0.5 : 1"
       sodipodi:type="inkscape:persp3d" />
    <inkscape:perspective
       id="perspective3830-53"
       inkscape:persp3d-origin="0.5 : 0.33333333 : 1"
       inkscape:vp_z="1 : 0.5 : 1"
       inkscape:vp_y="0 : 1000 : 0"
       inkscape:vp_x="0 : 0.5 : 1"
       sodipodi:type="inkscape:persp3d" />
    <inkscape:perspective
       id="perspective3830-04"
       inkscape:persp3d-origin="0.5 : 0.33333333 : 1"
       inkscape:vp_z="1 : 0.5 : 1"
       inkscape:vp_y="0 : 1000 : 0"
       inkscape:vp_x="0 : 0.5 : 1"
       sodipodi:type="inkscape:persp3d" />
    <inkscape:perspective
       id="perspective3830-6"
       inkscape:persp3d-origin="0.5 : 0.33333333 : 1"
       inkscape:vp_z="1 : 0.5 : 1"
       inkscape:vp_y="0 : 1000 : 0"
       inkscape:vp_x="0 : 0.5 : 1"
       sodipodi:type="inkscape:persp3d" />
    <inkscape:perspective
       id="perspective3830-55"
       inkscape:persp3d-origin="0.5 : 0.33333333 : 1"
       inkscape:vp_z="1 : 0.5 : 1"
       inkscape:vp_y="0 : 1000 : 0"
       inkscape:vp_x="0 : 0.5 : 1"
       sodipodi:type="inkscape:persp3d" />
    <inkscape:perspective
       id="perspective3830-40"
       inkscape:persp3d-origin="0.5 : 0.33333333 : 1"
       inkscape:vp_z="1 : 0.5 : 1"
       inkscape:vp_y="0 : 1000 : 0"
       inkscape:vp_x="0 : 0.5 : 1"
       sodipodi:type="inkscape:persp3d" />
    <inkscape:perspective
       id="perspective5074"
       inkscape:persp3d-origin="0.5 : 0.33333333 : 1"
       inkscape:vp_z="1 : 0.5 : 1"
       inkscape:vp_y="0 : 1000 : 0"
       inkscape:vp_x="0 : 0.5 : 1"
       sodipodi:type="inkscape:persp3d" />
    <inkscape:perspective
       id="perspective5809"
       inkscape:persp3d-origin="0.5 : 0.33333333 : 1"
       inkscape:vp_z="1 : 0.5 : 1"
       inkscape:vp_y="0 : 1000 : 0"
       inkscape:vp_x="0 : 0.5 : 1"
       sodipodi:type="inkscape:persp3d" />
  </defs>
  <sodipodi:namedview
     id="base"
     pagecolor="#ffffff"
     bordercolor="#666666"
     borderopacity="1.0"
     inkscape:pageopacity="0.0"
     inkscape:pageshadow="2"
     inkscape:zoom="8.48"
     inkscape:cx="11.438679"
     inkscape:cy="50"
     inkscape:document-units="px"
     inkscape:current-layer="layer7"
     showgrid="false"
     showguides="true"
     inkscape:guide-bbox="true"
     inkscape:snap-global="false"
     inkscape:window-width="1920"
     inkscape:window-height="1122"
     inkscape:window-x="0"
     inkscape:window-y="24"
     inkscape:window-maximized="1">
    <sodipodi:guide
       orientation="0,1"
       position="105.48232,6.0037368"
       id="guide2865" />
    <sodipodi:guide
       orientation="1,0"
       position="50,22.169811"
       id="guide2957" />
  </sodipodi:namedview>
  <metadata
     id="metadata13991">
    <rdf:RDF>
      <cc:Work
         rdf:about="">
        <dc:format>image/svg+xml</dc:format>
        <dc:type
           rdf:resource="http://purl.org/dc/dcmitype/StillImage" />
        <dc:title />
      </cc:Work>
    </rdf:RDF>
  </metadata>
  <g
     inkscape:groupmode="layer"
     id="layer7"
     inkscape:label="pieces_0.5_opt_single"
     style="display:inline">
    <path
       sodipodi:nodetypes="cccccc"
       id="path5845"
       d="M 25.432546,21.224227 14.287201,93.494871 85.709421,93.493168 73.699429,20.876754 49.999137,13.12143 25.432546,21.224227 z"
       style="fill:#e6c679;fill-opacity:1;stroke:#000000;stroke-width:1px;stroke-linecap:butt;stroke-linejoin:miter;stroke-opacity:1" />
    <path
       style="fill:#d11111;fill-opacity:1;display:inline"
       d="m 46.04304,32.857231 c -0.173725,-0.0059 -0.311181,0.01904 -0.438515,0.08883 -0.600424,0.329047 -0.607842,0.42242 -0.04127,0.905847 0.344425,0.293946 0.615111,0.893191 0.610374,1.319365 -0.03461,3.113608 -12.595309,21.266979 -17.405613,25.151857 -0.928027,0.749532 -2.150634,1.711504 -2.711646,2.157496 -1.341667,1.066655 -0.390763,1.097675 1.968282,0.05308 2.039413,-0.90309 6.692386,-5.504961 8.942535,-8.838658 0.823938,-1.220719 2.357936,-3.288647 3.395293,-4.6188 1.037368,-1.330153 2.145965,-2.811024 2.474165,-3.285205 2.803626,-4.050991 5.884164,-8.278765 6.18819,-8.462997 0.488551,-0.296089 3.582526,1.578663 6.581177,3.979639 7.358285,5.891644 10.534523,7.412038 15.574012,7.486052 5.581847,0.08254 2.93232,-2.247499 -4.85906,-4.273018 -3.469022,-0.90181 -4.725897,-1.449963 -7.432516,-3.301559 -4.262208,-2.91565 -6.387641,-4.00874 -7.830752,-4.024779 -0.982969,-0.01093 -1.203842,-0.226944 -1.392618,-1.234304 -0.249755,-1.332598 -2.405863,-3.064208 -3.621987,-3.102947 z m 2.484513,15.466068 c -0.971729,-0.0208 -1.688881,0.114847 -1.692605,0.449966 -0.0061,0.546466 0.255501,0.837191 2.347068,2.526241 1.722101,1.390626 5.410949,-0.342383 3.895599,-1.831817 -0.638662,-0.627757 -2.93051,-1.110378 -4.550062,-1.14439 z m 2.853269,7.59468 c -0.958528,-0.0047 -2.209072,0.232653 -3.789352,0.707929 -1.518254,0.457054 -2.576315,0.589003 -2.72275,0.344761 -0.277621,-0.463014 -2.200687,1.174264 -2.208551,1.88182 -0.0029,0.261184 0.602115,0.797441 1.330469,1.202361 1.320902,0.734226 1.323565,0.747406 3.380696,-0.493707 2.725847,-1.644607 2.986519,-1.582206 2.962315,0.59546 -0.01824,1.641298 -0.147543,1.883576 -1.340204,2.485258 -1.700469,0.857854 -4.87787,3.247138 -5.294479,3.972653 -0.315536,0.549427 2.298332,2.650707 3.314369,2.662 0.995639,0.01107 0.792866,1.311243 -0.404498,2.651918 -2.028214,2.270899 -1.144218,3.290187 2.406091,2.839417 1.937433,-0.245883 2.822284,0.464345 1.548858,1.23604 -0.223932,0.13572 -0.411294,0.451557 -0.413865,0.682943 -0.0026,0.231385 0.92152,-0.248674 2.042933,-1.039859 1.121411,-0.791086 2.38725,-1.411056 2.797054,-1.406501 1.173088,0.01304 2.358317,-1.511683 1.838784,-2.354709 -0.477832,-0.775358 -3.726008,-0.967371 -6.183644,-0.381249 -1.387143,0.330804 -1.387947,0.316794 1.374925,-2.797391 3.714685,-4.187174 4.035733,-4.885199 2.628678,-5.939902 -1.019192,-0.763975 -1.075632,-0.939713 -0.810356,-3.009192 0.334886,-2.61245 -0.348707,-3.830642 -2.457473,-3.84005 z m -1.879777,8.854655 c 0.639396,0.01831 0.653449,0.798232 -0.05447,2.093274 -0.462001,0.845118 -1.089386,0.992354 -1.973491,0.415592 -0.795432,-0.518872 -0.269031,-1.534534 1.181533,-2.268258 0.345997,-0.175045 0.633341,-0.246726 0.846476,-0.240607 z"
       id="path3994" />
  </g>
</svg>
