<?xml version="1.0" encoding="UTF-8" standalone="no"?>
<!-- Created with Inkscape (http://www.inkscape.org/) -->

<svg
   xmlns:dc="http://purl.org/dc/elements/1.1/"
   xmlns:cc="http://creativecommons.org/ns#"
   xmlns:rdf="http://www.w3.org/1999/02/22-rdf-syntax-ns#"
   xmlns:svg="http://www.w3.org/2000/svg"
   xmlns="http://www.w3.org/2000/svg"
   xmlns:sodipodi="http://sodipodi.sourceforge.net/DTD/sodipodi-0.dtd"
   xmlns:inkscape="http://www.inkscape.org/namespaces/inkscape"
   width="100"
   height="100"
   id="svg13986"
   version="1.1"
   inkscape:version="0.47 r22583"
   sodipodi:docname="narigin.svg"
   style="display:inline">
  <defs
     id="defs13988">
    <inkscape:perspective
       sodipodi:type="inkscape:persp3d"
       inkscape:vp_x="0 : 526.18109 : 1"
       inkscape:vp_y="0 : 1000 : 0"
       inkscape:vp_z="744.09448 : 526.18109 : 1"
       inkscape:persp3d-origin="372.04724 : 350.78739 : 1"
       id="perspective13994" />
    <inkscape:perspective
       id="perspective14004"
       inkscape:persp3d-origin="0.5 : 0.33333333 : 1"
       inkscape:vp_z="1 : 0.5 : 1"
       inkscape:vp_y="0 : 1000 : 0"
       inkscape:vp_x="0 : 0.5 : 1"
       sodipodi:type="inkscape:persp3d" />
    <inkscape:perspective
       id="perspective3830"
       inkscape:persp3d-origin="0.5 : 0.33333333 : 1"
       inkscape:vp_z="1 : 0.5 : 1"
       inkscape:vp_y="0 : 1000 : 0"
       inkscape:vp_x="0 : 0.5 : 1"
       sodipodi:type="inkscape:persp3d" />
    <inkscape:perspective
       id="perspective3830-1"
       inkscape:persp3d-origin="0.5 : 0.33333333 : 1"
       inkscape:vp_z="1 : 0.5 : 1"
       inkscape:vp_y="0 : 1000 : 0"
       inkscape:vp_x="0 : 0.5 : 1"
       sodipodi:type="inkscape:persp3d" />
    <inkscape:perspective
       id="perspective3830-0"
       inkscape:persp3d-origin="0.5 : 0.33333333 : 1"
       inkscape:vp_z="1 : 0.5 : 1"
       inkscape:vp_y="0 : 1000 : 0"
       inkscape:vp_x="0 : 0.5 : 1"
       sodipodi:type="inkscape:persp3d" />
    <inkscape:perspective
       id="perspective3830-2"
       inkscape:persp3d-origin="0.5 : 0.33333333 : 1"
       inkscape:vp_z="1 : 0.5 : 1"
       inkscape:vp_y="0 : 1000 : 0"
       inkscape:vp_x="0 : 0.5 : 1"
       sodipodi:type="inkscape:persp3d" />
    <inkscape:perspective
       id="perspective3830-4"
       inkscape:persp3d-origin="0.5 : 0.33333333 : 1"
       inkscape:vp_z="1 : 0.5 : 1"
       inkscape:vp_y="0 : 1000 : 0"
       inkscape:vp_x="0 : 0.5 : 1"
       sodipodi:type="inkscape:persp3d" />
    <inkscape:perspective
       id="perspective3830-44"
       inkscape:persp3d-origin="0.5 : 0.33333333 : 1"
       inkscape:vp_z="1 : 0.5 : 1"
       inkscape:vp_y="0 : 1000 : 0"
       inkscape:vp_x="0 : 0.5 : 1"
       sodipodi:type="inkscape:persp3d" />
    <inkscape:perspective
       id="perspective3830-11"
       inkscape:persp3d-origin="0.5 : 0.33333333 : 1"
       inkscape:vp_z="1 : 0.5 : 1"
       inkscape:vp_y="0 : 1000 : 0"
       inkscape:vp_x="0 : 0.5 : 1"
       sodipodi:type="inkscape:persp3d" />
    <inkscape:perspective
       id="perspective3830-19"
       inkscape:persp3d-origin="0.5 : 0.33333333 : 1"
       inkscape:vp_z="1 : 0.5 : 1"
       inkscape:vp_y="0 : 1000 : 0"
       inkscape:vp_x="0 : 0.5 : 1"
       sodipodi:type="inkscape:persp3d" />
    <inkscape:perspective
       id="perspective3830-5"
       inkscape:persp3d-origin="0.5 : 0.33333333 : 1"
       inkscape:vp_z="1 : 0.5 : 1"
       inkscape:vp_y="0 : 1000 : 0"
       inkscape:vp_x="0 : 0.5 : 1"
       sodipodi:type="inkscape:persp3d" />
    <inkscape:perspective
       id="perspective3830-53"
       inkscape:persp3d-origin="0.5 : 0.33333333 : 1"
       inkscape:vp_z="1 : 0.5 : 1"
       inkscape:vp_y="0 : 1000 : 0"
       inkscape:vp_x="0 : 0.5 : 1"
       sodipodi:type="inkscape:persp3d" />
    <inkscape:perspective
       id="perspective3830-04"
       inkscape:persp3d-origin="0.5 : 0.33333333 : 1"
       inkscape:vp_z="1 : 0.5 : 1"
       inkscape:vp_y="0 : 1000 : 0"
       inkscape:vp_x="0 : 0.5 : 1"
       sodipodi:type="inkscape:persp3d" />
    <inkscape:perspective
       id="perspective3830-6"
       inkscape:persp3d-origin="0.5 : 0.33333333 : 1"
       inkscape:vp_z="1 : 0.5 : 1"
       inkscape:vp_y="0 : 1000 : 0"
       inkscape:vp_x="0 : 0.5 : 1"
       sodipodi:type="inkscape:persp3d" />
    <inkscape:perspective
       id="perspective3830-55"
       inkscape:persp3d-origin="0.5 : 0.33333333 : 1"
       inkscape:vp_z="1 : 0.5 : 1"
       inkscape:vp_y="0 : 1000 : 0"
       inkscape:vp_x="0 : 0.5 : 1"
       sodipodi:type="inkscape:persp3d" />
    <inkscape:perspective
       id="perspective3830-40"
       inkscape:persp3d-origin="0.5 : 0.33333333 : 1"
       inkscape:vp_z="1 : 0.5 : 1"
       inkscape:vp_y="0 : 1000 : 0"
       inkscape:vp_x="0 : 0.5 : 1"
       sodipodi:type="inkscape:persp3d" />
    <inkscape:perspective
       id="perspective5074"
       inkscape:persp3d-origin="0.5 : 0.33333333 : 1"
       inkscape:vp_z="1 : 0.5 : 1"
       inkscape:vp_y="0 : 1000 : 0"
       inkscape:vp_x="0 : 0.5 : 1"
       sodipodi:type="inkscape:persp3d" />
    <inkscape:perspective
       id="perspective5809"
       inkscape:persp3d-origin="0.5 : 0.33333333 : 1"
       inkscape:vp_z="1 : 0.5 : 1"
       inkscape:vp_y="0 : 1000 : 0"
       inkscape:vp_x="0 : 0.5 : 1"
       sodipodi:type="inkscape:persp3d" />
  </defs>
  <sodipodi:namedview
     id="base"
     pagecolor="#ffffff"
     bordercolor="#666666"
     borderopacity="1.0"
     inkscape:pageopacity="0.0"
     inkscape:pageshadow="2"
     inkscape:zoom="4.24"
     inkscape:cx="-79.850274"
     inkscape:cy="32.25672"
     inkscape:document-units="px"
     inkscape:current-layer="layer7"
     showgrid="false"
     showguides="true"
     inkscape:guide-bbox="true"
     inkscape:snap-global="false"
     inkscape:window-width="1920"
     inkscape:window-height="1122"
     inkscape:window-x="0"
     inkscape:window-y="24"
     inkscape:window-maximized="1">
    <sodipodi:guide
       orientation="0,1"
       position="105.48232,6.0037368"
       id="guide2865" />
    <sodipodi:guide
       orientation="1,0"
       position="50,22.169811"
       id="guide2957" />
  </sodipodi:namedview>
  <metadata
     id="metadata13991">
    <rdf:RDF>
      <cc:Work
         rdf:about="">
        <dc:format>image/svg+xml</dc:format>
        <dc:type
           rdf:resource="http://purl.org/dc/dcmitype/StillImage" />
        <dc:title />
      </cc:Work>
    </rdf:RDF>
  </metadata>
  <g
     inkscape:groupmode="layer"
     id="layer7"
     inkscape:label="pieces_0.5_opt_single"
     style="display:inline">
    <path
       id="path5847"
       d="M 13.052738,93.497004 86.948781,93.496734 74.249073,16.562267 50.002394,8.3955457 25.36494,16.89018 13.052738,93.497004 z"
       style="fill:#e6c679;fill-opacity:1;stroke:#000000;stroke-width:1px;stroke-linecap:butt;stroke-linejoin:miter;stroke-opacity:1"
       sodipodi:nodetypes="cccccc" />
    <path
       style="fill:#d11111;fill-opacity:1;display:inline"
       d="m 45.563537,31.211981 c -0.595729,0.0033 -0.694958,0.562508 -0.07714,1.530582 0.606035,0.949641 0.594494,1.132589 -0.626304,3.400415 -5.151981,9.570558 -14.642912,21.696279 -18.603428,23.791891 -0.776807,0.410988 -1.414852,0.892457 -1.416648,1.080248 -0.01074,1.122249 4.917208,-1.446231 6.941206,-3.62127 2.330896,-2.504819 5.359977,-6.10666 5.87949,-6.97533 0.226025,-0.377855 1.529504,-2.103866 2.880686,-3.847622 1.351181,-1.743755 3.873054,-5.246743 5.606025,-7.790482 3.47943,-5.107052 3.505378,-5.352465 0.972867,-6.959763 -0.661196,-0.419674 -1.199317,-0.61039 -1.556749,-0.608669 z m 3.457032,2.627891 c -0.359359,0.453625 2.46168,2.608013 3.920658,3.661717 1.353461,0.977591 4.274969,3.522803 6.477445,5.655967 4.454307,4.314205 6.545689,5.876531 8.502026,6.362866 1.902681,0.473222 8.686511,0.565265 8.968041,0.116988 0.493693,-0.786214 -1.568808,-2.029549 -5.530859,-3.334307 -5.015004,-1.651346 -6.321648,-2.310575 -10.263006,-5.223408 L 49.020569,33.839872 z m 3.599689,14.346636 c -0.750358,0.02852 -1.944263,0.342268 -3.727847,0.933134 -1.59895,0.52973 -3.747876,1.061599 -4.761739,1.204508 -2.336588,0.329465 -2.173371,0.86995 0.695999,2.381766 2.235238,1.177635 3.062261,2.355349 2.158405,3.052036 -0.904168,0.696983 -5.717246,2.039156 -7.238447,2.024604 -1.74159,-0.01666 -1.946859,0.460049 -0.638422,1.400207 1.29172,0.928199 3.273178,0.818747 5.565832,-0.321775 2.627492,-1.307027 3.231084,-1.273952 3.217407,0.155782 -0.01766,1.845916 -2.781695,4.276688 -4.223178,3.709774 -2.786029,-1.095499 -2.966799,-0.101083 -0.493838,2.620396 1.985105,2.184588 2.562479,2.232863 3.247759,0.249827 0.724436,-2.096366 1.51652,-2.075238 1.34339,0.04405 -0.143171,1.752611 -0.142112,1.756921 -3.589837,2.840792 -1.934095,0.608028 -4.419006,1.06678 -5.666752,1.070845 -2.22424,0.0071 -2.229364,0.0044 -0.732468,1.430559 1.997843,1.903597 2.441043,1.900537 7.911867,-0.549345 4.114111,-1.842332 9.709104,-2.399289 14.326492,-1.394277 3.677752,0.800416 4.387233,-0.734118 1.212854,-2.644769 -1.920273,-1.155721 -5.503373,-1.221998 -9.842702,-0.156656 -1.865055,0.457881 -1.272578,-0.454793 1.0149,-1.552863 2.618865,-1.257207 5.190176,-3.521916 5.200254,-4.575467 0.01722,-1.800518 -1.513966,-2.687205 -4.133342,-2.414648 -3.542039,0.368637 -2.858816,-0.610073 0.950609,-1.365969 2.774562,-0.550486 3.037994,-0.690522 3.046954,-1.62718 0.01174,-1.227743 -1.852032,-1.585187 -4.367028,-0.854311 -1.295742,0.376623 -1.797588,0.31837 -3.122167,-0.311128 -1.961165,-0.932002 -1.851853,-1.363426 0.583697,-2.213268 2.339847,-0.816456 3.107077,-1.378393 3.116625,-2.376548 0.005,-0.523226 -0.304919,-0.788692 -1.055277,-0.760128 l 0,5.2e-5 z m 0.924489,11.165602 c 0.740513,-0.07832 0.766989,0.418847 0.140102,1.688919 -0.338741,0.686291 -1.145209,1.766376 -1.804186,2.389101 -1.198143,1.132092 -1.198195,1.11239 -1.182065,-0.573833 0.01693,-1.769319 0.95587,-3.054346 2.501817,-3.444977 0.135103,-0.03411 0.23854,-0.04802 0.344332,-0.05921 z"
       id="path3992"
       sodipodi:nodetypes="csssssssssccssssscccsssssssssssssssssssssssssssscccssssc" />
  </g>
</svg>
