<?xml version="1.0" encoding="UTF-8" standalone="no"?>
<!-- Created with Inkscape (http://www.inkscape.org/) -->

<svg
   xmlns:dc="http://purl.org/dc/elements/1.1/"
   xmlns:cc="http://creativecommons.org/ns#"
   xmlns:rdf="http://www.w3.org/1999/02/22-rdf-syntax-ns#"
   xmlns:svg="http://www.w3.org/2000/svg"
   xmlns="http://www.w3.org/2000/svg"
   xmlns:sodipodi="http://sodipodi.sourceforge.net/DTD/sodipodi-0.dtd"
   xmlns:inkscape="http://www.inkscape.org/namespaces/inkscape"
   width="100"
   height="100"
   id="svg13986"
   version="1.1"
   inkscape:version="0.47 r22583"
   sodipodi:docname="ou.svg"
   style="display:inline">
  <defs
     id="defs13988">
    <inkscape:perspective
       sodipodi:type="inkscape:persp3d"
       inkscape:vp_x="0 : 526.18109 : 1"
       inkscape:vp_y="0 : 1000 : 0"
       inkscape:vp_z="744.09448 : 526.18109 : 1"
       inkscape:persp3d-origin="372.04724 : 350.78739 : 1"
       id="perspective13994" />
    <inkscape:perspective
       id="perspective14004"
       inkscape:persp3d-origin="0.5 : 0.33333333 : 1"
       inkscape:vp_z="1 : 0.5 : 1"
       inkscape:vp_y="0 : 1000 : 0"
       inkscape:vp_x="0 : 0.5 : 1"
       sodipodi:type="inkscape:persp3d" />
    <inkscape:perspective
       id="perspective3830"
       inkscape:persp3d-origin="0.5 : 0.33333333 : 1"
       inkscape:vp_z="1 : 0.5 : 1"
       inkscape:vp_y="0 : 1000 : 0"
       inkscape:vp_x="0 : 0.5 : 1"
       sodipodi:type="inkscape:persp3d" />
    <inkscape:perspective
       id="perspective3830-1"
       inkscape:persp3d-origin="0.5 : 0.33333333 : 1"
       inkscape:vp_z="1 : 0.5 : 1"
       inkscape:vp_y="0 : 1000 : 0"
       inkscape:vp_x="0 : 0.5 : 1"
       sodipodi:type="inkscape:persp3d" />
    <inkscape:perspective
       id="perspective3830-0"
       inkscape:persp3d-origin="0.5 : 0.33333333 : 1"
       inkscape:vp_z="1 : 0.5 : 1"
       inkscape:vp_y="0 : 1000 : 0"
       inkscape:vp_x="0 : 0.5 : 1"
       sodipodi:type="inkscape:persp3d" />
    <inkscape:perspective
       id="perspective3830-2"
       inkscape:persp3d-origin="0.5 : 0.33333333 : 1"
       inkscape:vp_z="1 : 0.5 : 1"
       inkscape:vp_y="0 : 1000 : 0"
       inkscape:vp_x="0 : 0.5 : 1"
       sodipodi:type="inkscape:persp3d" />
    <inkscape:perspective
       id="perspective3830-4"
       inkscape:persp3d-origin="0.5 : 0.33333333 : 1"
       inkscape:vp_z="1 : 0.5 : 1"
       inkscape:vp_y="0 : 1000 : 0"
       inkscape:vp_x="0 : 0.5 : 1"
       sodipodi:type="inkscape:persp3d" />
    <inkscape:perspective
       id="perspective3830-44"
       inkscape:persp3d-origin="0.5 : 0.33333333 : 1"
       inkscape:vp_z="1 : 0.5 : 1"
       inkscape:vp_y="0 : 1000 : 0"
       inkscape:vp_x="0 : 0.5 : 1"
       sodipodi:type="inkscape:persp3d" />
    <inkscape:perspective
       id="perspective3830-11"
       inkscape:persp3d-origin="0.5 : 0.33333333 : 1"
       inkscape:vp_z="1 : 0.5 : 1"
       inkscape:vp_y="0 : 1000 : 0"
       inkscape:vp_x="0 : 0.5 : 1"
       sodipodi:type="inkscape:persp3d" />
    <inkscape:perspective
       id="perspective3830-19"
       inkscape:persp3d-origin="0.5 : 0.33333333 : 1"
       inkscape:vp_z="1 : 0.5 : 1"
       inkscape:vp_y="0 : 1000 : 0"
       inkscape:vp_x="0 : 0.5 : 1"
       sodipodi:type="inkscape:persp3d" />
    <inkscape:perspective
       id="perspective3830-5"
       inkscape:persp3d-origin="0.5 : 0.33333333 : 1"
       inkscape:vp_z="1 : 0.5 : 1"
       inkscape:vp_y="0 : 1000 : 0"
       inkscape:vp_x="0 : 0.5 : 1"
       sodipodi:type="inkscape:persp3d" />
    <inkscape:perspective
       id="perspective3830-53"
       inkscape:persp3d-origin="0.5 : 0.33333333 : 1"
       inkscape:vp_z="1 : 0.5 : 1"
       inkscape:vp_y="0 : 1000 : 0"
       inkscape:vp_x="0 : 0.5 : 1"
       sodipodi:type="inkscape:persp3d" />
    <inkscape:perspective
       id="perspective3830-04"
       inkscape:persp3d-origin="0.5 : 0.33333333 : 1"
       inkscape:vp_z="1 : 0.5 : 1"
       inkscape:vp_y="0 : 1000 : 0"
       inkscape:vp_x="0 : 0.5 : 1"
       sodipodi:type="inkscape:persp3d" />
    <inkscape:perspective
       id="perspective3830-6"
       inkscape:persp3d-origin="0.5 : 0.33333333 : 1"
       inkscape:vp_z="1 : 0.5 : 1"
       inkscape:vp_y="0 : 1000 : 0"
       inkscape:vp_x="0 : 0.5 : 1"
       sodipodi:type="inkscape:persp3d" />
    <inkscape:perspective
       id="perspective3830-55"
       inkscape:persp3d-origin="0.5 : 0.33333333 : 1"
       inkscape:vp_z="1 : 0.5 : 1"
       inkscape:vp_y="0 : 1000 : 0"
       inkscape:vp_x="0 : 0.5 : 1"
       sodipodi:type="inkscape:persp3d" />
    <inkscape:perspective
       id="perspective3830-40"
       inkscape:persp3d-origin="0.5 : 0.33333333 : 1"
       inkscape:vp_z="1 : 0.5 : 1"
       inkscape:vp_y="0 : 1000 : 0"
       inkscape:vp_x="0 : 0.5 : 1"
       sodipodi:type="inkscape:persp3d" />
    <inkscape:perspective
       id="perspective5074"
       inkscape:persp3d-origin="0.5 : 0.33333333 : 1"
       inkscape:vp_z="1 : 0.5 : 1"
       inkscape:vp_y="0 : 1000 : 0"
       inkscape:vp_x="0 : 0.5 : 1"
       sodipodi:type="inkscape:persp3d" />
    <inkscape:perspective
       id="perspective5809"
       inkscape:persp3d-origin="0.5 : 0.33333333 : 1"
       inkscape:vp_z="1 : 0.5 : 1"
       inkscape:vp_y="0 : 1000 : 0"
       inkscape:vp_x="0 : 0.5 : 1"
       sodipodi:type="inkscape:persp3d" />
  </defs>
  <sodipodi:namedview
     id="base"
     pagecolor="#ffffff"
     bordercolor="#666666"
     borderopacity="1.0"
     inkscape:pageopacity="0.0"
     inkscape:pageshadow="2"
     inkscape:zoom="1"
     inkscape:cx="101.20519"
     inkscape:cy="-134.87174"
     inkscape:document-units="px"
     inkscape:current-layer="layer7"
     showgrid="false"
     showguides="true"
     inkscape:guide-bbox="true"
     inkscape:snap-global="false"
     inkscape:window-width="1920"
     inkscape:window-height="1122"
     inkscape:window-x="0"
     inkscape:window-y="24"
     inkscape:window-maximized="1">
    <sodipodi:guide
       orientation="0,1"
       position="105.48232,6.0037368"
       id="guide2865" />
    <sodipodi:guide
       orientation="1,0"
       position="50,22.169811"
       id="guide2957" />
  </sodipodi:namedview>
  <metadata
     id="metadata13991">
    <rdf:RDF>
      <cc:Work
         rdf:about="">
        <dc:format>image/svg+xml</dc:format>
        <dc:type
           rdf:resource="http://purl.org/dc/dcmitype/StillImage" />
        <dc:title />
      </cc:Work>
    </rdf:RDF>
  </metadata>
  <g
     inkscape:groupmode="layer"
     id="layer7"
     inkscape:label="pieces_0.5_opt_single"
     style="display:inline">
    <path
       id="path5817"
       d="M 9.9989166,93.511987 90.002422,93.478582 76.972897,12.983646 50.004329,4.9971424 23.212737,13.877149 9.9989166,93.511987 z"
       style="fill:#e6c679;fill-opacity:1;stroke:#000000;stroke-width:1px;stroke-linecap:butt;stroke-linejoin:miter;stroke-opacity:1"
       sodipodi:nodetypes="cccccc" />
    <path
       style="fill:#000000;display:inline"
       d="m 56.024201,14.139804 c -0.615288,0.02935 -1.421329,0.214578 -2.849234,0.599503 -6.195408,1.670114 -12.874691,3.129806 -14.372285,3.121391 -1.402038,-0.0077 -1.488762,0.05823 -1.100984,0.802671 0.833117,1.599417 2.497476,2.100534 4.705965,1.448461 2.402339,-0.709291 3.939653,-0.742972 3.532228,-0.09337 -0.16057,0.256091 -0.02472,0.660485 0.30437,0.909013 0.938826,0.709118 1.464561,1.964697 1.743391,4.234536 0.305982,2.49084 0.163869,2.56868 -5.092527,3.329519 -3.291449,0.476417 -3.293428,0.47849 -2.38834,1.478667 0.857764,0.947891 1.079305,1.009068 4.242831,0.819286 3.338028,-0.200249 3.345642,-0.196151 3.311707,3.592307 -0.03394,3.788458 -0.04516,3.769357 -4.203108,5.212562 -2.783556,0.966166 -4.84175,1.427439 -6.262905,1.412709 -2.572126,-0.02764 -2.676436,0.422974 -0.422468,1.808789 2.226537,1.368938 2.472492,1.365091 6.660741,-0.471609 6.36072,-2.789389 11.93958,-3.457666 17.644726,-2.123291 2.496021,0.583811 3.237313,0.613722 3.716922,0.220802 0.923373,-0.75653 0.771845,-1.08793 -1.288935,-2.636651 -2.334857,-1.754674 -5.414944,-1.887198 -11.714641,-0.511199 -0.895839,0.195633 -0.907559,0.142066 -0.873745,-3.632972 0.0388,-4.331846 -0.318496,-3.927211 4.011137,-4.714261 1.563378,-0.284188 2.645056,-0.696656 2.790935,-1.068795 0.32852,-0.838011 -1.421034,-2.246618 -2.482265,-1.991063 -4.211935,1.014334 -4.407298,0.91888 -4.076512,-1.942842 0.309355,-2.676306 0.325471,-2.672432 -1.71802,-3.578032 -1.123874,-0.498076 -2.053091,-1.059652 -2.051501,-1.237175 0.0033,-0.367895 2.859621,-0.996586 7.296073,-1.622214 4.379558,-0.617596 5.401313,-1.779131 2.620517,-2.976647 -0.662292,-0.285208 -1.068786,-0.419454 -1.684073,-0.3901 z m 1.581682,29.26534 c -0.28408,0.01999 -0.515216,0.104458 -0.72096,0.243552 -0.532899,0.360272 -0.528157,0.441637 0.08642,0.813307 1.54941,0.936916 -0.40864,3.672397 -4.082591,5.713662 -1.186814,0.659396 -2.136416,1.264915 -2.137231,1.355911 -0.007,0.779268 4.749486,-0.751928 9.214563,-2.980084 2.999155,-1.496656 3.198335,-2.250372 1.033828,-3.772141 -1.364571,-0.959361 -2.541836,-1.43415 -3.394077,-1.374206 z m -17.472349,3.812404 c -1.777344,-0.0031 -2.533459,1.097225 -0.891759,1.867086 1.154387,0.541362 1.219097,1.606784 0.650322,11.131271 -0.307142,5.143456 -0.323686,5.152758 -1.579052,5.329821 -0.690401,0.09742 -2.803598,0.718417 -4.700188,1.395456 -2.957686,1.055851 -3.505451,1.132097 -3.880723,0.621515 -0.372121,-0.506153 -0.567392,-0.454451 -1.315526,0.33198 -1.207154,1.268839 -1.110468,1.688472 0.600623,2.724239 1.415461,0.856914 1.876903,0.891198 3.466651,0.249811 0.995778,-0.401697 0.903009,1.121733 -0.268564,5.560317 -0.880266,3.33485 -0.867233,3.591377 -0.22556,4.24815 1.202236,1.230518 2.521226,0.103287 3.085889,-2.597463 0.679108,-3.247848 0.667778,-6.380575 -0.0623,-7.000839 -0.331103,-0.281377 -0.618413,-0.738169 -0.616018,-1.005558 0.0048,-0.530379 4.747277,-3.02065 5.086649,-2.673296 0.363047,0.371567 0.08591,14.282593 -0.284161,14.279278 -0.194412,-0.0017 -1.102242,-0.274934 -2.025851,-0.61192 -1.962894,-0.71611 -1.903608,-0.559123 1.069914,2.665941 3.949828,4.28385 4.742063,3.182702 4.209266,-5.900034 -0.647091,-11.03094 -0.135671,-22.079151 1.237602,-26.52123 0.711443,-2.30152 -0.179229,-3.582479 -2.74531,-4.024751 -0.291352,-0.05021 -0.558002,-0.06934 -0.811908,-0.06977 z m 24.192867,2.998066 c -1.211342,-0.01085 -1.25161,0.09934 -0.41883,1.402555 0.46221,0.723269 0.512058,1.183734 0.203067,1.75189 -0.656508,1.206968 -5.237235,5.26 -9.135473,8.105998 -1.953251,1.426062 -3.52486,2.759688 -3.526451,2.937281 -0.0046,0.514979 0.341153,0.394222 2.977308,-0.94212 4.119974,-2.088681 4.393541,-2.267988 7.980568,-4.772459 1.902434,-1.328313 3.969614,-2.597348 4.588068,-2.834018 1.267221,-0.484769 2.039621,-1.596895 1.709825,-2.484785 -0.38879,-1.046624 -3.308875,-3.154764 -4.378082,-3.164341 z m -8.019273,2.115755 c -0.179058,9.7e-5 -0.336586,0.01822 -0.50054,0.05802 -1.034011,0.251149 -1.023481,0.264595 0.07942,1.594527 0.606632,0.731563 1.410111,1.721099 1.792834,2.203646 1.382532,1.743153 2.048596,1.227698 2.517254,-1.91503 0.239727,-1.607417 0.191752,-1.734352 -0.395037,-1.253589 -0.547933,0.448911 -0.835027,0.418988 -1.811028,-0.172478 -0.552887,-0.337741 -1.145769,-0.515514 -1.682954,-0.515095 z m -23.204484,1.792229 c -0.449587,-0.009 -0.865271,0.032 -1.189132,0.176856 -1.199985,0.536673 -1.299334,1.156909 -0.263425,1.497701 0.905717,0.298025 1.639579,1.868561 1.625394,3.452196 -0.01174,1.310448 -2.004909,2.282934 -3.892199,1.902715 -1.293547,-0.260697 -1.221128,0.395028 0.141968,1.595086 1.300864,1.145297 1.683603,1.187277 4.465492,0.383763 4.798767,-1.385973 7.379688,-4.359975 3.126095,-3.597144 -1.562622,0.280215 -1.588883,0.199826 -0.983445,-1.852633 0.228312,-0.773986 0.295376,-1.730924 0.175277,-2.123515 -0.23765,-0.776985 -1.857253,-1.407956 -3.206025,-1.435025 z m 19.303888,1.047949 c -0.09045,-0.006 -0.195272,0.113193 -0.347095,0.371905 -0.382534,0.651899 -0.849581,0.781171 -2.818825,0.69353 -2.366981,-0.105405 -2.374,-0.116669 0.166219,2.376584 3.651069,3.583547 4.32892,3.196853 3.424308,-2.000658 -0.175524,-1.008551 -0.273851,-1.431306 -0.424607,-1.441361 z m 7.818423,6.351534 c -1.351991,-0.104264 -2.188344,0.386915 -1.042685,1.271962 1.211545,0.935989 0.786611,1.34425 -2.396458,2.38488 -1.51257,0.494472 -4.529005,1.593497 -6.709624,2.439999 -2.180631,0.846603 -4.596362,1.521391 -5.38878,1.514293 -1.790188,-0.01604 -1.703313,0.716172 0.234315,1.752169 1.436358,0.768096 2.55028,0.737173 4.625934,-0.08357 1.175371,-0.464789 1.304597,-0.396829 3.546123,1.844337 2.650589,2.650048 4.397509,3.042011 4.647106,1.041666 0.195523,-1.56701 -1.039597,-2.755922 -3.438941,-3.343435 -1.165122,-0.285248 -2.119352,-0.640059 -2.117917,-0.800253 0.0071,-0.796969 7.65768,-3.338444 8.243612,-2.738771 0.199083,0.20379 0.439456,3.675533 0.524589,7.723758 0.174929,8.317201 0.293215,8.045799 -3.404356,6.751028 -3.738126,-1.308935 -4.200148,-1.249371 -2.158403,0.230677 1.030292,0.746858 2.385078,1.692331 3.012655,2.089568 0.627538,0.397137 1.765048,1.175907 2.515753,1.741353 1.589012,1.197081 2.147922,1.27099 3.02777,0.402136 0.74958,-0.740215 0.778015,-1.153727 0.275003,-6.279038 -0.472136,-4.811122 -0.440723,-13.00707 0.05842,-13.500018 0.682222,-0.673717 6.219301,-0.443462 8.622135,0.358493 2.745179,0.916325 3.672404,0.678071 3.507977,-0.874864 -0.243397,-2.298672 -2.911236,-3.212705 -7.913669,-2.695991 -3.988289,0.411893 -4.346968,0.40898 -5.621975,-0.362871 -0.848096,-0.51338 -1.837394,-0.80495 -2.648586,-0.867509 z"
       id="path4012" />
  </g>
</svg>
