<?xml version="1.0" encoding="UTF-8" standalone="no"?>
<!-- Created with Inkscape (http://www.inkscape.org/) -->

<svg
   xmlns:dc="http://purl.org/dc/elements/1.1/"
   xmlns:cc="http://creativecommons.org/ns#"
   xmlns:rdf="http://www.w3.org/1999/02/22-rdf-syntax-ns#"
   xmlns:svg="http://www.w3.org/2000/svg"
   xmlns="http://www.w3.org/2000/svg"
   xmlns:sodipodi="http://sodipodi.sourceforge.net/DTD/sodipodi-0.dtd"
   xmlns:inkscape="http://www.inkscape.org/namespaces/inkscape"
   width="100"
   height="100"
   id="svg13986"
   version="1.1"
   inkscape:version="0.47 r22583"
   sodipodi:docname="ryuuma.svg"
   style="display:inline">
  <defs
     id="defs13988">
    <inkscape:perspective
       sodipodi:type="inkscape:persp3d"
       inkscape:vp_x="0 : 526.18109 : 1"
       inkscape:vp_y="0 : 1000 : 0"
       inkscape:vp_z="744.09448 : 526.18109 : 1"
       inkscape:persp3d-origin="372.04724 : 350.78739 : 1"
       id="perspective13994" />
    <inkscape:perspective
       id="perspective14004"
       inkscape:persp3d-origin="0.5 : 0.33333333 : 1"
       inkscape:vp_z="1 : 0.5 : 1"
       inkscape:vp_y="0 : 1000 : 0"
       inkscape:vp_x="0 : 0.5 : 1"
       sodipodi:type="inkscape:persp3d" />
    <inkscape:perspective
       id="perspective3830"
       inkscape:persp3d-origin="0.5 : 0.33333333 : 1"
       inkscape:vp_z="1 : 0.5 : 1"
       inkscape:vp_y="0 : 1000 : 0"
       inkscape:vp_x="0 : 0.5 : 1"
       sodipodi:type="inkscape:persp3d" />
    <inkscape:perspective
       id="perspective3830-1"
       inkscape:persp3d-origin="0.5 : 0.33333333 : 1"
       inkscape:vp_z="1 : 0.5 : 1"
       inkscape:vp_y="0 : 1000 : 0"
       inkscape:vp_x="0 : 0.5 : 1"
       sodipodi:type="inkscape:persp3d" />
    <inkscape:perspective
       id="perspective3830-0"
       inkscape:persp3d-origin="0.5 : 0.33333333 : 1"
       inkscape:vp_z="1 : 0.5 : 1"
       inkscape:vp_y="0 : 1000 : 0"
       inkscape:vp_x="0 : 0.5 : 1"
       sodipodi:type="inkscape:persp3d" />
    <inkscape:perspective
       id="perspective3830-2"
       inkscape:persp3d-origin="0.5 : 0.33333333 : 1"
       inkscape:vp_z="1 : 0.5 : 1"
       inkscape:vp_y="0 : 1000 : 0"
       inkscape:vp_x="0 : 0.5 : 1"
       sodipodi:type="inkscape:persp3d" />
    <inkscape:perspective
       id="perspective3830-4"
       inkscape:persp3d-origin="0.5 : 0.33333333 : 1"
       inkscape:vp_z="1 : 0.5 : 1"
       inkscape:vp_y="0 : 1000 : 0"
       inkscape:vp_x="0 : 0.5 : 1"
       sodipodi:type="inkscape:persp3d" />
    <inkscape:perspective
       id="perspective3830-44"
       inkscape:persp3d-origin="0.5 : 0.33333333 : 1"
       inkscape:vp_z="1 : 0.5 : 1"
       inkscape:vp_y="0 : 1000 : 0"
       inkscape:vp_x="0 : 0.5 : 1"
       sodipodi:type="inkscape:persp3d" />
    <inkscape:perspective
       id="perspective3830-11"
       inkscape:persp3d-origin="0.5 : 0.33333333 : 1"
       inkscape:vp_z="1 : 0.5 : 1"
       inkscape:vp_y="0 : 1000 : 0"
       inkscape:vp_x="0 : 0.5 : 1"
       sodipodi:type="inkscape:persp3d" />
    <inkscape:perspective
       id="perspective3830-19"
       inkscape:persp3d-origin="0.5 : 0.33333333 : 1"
       inkscape:vp_z="1 : 0.5 : 1"
       inkscape:vp_y="0 : 1000 : 0"
       inkscape:vp_x="0 : 0.5 : 1"
       sodipodi:type="inkscape:persp3d" />
    <inkscape:perspective
       id="perspective3830-5"
       inkscape:persp3d-origin="0.5 : 0.33333333 : 1"
       inkscape:vp_z="1 : 0.5 : 1"
       inkscape:vp_y="0 : 1000 : 0"
       inkscape:vp_x="0 : 0.5 : 1"
       sodipodi:type="inkscape:persp3d" />
    <inkscape:perspective
       id="perspective3830-53"
       inkscape:persp3d-origin="0.5 : 0.33333333 : 1"
       inkscape:vp_z="1 : 0.5 : 1"
       inkscape:vp_y="0 : 1000 : 0"
       inkscape:vp_x="0 : 0.5 : 1"
       sodipodi:type="inkscape:persp3d" />
    <inkscape:perspective
       id="perspective3830-04"
       inkscape:persp3d-origin="0.5 : 0.33333333 : 1"
       inkscape:vp_z="1 : 0.5 : 1"
       inkscape:vp_y="0 : 1000 : 0"
       inkscape:vp_x="0 : 0.5 : 1"
       sodipodi:type="inkscape:persp3d" />
    <inkscape:perspective
       id="perspective3830-6"
       inkscape:persp3d-origin="0.5 : 0.33333333 : 1"
       inkscape:vp_z="1 : 0.5 : 1"
       inkscape:vp_y="0 : 1000 : 0"
       inkscape:vp_x="0 : 0.5 : 1"
       sodipodi:type="inkscape:persp3d" />
    <inkscape:perspective
       id="perspective3830-55"
       inkscape:persp3d-origin="0.5 : 0.33333333 : 1"
       inkscape:vp_z="1 : 0.5 : 1"
       inkscape:vp_y="0 : 1000 : 0"
       inkscape:vp_x="0 : 0.5 : 1"
       sodipodi:type="inkscape:persp3d" />
    <inkscape:perspective
       id="perspective3830-40"
       inkscape:persp3d-origin="0.5 : 0.33333333 : 1"
       inkscape:vp_z="1 : 0.5 : 1"
       inkscape:vp_y="0 : 1000 : 0"
       inkscape:vp_x="0 : 0.5 : 1"
       sodipodi:type="inkscape:persp3d" />
    <inkscape:perspective
       id="perspective5074"
       inkscape:persp3d-origin="0.5 : 0.33333333 : 1"
       inkscape:vp_z="1 : 0.5 : 1"
       inkscape:vp_y="0 : 1000 : 0"
       inkscape:vp_x="0 : 0.5 : 1"
       sodipodi:type="inkscape:persp3d" />
    <inkscape:perspective
       id="perspective5809"
       inkscape:persp3d-origin="0.5 : 0.33333333 : 1"
       inkscape:vp_z="1 : 0.5 : 1"
       inkscape:vp_y="0 : 1000 : 0"
       inkscape:vp_x="0 : 0.5 : 1"
       sodipodi:type="inkscape:persp3d" />
  </defs>
  <sodipodi:namedview
     id="base"
     pagecolor="#ffffff"
     bordercolor="#666666"
     borderopacity="1.0"
     inkscape:pageopacity="0.0"
     inkscape:pageshadow="2"
     inkscape:zoom="8.48"
     inkscape:cx="11.438679"
     inkscape:cy="50"
     inkscape:document-units="px"
     inkscape:current-layer="layer7"
     showgrid="false"
     showguides="true"
     inkscape:guide-bbox="true"
     inkscape:snap-global="false"
     inkscape:window-width="1920"
     inkscape:window-height="1122"
     inkscape:window-x="0"
     inkscape:window-y="24"
     inkscape:window-maximized="1">
    <sodipodi:guide
       orientation="0,1"
       position="105.48232,6.0037368"
       id="guide2865" />
    <sodipodi:guide
       orientation="1,0"
       position="50,22.169811"
       id="guide2957" />
  </sodipodi:namedview>
  <metadata
     id="metadata13991">
    <rdf:RDF>
      <cc:Work
         rdf:about="">
        <dc:format>image/svg+xml</dc:format>
        <dc:type
           rdf:resource="http://purl.org/dc/dcmitype/StillImage" />
        <dc:title />
      </cc:Work>
    </rdf:RDF>
  </metadata>
  <g
     inkscape:groupmode="layer"
     id="layer7"
     inkscape:label="pieces_0.5_opt_single"
     style="display:inline">
    <path
       id="path5855"
       d="m 11.593137,93.498863 76.812724,0.0015 L 75.688111,15.686341 49.999075,7.5271712 23.97986,15.562901 11.593137,93.498863 z"
       style="fill:#e6c679;fill-opacity:1;stroke:#000000;stroke-width:1px;stroke-linecap:butt;stroke-linejoin:miter;stroke-opacity:1"
       sodipodi:nodetypes="cccccc" />
    <path
       style="fill:#d11111;fill-opacity:1;display:inline"
       d="m 56.140484,16.189929 c -1.243952,-0.02178 -1.8975,0.657874 -0.978222,1.02227 1.04588,0.414565 1.089067,1.533862 0.195506,5.908305 -1.10083,5.389174 -1.510028,6.5816 -2.569367,7.507869 -0.473479,0.41395 -2.038471,2.100234 -3.472235,3.749378 -2.474107,2.845798 -2.717421,2.99581 -4.434601,3.052972 -0.995127,0.03302 -1.780679,-0.07013 -1.779157,-0.235172 0.0065,-0.70287 1.813672,-2.498126 3.153983,-3.127289 2.270167,-1.065703 2.245655,-1.887265 -0.04808,-1.563009 -2.248196,0.317675 -2.282684,0.168751 -0.424221,-1.441476 3.299986,-2.859179 1.603139,-5.811658 -2.060798,-3.581662 -0.765098,0.465662 -1.496101,0.779232 -1.600024,0.672769 -0.39871,-0.408296 2.409809,-2.629532 3.935199,-3.120082 2.281215,-0.733588 3.167665,-1.805956 2.053649,-2.418659 -1.079369,-0.593682 -2.388347,-0.236742 -6.108481,1.568718 -1.675633,0.813278 -4.297662,1.894886 -5.803777,2.415315 -3.043212,1.051772 -3.182898,1.228491 -1.705301,1.921851 1.379218,0.64725 2.614177,0.60529 4.376255,-0.115886 1.932387,-0.790808 1.877824,-0.590202 -0.77303,2.492976 -2.309973,2.686805 -3.074554,4.339772 -2.35939,5.072201 0.455774,0.466724 2.095701,-0.201777 2.101733,-0.855649 0.0047,-0.511078 5.231305,-5.639483 5.739723,-5.634792 1.370752,0.01264 -1.742225,4.661476 -3.802594,5.683914 -0.946895,0.469885 -3.418297,1.858246 -5.497344,3.074419 -2.815464,1.647098 -4.310484,2.253733 -5.80349,2.384066 -2.364595,0.206496 -2.470102,0.496185 -0.673806,1.900115 2.026654,1.583963 3.605469,1.42277 6.318861,-0.660488 3.815425,-2.929329 7.360446,-5.163622 7.35543,-4.619845 -0.0026,0.282888 -0.659493,2.088405 -1.443089,3.986857 -2.682238,6.498234 -3.097167,13.113188 -0.879114,13.992486 0.804831,0.319038 1.754116,-0.438037 1.763186,-1.421295 0.0039,-0.419883 0.217408,-0.779278 0.475937,-0.776893 0.586435,0.0054 4.136014,2.338503 4.783756,3.138012 0.569707,0.703285 1.818023,0.782104 2.217503,0.145462 1.07177,-1.707886 0.921235,-10.29369 -0.267574,-15.034358 -0.648028,-2.584288 -0.540796,-2.805208 2.522264,-5.789479 1.467007,-1.429328 2.012628,-1.77711 2.105768,-1.29313 0.06938,0.360555 0.856956,1.05485 1.736088,1.516079 0.879123,0.46123 1.686274,1.086002 1.799739,1.391662 0.207297,0.558536 -1.269193,3.912258 -2.617739,5.976106 -0.67929,1.039678 -0.684334,1.160437 -0.04792,1.812135 0.636355,0.651698 0.800113,0.626608 2.815839,-0.349039 4.256125,-2.060127 7.211525,-1.73425 8.273403,0.888857 0.550216,1.359133 0.533022,1.500331 -0.496116,2.9643 -1.989065,2.829372 -5.016617,4.40166 -8.447115,4.391014 -1.931538,-0.0059 -2.035939,0.02512 -1.317922,0.581618 0.472105,0.36587 1.670662,0.609187 3.056893,0.621975 5.671089,0.05232 11.341021,-4.146309 10.85603,-8.056449 -0.449908,-3.627305 -2.862139,-5.12462 -7.550762,-4.694853 -1.545844,0.141746 -2.813854,0.133798 -2.812669,0.0053 0.0012,-0.128495 0.406953,-1.03904 0.893701,-2.023092 1.121348,-2.266752 0.88945,-2.853417 -1.588609,-3.952323 -2.21793,-0.983701 -2.628549,-1.572114 -2.065987,-3.019186 0.405735,-1.043602 3.244899,-3.147001 4.908809,-3.642373 4.592206,-1.366996 5.541941,-3.662433 1.438477,-3.486879 -3.889011,0.166432 -4.342629,-0.661887 -2.95029,-5.402445 0.654989,-2.229953 -0.239927,-3.483362 -2.498856,-3.523201 z m -16.264587,1.506279 c -0.756122,0.01403 -0.618844,0.474512 0.328745,1.628101 0.648544,0.789616 0.979452,1.613004 0.855937,2.070485 -0.151791,0.562024 -0.0048,0.733838 0.494501,0.598337 0.371727,-0.100874 1.248842,-0.310943 1.972991,-0.450569 0.940572,-0.181231 1.317061,-0.488372 1.322245,-1.050347 0.0085,-0.923361 -1.990555,-2.277559 -3.913118,-2.661211 -0.456129,-0.09101 -0.809258,-0.139452 -1.061301,-0.134797 z m 26.016132,5.14646 c -0.188107,0.0043 -0.376848,0.01213 -0.563052,0.05731 -1.510474,0.366282 -1.377027,0.848533 0.605947,2.068177 1.973805,1.21406 2.520433,1.184201 2.532872,-0.164142 0.01011,-1.095543 -1.259009,-1.994088 -2.575767,-1.961345 z m -8.651154,2.795315 c 0.06169,-0.02043 0.143806,-0.02387 0.218741,0.002 0.277139,0.09566 0.496098,0.425244 0.493348,0.723332 -0.0027,0.298087 -0.227753,0.623675 -0.506609,0.714107 -0.301606,0.09792 -0.498182,-0.199354 -0.493348,-0.723332 0.0036,-0.392983 0.102844,-0.654739 0.287868,-0.716125 z M 44.115742,39.142481 c 0.546395,-0.07286 0.582774,0.55184 -0.04734,1.749638 -0.733625,1.394492 -0.666973,1.366355 -1.661657,0.578446 -0.764744,-0.60578 -0.743395,-0.646785 0.200753,-1.435709 0.662061,-0.553226 1.180458,-0.848657 1.508296,-0.892374 z m 1.506105,2.73276 c 0.430283,0.06347 0.582017,2.051856 0.565589,6.442991 -0.02187,5.839347 0.109222,5.638398 -3.16609,4.439733 -2.426512,-0.887922 -2.705707,-1.716832 -2.159271,-6.457693 0.472518,-4.099616 0.708666,-4.676112 1.473473,-3.892824 0.367961,0.376611 0.333827,1.020823 -0.05714,2.812093 -0.421637,1.931593 -0.405262,2.391863 0.06718,2.875742 1.291603,1.322671 2.76413,-0.630179 2.436416,-3.258914 -0.100368,-0.805059 0.02546,-1.892494 0.303435,-2.403553 0.207658,-0.38155 0.392985,-0.578749 0.536416,-0.557575 z m 13.656418,13.595305 c -2.956074,0.07253 -8.223211,2.148794 -14.773472,5.863968 -4.61456,2.617344 -5.565827,2.85868 -5.169291,1.389874 0.357417,-1.323759 -0.535469,-0.824224 -1.162254,0.645556 -0.951645,2.231417 -0.771939,2.755247 1.245738,3.855406 1.848163,1.007692 1.840059,0.995066 3.887231,-1.307947 3.908964,-4.397728 13.78028,-9.994206 13.760138,-7.810899 -0.0038,0.409082 -4.073074,4.814332 -7.197341,7.808939 -2.989823,2.865741 -2.488276,4.744848 0.785368,2.94487 2.315975,-1.27339 2.471519,-1.053046 0.98785,1.321668 -2.13477,3.416853 -1.479538,4.268434 2.068869,2.7067 3.363147,-1.480139 5.469452,-1.2747 6.713276,0.624455 3.773423,5.761454 -6.104686,13.205448 -13.595132,10.250025 -2.784244,-1.098631 -2.904871,-3.411742 -0.239727,-4.502403 1.95929,-0.80186 3.367112,-0.395506 4.70673,1.324725 1.389262,1.783991 3.341068,2.031906 3.745805,0.472074 1.14235,-4.40255 -9.517202,-5.82924 -12.04815,-1.61121 -1.329484,2.215531 -0.823462,4.381391 1.384397,5.763016 1.833356,1.147061 8.272189,1.181909 11.499798,0.07489 7.233657,-2.481278 10.064199,-9.063747 5.940246,-13.820791 -1.531061,-1.764199 -1.583729,-1.805937 -4.233388,-1.82038 -2.989806,-0.01858 -3.086706,-0.14148 -1.63773,-2.015193 2.071792,-2.679102 1.425223,-3.400947 -2.195882,-2.489112 -1.104594,0.278222 -0.119064,-0.674377 5.297341,-5.107601 2.959167,-2.421906 3.450576,-3.559921 1.883453,-4.295309 -0.425167,-0.19953 -0.9717,-0.282005 -1.653873,-0.265267 z"
       id="path4008" />
  </g>
</svg>
