<?xml version="1.0" encoding="UTF-8" standalone="no"?>
<!-- Created with Inkscape (http://www.inkscape.org/) -->

<svg
   xmlns:dc="http://purl.org/dc/elements/1.1/"
   xmlns:cc="http://creativecommons.org/ns#"
   xmlns:rdf="http://www.w3.org/1999/02/22-rdf-syntax-ns#"
   xmlns:svg="http://www.w3.org/2000/svg"
   xmlns="http://www.w3.org/2000/svg"
   xmlns:sodipodi="http://sodipodi.sourceforge.net/DTD/sodipodi-0.dtd"
   xmlns:inkscape="http://www.inkscape.org/namespaces/inkscape"
   width="100"
   height="100"
   id="svg13986"
   version="1.1"
   inkscape:version="0.47 r22583"
   sodipodi:docname="ryuuou.svg"
   style="display:inline">
  <defs
     id="defs13988">
    <inkscape:perspective
       sodipodi:type="inkscape:persp3d"
       inkscape:vp_x="0 : 526.18109 : 1"
       inkscape:vp_y="0 : 1000 : 0"
       inkscape:vp_z="744.09448 : 526.18109 : 1"
       inkscape:persp3d-origin="372.04724 : 350.78739 : 1"
       id="perspective13994" />
    <inkscape:perspective
       id="perspective14004"
       inkscape:persp3d-origin="0.5 : 0.33333333 : 1"
       inkscape:vp_z="1 : 0.5 : 1"
       inkscape:vp_y="0 : 1000 : 0"
       inkscape:vp_x="0 : 0.5 : 1"
       sodipodi:type="inkscape:persp3d" />
    <inkscape:perspective
       id="perspective3830"
       inkscape:persp3d-origin="0.5 : 0.33333333 : 1"
       inkscape:vp_z="1 : 0.5 : 1"
       inkscape:vp_y="0 : 1000 : 0"
       inkscape:vp_x="0 : 0.5 : 1"
       sodipodi:type="inkscape:persp3d" />
    <inkscape:perspective
       id="perspective3830-1"
       inkscape:persp3d-origin="0.5 : 0.33333333 : 1"
       inkscape:vp_z="1 : 0.5 : 1"
       inkscape:vp_y="0 : 1000 : 0"
       inkscape:vp_x="0 : 0.5 : 1"
       sodipodi:type="inkscape:persp3d" />
    <inkscape:perspective
       id="perspective3830-0"
       inkscape:persp3d-origin="0.5 : 0.33333333 : 1"
       inkscape:vp_z="1 : 0.5 : 1"
       inkscape:vp_y="0 : 1000 : 0"
       inkscape:vp_x="0 : 0.5 : 1"
       sodipodi:type="inkscape:persp3d" />
    <inkscape:perspective
       id="perspective3830-2"
       inkscape:persp3d-origin="0.5 : 0.33333333 : 1"
       inkscape:vp_z="1 : 0.5 : 1"
       inkscape:vp_y="0 : 1000 : 0"
       inkscape:vp_x="0 : 0.5 : 1"
       sodipodi:type="inkscape:persp3d" />
    <inkscape:perspective
       id="perspective3830-4"
       inkscape:persp3d-origin="0.5 : 0.33333333 : 1"
       inkscape:vp_z="1 : 0.5 : 1"
       inkscape:vp_y="0 : 1000 : 0"
       inkscape:vp_x="0 : 0.5 : 1"
       sodipodi:type="inkscape:persp3d" />
    <inkscape:perspective
       id="perspective3830-44"
       inkscape:persp3d-origin="0.5 : 0.33333333 : 1"
       inkscape:vp_z="1 : 0.5 : 1"
       inkscape:vp_y="0 : 1000 : 0"
       inkscape:vp_x="0 : 0.5 : 1"
       sodipodi:type="inkscape:persp3d" />
    <inkscape:perspective
       id="perspective3830-11"
       inkscape:persp3d-origin="0.5 : 0.33333333 : 1"
       inkscape:vp_z="1 : 0.5 : 1"
       inkscape:vp_y="0 : 1000 : 0"
       inkscape:vp_x="0 : 0.5 : 1"
       sodipodi:type="inkscape:persp3d" />
    <inkscape:perspective
       id="perspective3830-19"
       inkscape:persp3d-origin="0.5 : 0.33333333 : 1"
       inkscape:vp_z="1 : 0.5 : 1"
       inkscape:vp_y="0 : 1000 : 0"
       inkscape:vp_x="0 : 0.5 : 1"
       sodipodi:type="inkscape:persp3d" />
    <inkscape:perspective
       id="perspective3830-5"
       inkscape:persp3d-origin="0.5 : 0.33333333 : 1"
       inkscape:vp_z="1 : 0.5 : 1"
       inkscape:vp_y="0 : 1000 : 0"
       inkscape:vp_x="0 : 0.5 : 1"
       sodipodi:type="inkscape:persp3d" />
    <inkscape:perspective
       id="perspective3830-53"
       inkscape:persp3d-origin="0.5 : 0.33333333 : 1"
       inkscape:vp_z="1 : 0.5 : 1"
       inkscape:vp_y="0 : 1000 : 0"
       inkscape:vp_x="0 : 0.5 : 1"
       sodipodi:type="inkscape:persp3d" />
    <inkscape:perspective
       id="perspective3830-04"
       inkscape:persp3d-origin="0.5 : 0.33333333 : 1"
       inkscape:vp_z="1 : 0.5 : 1"
       inkscape:vp_y="0 : 1000 : 0"
       inkscape:vp_x="0 : 0.5 : 1"
       sodipodi:type="inkscape:persp3d" />
    <inkscape:perspective
       id="perspective3830-6"
       inkscape:persp3d-origin="0.5 : 0.33333333 : 1"
       inkscape:vp_z="1 : 0.5 : 1"
       inkscape:vp_y="0 : 1000 : 0"
       inkscape:vp_x="0 : 0.5 : 1"
       sodipodi:type="inkscape:persp3d" />
    <inkscape:perspective
       id="perspective3830-55"
       inkscape:persp3d-origin="0.5 : 0.33333333 : 1"
       inkscape:vp_z="1 : 0.5 : 1"
       inkscape:vp_y="0 : 1000 : 0"
       inkscape:vp_x="0 : 0.5 : 1"
       sodipodi:type="inkscape:persp3d" />
    <inkscape:perspective
       id="perspective3830-40"
       inkscape:persp3d-origin="0.5 : 0.33333333 : 1"
       inkscape:vp_z="1 : 0.5 : 1"
       inkscape:vp_y="0 : 1000 : 0"
       inkscape:vp_x="0 : 0.5 : 1"
       sodipodi:type="inkscape:persp3d" />
    <inkscape:perspective
       id="perspective5074"
       inkscape:persp3d-origin="0.5 : 0.33333333 : 1"
       inkscape:vp_z="1 : 0.5 : 1"
       inkscape:vp_y="0 : 1000 : 0"
       inkscape:vp_x="0 : 0.5 : 1"
       sodipodi:type="inkscape:persp3d" />
    <inkscape:perspective
       id="perspective5809"
       inkscape:persp3d-origin="0.5 : 0.33333333 : 1"
       inkscape:vp_z="1 : 0.5 : 1"
       inkscape:vp_y="0 : 1000 : 0"
       inkscape:vp_x="0 : 0.5 : 1"
       sodipodi:type="inkscape:persp3d" />
  </defs>
  <sodipodi:namedview
     id="base"
     pagecolor="#ffffff"
     bordercolor="#666666"
     borderopacity="1.0"
     inkscape:pageopacity="0.0"
     inkscape:pageshadow="2"
     inkscape:zoom="8.48"
     inkscape:cx="11.438679"
     inkscape:cy="50"
     inkscape:document-units="px"
     inkscape:current-layer="layer7"
     showgrid="false"
     showguides="true"
     inkscape:guide-bbox="true"
     inkscape:snap-global="false"
     inkscape:window-width="1920"
     inkscape:window-height="1122"
     inkscape:window-x="0"
     inkscape:window-y="24"
     inkscape:window-maximized="1">
    <sodipodi:guide
       orientation="0,1"
       position="105.48232,6.0037368"
       id="guide2865" />
    <sodipodi:guide
       orientation="1,0"
       position="50,22.169811"
       id="guide2957" />
  </sodipodi:namedview>
  <metadata
     id="metadata13991">
    <rdf:RDF>
      <cc:Work
         rdf:about="">
        <dc:format>image/svg+xml</dc:format>
        <dc:type
           rdf:resource="http://purl.org/dc/dcmitype/StillImage" />
        <dc:title />
      </cc:Work>
    </rdf:RDF>
  </metadata>
  <g
     inkscape:groupmode="layer"
     id="layer7"
     inkscape:label="pieces_0.5_opt_single"
     style="display:inline">
    <path
       id="path5853"
       d="M 11.636553,93.496467 88.360254,93.496981 75.554149,15.520954 50.001248,7.1250977 23.489994,15.719462 11.636553,93.496467 z"
       style="fill:#e6c679;fill-opacity:1;stroke:#000000;stroke-width:1px;stroke-linecap:butt;stroke-linejoin:miter;stroke-opacity:1"
       sodipodi:nodetypes="cccccc" />
    <path
       style="fill:#d11111;fill-opacity:1;display:inline"
       d="m 55.630767,15.687728 c -0.825322,0.04034 -1.083612,0.664966 -0.262855,1.591681 0.713432,0.805584 0.642406,1.788493 -0.331936,6.278775 -1.11904,5.157136 -0.983118,4.958027 -3.641554,5.908302 -1.339247,0.478606 -2.530322,0.99981 -2.634499,1.166275 -0.30631,0.489343 1.766687,0.861087 3.276603,0.588964 0.766221,-0.13832 1.376366,-0.163646 1.375711,-0.0826 -0.02806,0.961705 -1.891077,5.803026 -3.032212,7.850783 -0.806303,1.446839 -1.294085,2.61464 -1.083651,2.616339 1.017736,0.0082 3.286056,-2.648915 4.164463,-4.872798 0.859549,-2.175833 1.608629,-2.918662 2.079332,-2.077035 0.09424,0.168466 0.02272,1.484332 -0.179954,2.936143 -1.284293,9.197334 -0.356626,13.876324 3.124542,15.556975 1.018365,0.491735 5.823321,0.0126 8.350793,-0.838879 4.077181,-1.373537 5.260581,-3.306299 3.230021,-5.255351 -0.556616,-0.53431 -1.144617,-1.544939 -1.325799,-2.229523 -0.329438,-1.2448 -0.332152,-1.222671 -0.659507,0.40094 -0.695697,3.450297 -2.90598,5.03921 -6.884387,5.007099 -3.768307,-0.03042 -4.536322,-1.77492 -3.990485,-8.938748 0.671531,-8.814267 0.666053,-8.77616 -0.835348,-8.788278 -1.179755,-0.0065 -1.281199,-0.08334 -1.054394,-1.008543 0.425853,-1.73702 0.892521,-2.298621 2.272878,-2.825498 6.697506,-2.556228 7.799093,-3.784177 3.468663,-3.84713 -3.380821,-0.04939 -3.867196,-0.655333 -2.969636,-3.77409 0.970455,-3.371778 0.928892,-4.047985 -0.461394,-4.78513 -0.796876,-0.422465 -1.500203,-0.602848 -1.995395,-0.578624 z m -16.140869,1.90104 c -0.553612,0.04763 -0.370257,0.497468 0.457385,1.409987 0.563356,0.621067 1.019511,1.458576 1.016084,1.883262 -0.0054,0.670079 0.209191,0.740413 1.527164,0.512343 3.340145,-0.578161 2.710225,-2.395754 -1.190714,-3.478474 -0.87841,-0.243837 -1.477747,-0.355698 -1.809919,-0.327118 z m 22.857357,2.278305 c -0.190372,0.0045 -0.377836,0.01285 -0.562986,0.05796 -1.363498,0.332406 -1.240894,0.842912 0.514586,2.06672 1.805311,1.258512 2.70908,1.209105 2.720175,-0.16555 0.0086,-1.062566 -1.339222,-1.987034 -2.671775,-1.959128 z m -15.300678,2.345335 c -0.854296,-0.0758 -2.190002,0.47959 -6.143717,2.294239 -2.364776,1.085349 -5.073101,2.109624 -6.018468,2.263999 -2.126453,0.347349 -2.237716,0.790815 -0.483616,1.839907 1.304248,0.779952 1.425725,0.790632 3.186388,0.150722 2.480727,-0.901608 2.537982,-0.613236 0.391103,1.878218 -2.940972,3.412974 -3.794115,5.563309 -2.201326,5.576164 0.30023,0.0024 1.784788,-1.356789 3.305608,-3.004668 2.363134,-2.560711 4.660145,-4.335679 4.654359,-3.618803 -0.01516,1.877839 -3.430878,5.572541 -6.053023,6.54511 -0.373401,0.138591 -1.874941,0.9937 -3.328029,1.910702 -3.009837,1.899269 -4.812331,2.586244 -6.739718,2.570687 -1.670836,-0.01348 -1.500093,0.81947 0.421092,2.034715 1.907473,1.206635 3.118285,1.062552 5.349377,-0.675597 2.525722,-1.967579 7.868904,-5.425417 8.073613,-5.216258 0.08639,0.0882 -0.572938,1.820035 -1.468728,3.863272 -2.52141,5.751237 -3.142163,12.203087 -1.363205,14.020704 0.912138,0.931892 2.058991,0.443082 2.069747,-0.889574 0.01302,-1.612948 1.366794,-1.162107 4.238764,1.409256 3.558512,3.185925 4.549839,1.279764 3.905166,-7.593728 -0.588303,-8.097712 -1.699092,-10.696862 -4.447871,-10.348736 -2.535194,0.321049 -1.498029,-1.730897 1.683183,-3.330274 2.086906,-1.04909 1.860995,-1.757387 -0.457385,-1.409987 -1.696406,0.254117 -1.720886,0.27637 0.01286,-1.593698 3.159054,-3.407515 1.568046,-5.764482 -2.285438,-3.362305 -0.889685,0.554637 -1.631985,0.858856 -1.630496,0.674362 0.0058,-0.723177 2.371612,-2.49834 4.5906,-3.463062 2.502814,-1.088136 2.812098,-1.559405 1.518363,-2.26907 -0.258614,-0.141841 -0.494441,-0.231028 -0.779207,-0.256297 z m 10.25645,3.114131 c 0.21724,-0.01645 0.40446,0.223422 0.400184,0.753254 -0.003,0.372588 -0.240816,0.774082 -0.538295,0.870684 -0.370969,0.12101 -0.497841,-0.127072 -0.399931,-0.784503 0.07982,-0.535473 0.320803,-0.822998 0.538042,-0.839435 z m 3.523265,8.747471 c -0.761763,0.01835 -1.370705,0.477023 -1.133539,1.053386 0.15321,0.372348 0.238059,1.313114 0.201844,2.095447 -0.06568,1.422016 -0.04603,1.416425 1.375712,-0.0826 1.435301,-1.513366 1.53544,-2.460988 0.336198,-2.934883 -0.263628,-0.104151 -0.526298,-0.137412 -0.780216,-0.131301 z m -16.916319,5.051134 c 1.054166,0.0085 1.214837,0.650776 0.392365,1.721972 -0.600855,0.782476 -2.093321,0.938286 -2.502189,0.261064 -0.394429,-0.653405 1.029809,-1.991753 2.109824,-1.983036 z m 16.025936,0.723118 c -0.636226,-0.01544 -0.658561,0.271213 -0.195817,1.029703 0.266048,0.436161 0.458907,1.221394 0.454862,1.722477 -0.0073,0.902571 0.02858,0.90751 1.094976,-0.147417 1.270507,-1.256887 1.08313,-2.183029 -0.511055,-2.504206 -0.355823,-0.07167 -0.630891,-0.09539 -0.842967,-0.100507 z m -14.670654,1.7254 c 0.188209,0.05792 0.397141,0.47235 0.552141,1.285748 0.134192,0.704106 0.328573,3.369812 0.452315,5.910093 0.258382,5.303758 0.327002,5.24081 -3.31141,3.723395 -2.624113,-1.094315 -2.711412,-1.280675 -2.398326,-4.863265 0.485543,-5.555462 0.659483,-6.22008 1.450594,-5.488471 0.601571,0.556173 0.6347,0.892151 0.198061,2.564182 -0.549861,2.105431 -0.40406,3.295446 0.439478,3.628665 1.06448,0.420605 1.749705,-0.699901 1.773147,-2.860782 0.02708,-2.487723 0.429946,-4.027091 0.844,-3.899565 z m 14.663061,3.087195 c -0.34024,0.123778 -0.03797,0.838791 0.829851,1.725504 1.108069,1.13208 1.939045,1.271792 2.621383,0.458672 0.524442,-0.624987 0.0243,-1.191442 -1.362344,-1.573546 -0.443847,-0.122387 -1.139268,-0.348107 -1.527165,-0.512343 -0.258545,-0.10946 -0.448308,-0.139543 -0.561725,-0.09824 z m -7.513958,13.314789 c -0.611214,0.08977 -1.477156,0.515245 -3.041996,1.319241 -1.499708,0.770521 -3.026154,1.413122 -3.417741,1.409962 -1.181472,-0.0095 -1.30988,0.461793 -0.386842,1.465675 1.084638,1.179193 2.052231,1.217453 3.842868,0.12472 1.760769,-1.074424 1.908294,-0.917028 2.073505,2.516817 0.13599,2.82669 0.110624,2.831085 -1.340202,3.426795 -2.125432,0.872674 -4.305139,2.942599 -4.314151,4.059063 -0.0071,0.882471 1.754706,2.639248 2.666227,2.646605 0.201163,0.0016 0.726553,0.253972 1.151672,0.571814 0.738806,0.552381 0.673639,0.671959 -1.304917,2.927063 -3.82264,4.35709 -3.795182,5.813309 0.04653,5.844316 1.764082,0.01424 2.509682,0.825083 1.27011,1.385296 -0.27901,0.124052 -0.102793,0.126375 0.406237,0.0033 6.817692,-1.649128 9.235181,-6.211115 2.983056,-5.632357 -1.457657,0.134939 -2.957304,0.331792 -3.347425,0.441747 -1.001803,0.282624 -0.898207,-0.779525 0.170117,-1.717433 4.460723,-3.916225 6.822538,-8.983528 4.833582,-10.336325 -0.799657,-0.543871 -0.793439,-0.705927 -0.336146,-4.81537 0.45986,-4.132723 0.434138,-4.307336 -0.397131,-5.003368 -0.583436,-0.488575 -0.946191,-0.72732 -1.557405,-0.63759 z m -1.851082,12.516718 c 0.454528,-0.04123 0.544272,0.52109 0.298114,1.783714 -0.316972,1.625795 -0.502394,1.719401 -1.63201,0.861856 -0.848955,-0.644573 -0.568986,-1.586194 0.738148,-2.40037 0.235913,-0.146951 0.444242,-0.231453 0.595748,-0.2452 z"
       id="path4014" />
  </g>
</svg>
